<?xml version="1.0" encoding="utf-8" standalone="no"?>
<!DOCTYPE svg PUBLIC "-//W3C//DTD SVG 1.1//EN"
  "http://www.w3.org/Graphics/SVG/1.1/DTD/svg11.dtd">
<svg height="432pt" version="1.1" viewBox="0 0 432 432" width="432pt" xmlns="http://www.w3.org/2000/svg" xmlns:xlink="http://www.w3.org/1999/xlink">
 <metadata>
  <rdf:RDF xmlns:cc="http://creativecommons.org/ns#" xmlns:dc="http://purl.org/dc/elements/1.1/" xmlns:rdf="http://www.w3.org/1999/02/22-rdf-syntax-ns#">
   <cc:Work>
    <dc:type rdf:resource="http://purl.org/dc/dcmitype/StillImage"/>
    <dc:date>2024-03-15T11:28:49.394981</dc:date>
    <dc:format>image/svg+xml</dc:format>
    <dc:creator>
     <cc:Agent>
      <dc:title>Matplotlib v3.4.3, https://matplotlib.org/</dc:title>
     </cc:Agent>
    </dc:creator>
   </cc:Work>
  </rdf:RDF>
 </metadata>
 <defs>
  <style type="text/css">*{stroke-linecap:butt;stroke-linejoin:round;}</style>
 </defs>
 <g id="figure_1">
  <g id="patch_1">
   <path d="M 0 432 
L 432 432 
L 432 0 
L 0 0 
z
" style="fill:none;"/>
  </g>
  <g id="axes_1">
   <g id="patch_2">
    <path d="M 54 378 
L 388.8 378 
L 388.8 51.84 
L 54 51.84 
z
" style="fill:none;"/>
   </g>
   <g id="matplotlib.axis_1">
    <g id="xtick_1">
     <g id="line2d_1">
      <path clip-path="url(#pe02f8e61a9)" d="M 54 378 
L 54 51.84 
" style="fill:none;stroke:#555555;stroke-linecap:square;"/>
     </g>
     <g id="line2d_2">
      <defs>
       <path d="M 0 0 
L 0 3.5 
" id="m5088b28542" style="stroke:#000000;stroke-width:0.8;"/>
      </defs>
      <g>
       <use style="stroke:#000000;stroke-width:0.8;" x="54" xlink:href="#m5088b28542" y="378"/>
      </g>
     </g>
     <g id="text_1">
      <!-- 5 -->
      <g transform="translate(50.18375 396.825)scale(0.16 -0.16)">
       <defs>
        <path d="M 2528 4045 
L 762 4045 
L 762 2445 
Q 1101 2675 1517 2675 
Q 2067 2675 2384 2323 
Q 2701 1971 2701 1370 
Q 2701 954 2544 627 
Q 2387 301 2092 118 
Q 1798 -64 1408 -64 
Q 717 -64 250 422 
L 403 563 
Q 614 346 851 240 
Q 1088 134 1414 134 
Q 1901 134 2185 470 
Q 2470 806 2470 1370 
Q 2470 1914 2208 2195 
Q 1946 2477 1498 2477 
Q 1267 2477 1097 2422 
Q 928 2368 717 2240 
L 544 2240 
L 544 4237 
L 2566 4237 
L 2528 4045 
z
" id="FiraSans-UltraLight-35" transform="scale(0.015625)"/>
       </defs>
       <use xlink:href="#FiraSans-UltraLight-35"/>
      </g>
     </g>
    </g>
    <g id="xtick_2">
     <g id="line2d_3">
      <path clip-path="url(#pe02f8e61a9)" d="M 120.96 378 
L 120.96 51.84 
" style="fill:none;stroke:#555555;stroke-linecap:square;"/>
     </g>
     <g id="line2d_4">
      <g>
       <use style="stroke:#000000;stroke-width:0.8;" x="120.96" xlink:href="#m5088b28542" y="378"/>
      </g>
     </g>
     <g id="text_2">
      <!-- 10 -->
      <g transform="translate(113.42375 396.825)scale(0.16 -0.16)">
       <defs>
        <path d="M 1728 0 
L 1510 0 
L 1510 3981 
L 422 3296 
L 314 3469 
L 1549 4237 
L 1728 4237 
L 1728 0 
z
" id="FiraSans-UltraLight-31" transform="scale(0.015625)"/>
        <path d="M 1741 4314 
Q 2362 4314 2685 3760 
Q 3008 3206 3008 2112 
Q 3008 1037 2681 486 
Q 2355 -64 1741 -64 
Q 1126 -64 800 489 
Q 474 1043 474 2125 
Q 474 3206 800 3760 
Q 1126 4314 1741 4314 
z
M 1741 4115 
Q 1235 4115 966 3619 
Q 698 3123 698 2125 
Q 698 1133 966 633 
Q 1235 134 1741 134 
Q 2253 134 2518 627 
Q 2784 1120 2784 2112 
Q 2784 3117 2518 3616 
Q 2253 4115 1741 4115 
z
" id="FiraSans-UltraLight-30" transform="scale(0.015625)"/>
       </defs>
       <use xlink:href="#FiraSans-UltraLight-31"/>
       <use x="39.799988" xlink:href="#FiraSans-UltraLight-30"/>
      </g>
     </g>
    </g>
    <g id="xtick_3">
     <g id="line2d_5">
      <path clip-path="url(#pe02f8e61a9)" d="M 187.92 378 
L 187.92 51.84 
" style="fill:none;stroke:#555555;stroke-linecap:square;"/>
     </g>
     <g id="line2d_6">
      <g>
       <use style="stroke:#000000;stroke-width:0.8;" x="187.92" xlink:href="#m5088b28542" y="378"/>
      </g>
     </g>
     <g id="text_3">
      <!-- 15 -->
      <g transform="translate(180.92 396.825)scale(0.16 -0.16)">
       <use xlink:href="#FiraSans-UltraLight-31"/>
       <use x="39.799988" xlink:href="#FiraSans-UltraLight-35"/>
      </g>
     </g>
    </g>
    <g id="xtick_4">
     <g id="line2d_7">
      <path clip-path="url(#pe02f8e61a9)" d="M 254.88 378 
L 254.88 51.84 
" style="fill:none;stroke:#555555;stroke-linecap:square;"/>
     </g>
     <g id="line2d_8">
      <g>
       <use style="stroke:#000000;stroke-width:0.8;" x="254.88" xlink:href="#m5088b28542" y="378"/>
      </g>
     </g>
     <g id="text_4">
      <!-- 20 -->
      <g transform="translate(246.79125 396.825)scale(0.16 -0.16)">
       <defs>
        <path d="M 1421 4314 
Q 1926 4314 2220 4013 
Q 2515 3712 2515 3232 
Q 2515 2797 2345 2425 
Q 2176 2054 1808 1609 
Q 1440 1165 563 211 
L 2637 211 
L 2598 0 
L 294 0 
L 294 205 
Q 1190 1184 1580 1654 
Q 1971 2125 2131 2470 
Q 2291 2816 2291 3213 
Q 2291 3629 2054 3872 
Q 1818 4115 1414 4115 
Q 813 4115 416 3622 
L 250 3738 
Q 499 4032 780 4173 
Q 1062 4314 1421 4314 
z
" id="FiraSans-UltraLight-32" transform="scale(0.015625)"/>
       </defs>
       <use xlink:href="#FiraSans-UltraLight-32"/>
       <use x="46.699997" xlink:href="#FiraSans-UltraLight-30"/>
      </g>
     </g>
    </g>
    <g id="xtick_5">
     <g id="line2d_9">
      <path clip-path="url(#pe02f8e61a9)" d="M 321.84 378 
L 321.84 51.84 
" style="fill:none;stroke:#555555;stroke-linecap:square;"/>
     </g>
     <g id="line2d_10">
      <g>
       <use style="stroke:#000000;stroke-width:0.8;" x="321.84" xlink:href="#m5088b28542" y="378"/>
      </g>
     </g>
     <g id="text_5">
      <!-- 25 -->
      <g transform="translate(314.2875 396.825)scale(0.16 -0.16)">
       <use xlink:href="#FiraSans-UltraLight-32"/>
       <use x="46.699997" xlink:href="#FiraSans-UltraLight-35"/>
      </g>
     </g>
    </g>
    <g id="xtick_6">
     <g id="line2d_11">
      <path clip-path="url(#pe02f8e61a9)" d="M 388.8 378 
L 388.8 51.84 
" style="fill:none;stroke:#555555;stroke-linecap:square;"/>
     </g>
     <g id="line2d_12">
      <g>
       <use style="stroke:#000000;stroke-width:0.8;" x="388.8" xlink:href="#m5088b28542" y="378"/>
      </g>
     </g>
     <g id="text_6">
      <!-- 30 -->
      <g transform="translate(380.63125 396.825)scale(0.16 -0.16)">
       <defs>
        <path d="M 1395 4314 
Q 1901 4314 2201 4022 
Q 2502 3731 2502 3270 
Q 2502 2835 2262 2572 
Q 2022 2310 1645 2259 
Q 2061 2253 2336 1965 
Q 2611 1677 2611 1178 
Q 2611 621 2262 278 
Q 1914 -64 1331 -64 
Q 960 -64 675 67 
Q 390 198 154 467 
L 307 595 
Q 531 346 771 240 
Q 1011 134 1318 134 
Q 1824 134 2105 419 
Q 2387 704 2387 1171 
Q 2387 1664 2112 1907 
Q 1837 2150 1357 2150 
L 1101 2150 
L 1133 2342 
L 1338 2342 
Q 1722 2342 2000 2576 
Q 2278 2810 2278 3264 
Q 2278 3654 2035 3884 
Q 1792 4115 1382 4115 
Q 1101 4115 867 4019 
Q 634 3923 397 3706 
L 269 3846 
Q 512 4083 781 4198 
Q 1050 4314 1395 4314 
z
" id="FiraSans-UltraLight-33" transform="scale(0.015625)"/>
       </defs>
       <use xlink:href="#FiraSans-UltraLight-33"/>
       <use x="47.699997" xlink:href="#FiraSans-UltraLight-30"/>
      </g>
     </g>
    </g>
    <g id="xtick_7">
     <g id="line2d_13">
      <path clip-path="url(#pe02f8e61a9)" d="M 67.392 378 
L 67.392 51.84 
" style="fill:none;stroke:#555555;stroke-dasharray:0.8,1.32;stroke-dashoffset:0;stroke-width:0.8;"/>
     </g>
     <g id="line2d_14">
      <defs>
       <path d="M 0 0 
L 0 2 
" id="mad5d904c11" style="stroke:#000000;stroke-width:0.6;"/>
      </defs>
      <g>
       <use style="stroke:#000000;stroke-width:0.6;" x="67.392" xlink:href="#mad5d904c11" y="378"/>
      </g>
     </g>
    </g>
    <g id="xtick_8">
     <g id="line2d_15">
      <path clip-path="url(#pe02f8e61a9)" d="M 80.784 378 
L 80.784 51.84 
" style="fill:none;stroke:#555555;stroke-dasharray:0.8,1.32;stroke-dashoffset:0;stroke-width:0.8;"/>
     </g>
     <g id="line2d_16">
      <g>
       <use style="stroke:#000000;stroke-width:0.6;" x="80.784" xlink:href="#mad5d904c11" y="378"/>
      </g>
     </g>
    </g>
    <g id="xtick_9">
     <g id="line2d_17">
      <path clip-path="url(#pe02f8e61a9)" d="M 94.176 378 
L 94.176 51.84 
" style="fill:none;stroke:#555555;stroke-dasharray:0.8,1.32;stroke-dashoffset:0;stroke-width:0.8;"/>
     </g>
     <g id="line2d_18">
      <g>
       <use style="stroke:#000000;stroke-width:0.6;" x="94.176" xlink:href="#mad5d904c11" y="378"/>
      </g>
     </g>
    </g>
    <g id="xtick_10">
     <g id="line2d_19">
      <path clip-path="url(#pe02f8e61a9)" d="M 107.568 378 
L 107.568 51.84 
" style="fill:none;stroke:#555555;stroke-dasharray:0.8,1.32;stroke-dashoffset:0;stroke-width:0.8;"/>
     </g>
     <g id="line2d_20">
      <g>
       <use style="stroke:#000000;stroke-width:0.6;" x="107.568" xlink:href="#mad5d904c11" y="378"/>
      </g>
     </g>
    </g>
    <g id="xtick_11">
     <g id="line2d_21">
      <path clip-path="url(#pe02f8e61a9)" d="M 134.352 378 
L 134.352 51.84 
" style="fill:none;stroke:#555555;stroke-dasharray:0.8,1.32;stroke-dashoffset:0;stroke-width:0.8;"/>
     </g>
     <g id="line2d_22">
      <g>
       <use style="stroke:#000000;stroke-width:0.6;" x="134.352" xlink:href="#mad5d904c11" y="378"/>
      </g>
     </g>
    </g>
    <g id="xtick_12">
     <g id="line2d_23">
      <path clip-path="url(#pe02f8e61a9)" d="M 147.744 378 
L 147.744 51.84 
" style="fill:none;stroke:#555555;stroke-dasharray:0.8,1.32;stroke-dashoffset:0;stroke-width:0.8;"/>
     </g>
     <g id="line2d_24">
      <g>
       <use style="stroke:#000000;stroke-width:0.6;" x="147.744" xlink:href="#mad5d904c11" y="378"/>
      </g>
     </g>
    </g>
    <g id="xtick_13">
     <g id="line2d_25">
      <path clip-path="url(#pe02f8e61a9)" d="M 161.136 378 
L 161.136 51.84 
" style="fill:none;stroke:#555555;stroke-dasharray:0.8,1.32;stroke-dashoffset:0;stroke-width:0.8;"/>
     </g>
     <g id="line2d_26">
      <g>
       <use style="stroke:#000000;stroke-width:0.6;" x="161.136" xlink:href="#mad5d904c11" y="378"/>
      </g>
     </g>
    </g>
    <g id="xtick_14">
     <g id="line2d_27">
      <path clip-path="url(#pe02f8e61a9)" d="M 174.528 378 
L 174.528 51.84 
" style="fill:none;stroke:#555555;stroke-dasharray:0.8,1.32;stroke-dashoffset:0;stroke-width:0.8;"/>
     </g>
     <g id="line2d_28">
      <g>
       <use style="stroke:#000000;stroke-width:0.6;" x="174.528" xlink:href="#mad5d904c11" y="378"/>
      </g>
     </g>
    </g>
    <g id="xtick_15">
     <g id="line2d_29">
      <path clip-path="url(#pe02f8e61a9)" d="M 201.312 378 
L 201.312 51.84 
" style="fill:none;stroke:#555555;stroke-dasharray:0.8,1.32;stroke-dashoffset:0;stroke-width:0.8;"/>
     </g>
     <g id="line2d_30">
      <g>
       <use style="stroke:#000000;stroke-width:0.6;" x="201.312" xlink:href="#mad5d904c11" y="378"/>
      </g>
     </g>
    </g>
    <g id="xtick_16">
     <g id="line2d_31">
      <path clip-path="url(#pe02f8e61a9)" d="M 214.704 378 
L 214.704 51.84 
" style="fill:none;stroke:#555555;stroke-dasharray:0.8,1.32;stroke-dashoffset:0;stroke-width:0.8;"/>
     </g>
     <g id="line2d_32">
      <g>
       <use style="stroke:#000000;stroke-width:0.6;" x="214.704" xlink:href="#mad5d904c11" y="378"/>
      </g>
     </g>
    </g>
    <g id="xtick_17">
     <g id="line2d_33">
      <path clip-path="url(#pe02f8e61a9)" d="M 228.096 378 
L 228.096 51.84 
" style="fill:none;stroke:#555555;stroke-dasharray:0.8,1.32;stroke-dashoffset:0;stroke-width:0.8;"/>
     </g>
     <g id="line2d_34">
      <g>
       <use style="stroke:#000000;stroke-width:0.6;" x="228.096" xlink:href="#mad5d904c11" y="378"/>
      </g>
     </g>
    </g>
    <g id="xtick_18">
     <g id="line2d_35">
      <path clip-path="url(#pe02f8e61a9)" d="M 241.488 378 
L 241.488 51.84 
" style="fill:none;stroke:#555555;stroke-dasharray:0.8,1.32;stroke-dashoffset:0;stroke-width:0.8;"/>
     </g>
     <g id="line2d_36">
      <g>
       <use style="stroke:#000000;stroke-width:0.6;" x="241.488" xlink:href="#mad5d904c11" y="378"/>
      </g>
     </g>
    </g>
    <g id="xtick_19">
     <g id="line2d_37">
      <path clip-path="url(#pe02f8e61a9)" d="M 268.272 378 
L 268.272 51.84 
" style="fill:none;stroke:#555555;stroke-dasharray:0.8,1.32;stroke-dashoffset:0;stroke-width:0.8;"/>
     </g>
     <g id="line2d_38">
      <g>
       <use style="stroke:#000000;stroke-width:0.6;" x="268.272" xlink:href="#mad5d904c11" y="378"/>
      </g>
     </g>
    </g>
    <g id="xtick_20">
     <g id="line2d_39">
      <path clip-path="url(#pe02f8e61a9)" d="M 281.664 378 
L 281.664 51.84 
" style="fill:none;stroke:#555555;stroke-dasharray:0.8,1.32;stroke-dashoffset:0;stroke-width:0.8;"/>
     </g>
     <g id="line2d_40">
      <g>
       <use style="stroke:#000000;stroke-width:0.6;" x="281.664" xlink:href="#mad5d904c11" y="378"/>
      </g>
     </g>
    </g>
    <g id="xtick_21">
     <g id="line2d_41">
      <path clip-path="url(#pe02f8e61a9)" d="M 295.056 378 
L 295.056 51.84 
" style="fill:none;stroke:#555555;stroke-dasharray:0.8,1.32;stroke-dashoffset:0;stroke-width:0.8;"/>
     </g>
     <g id="line2d_42">
      <g>
       <use style="stroke:#000000;stroke-width:0.6;" x="295.056" xlink:href="#mad5d904c11" y="378"/>
      </g>
     </g>
    </g>
    <g id="xtick_22">
     <g id="line2d_43">
      <path clip-path="url(#pe02f8e61a9)" d="M 308.448 378 
L 308.448 51.84 
" style="fill:none;stroke:#555555;stroke-dasharray:0.8,1.32;stroke-dashoffset:0;stroke-width:0.8;"/>
     </g>
     <g id="line2d_44">
      <g>
       <use style="stroke:#000000;stroke-width:0.6;" x="308.448" xlink:href="#mad5d904c11" y="378"/>
      </g>
     </g>
    </g>
    <g id="xtick_23">
     <g id="line2d_45">
      <path clip-path="url(#pe02f8e61a9)" d="M 335.232 378 
L 335.232 51.84 
" style="fill:none;stroke:#555555;stroke-dasharray:0.8,1.32;stroke-dashoffset:0;stroke-width:0.8;"/>
     </g>
     <g id="line2d_46">
      <g>
       <use style="stroke:#000000;stroke-width:0.6;" x="335.232" xlink:href="#mad5d904c11" y="378"/>
      </g>
     </g>
    </g>
    <g id="xtick_24">
     <g id="line2d_47">
      <path clip-path="url(#pe02f8e61a9)" d="M 348.624 378 
L 348.624 51.84 
" style="fill:none;stroke:#555555;stroke-dasharray:0.8,1.32;stroke-dashoffset:0;stroke-width:0.8;"/>
     </g>
     <g id="line2d_48">
      <g>
       <use style="stroke:#000000;stroke-width:0.6;" x="348.624" xlink:href="#mad5d904c11" y="378"/>
      </g>
     </g>
    </g>
    <g id="xtick_25">
     <g id="line2d_49">
      <path clip-path="url(#pe02f8e61a9)" d="M 362.016 378 
L 362.016 51.84 
" style="fill:none;stroke:#555555;stroke-dasharray:0.8,1.32;stroke-dashoffset:0;stroke-width:0.8;"/>
     </g>
     <g id="line2d_50">
      <g>
       <use style="stroke:#000000;stroke-width:0.6;" x="362.016" xlink:href="#mad5d904c11" y="378"/>
      </g>
     </g>
    </g>
    <g id="xtick_26">
     <g id="line2d_51">
      <path clip-path="url(#pe02f8e61a9)" d="M 375.408 378 
L 375.408 51.84 
" style="fill:none;stroke:#555555;stroke-dasharray:0.8,1.32;stroke-dashoffset:0;stroke-width:0.8;"/>
     </g>
     <g id="line2d_52">
      <g>
       <use style="stroke:#000000;stroke-width:0.6;" x="375.408" xlink:href="#mad5d904c11" y="378"/>
      </g>
     </g>
    </g>
    <g id="text_7">
     <!-- Harmonic order $n =\frac{\omega}{\omega_0}$ -->
     <g transform="translate(118.1 420.825)scale(0.2 -0.2)">
      <defs>
       <path d="M 3104 0 
L 3104 2067 
L 1248 2067 
L 1248 0 
L 640 0 
L 640 4410 
L 1248 4410 
L 1248 2566 
L 3104 2566 
L 3104 4410 
L 3712 4410 
L 3712 0 
L 3104 0 
z
" id="FiraSans-Regular-48" transform="scale(0.015625)"/>
       <path d="M 2880 787 
Q 2880 582 2950 483 
Q 3021 384 3162 333 
L 3027 -77 
Q 2765 -45 2605 70 
Q 2445 186 2368 429 
Q 2029 -77 1363 -77 
Q 864 -77 576 204 
Q 288 486 288 941 
Q 288 1478 675 1766 
Q 1062 2054 1773 2054 
L 2291 2054 
L 2291 2304 
Q 2291 2662 2118 2816 
Q 1946 2970 1587 2970 
Q 1216 2970 678 2790 
L 531 3219 
Q 1158 3450 1696 3450 
Q 2291 3450 2585 3158 
Q 2880 2867 2880 2330 
L 2880 787 
z
M 1498 365 
Q 2003 365 2291 890 
L 2291 1664 
L 1850 1664 
Q 915 1664 915 973 
Q 915 672 1062 518 
Q 1210 365 1498 365 
z
" id="FiraSans-Regular-61" transform="scale(0.015625)"/>
       <path d="M 2074 3450 
Q 2253 3450 2406 3411 
L 2298 2835 
Q 2144 2874 2003 2874 
Q 1690 2874 1498 2643 
Q 1306 2413 1197 1926 
L 1197 0 
L 608 0 
L 608 3373 
L 1114 3373 
L 1171 2688 
Q 1306 3066 1536 3258 
Q 1766 3450 2074 3450 
z
" id="FiraSans-Regular-72" transform="scale(0.015625)"/>
       <path d="M 3994 3450 
Q 4410 3450 4659 3171 
Q 4909 2893 4909 2419 
L 4909 0 
L 4320 0 
L 4320 2336 
Q 4320 2989 3846 2989 
Q 3597 2989 3424 2845 
Q 3251 2701 3053 2394 
L 3053 0 
L 2464 0 
L 2464 2336 
Q 2464 2989 1990 2989 
Q 1734 2989 1561 2841 
Q 1389 2694 1197 2394 
L 1197 0 
L 608 0 
L 608 3373 
L 1114 3373 
L 1165 2880 
Q 1542 3450 2138 3450 
Q 2451 3450 2672 3290 
Q 2893 3130 2989 2842 
Q 3187 3136 3427 3293 
Q 3667 3450 3994 3450 
z
" id="FiraSans-Regular-6d" transform="scale(0.015625)"/>
       <path d="M 1875 3450 
Q 2586 3450 2979 2976 
Q 3373 2502 3373 1690 
Q 3373 1165 3193 765 
Q 3014 365 2675 144 
Q 2336 -77 1869 -77 
Q 1158 -77 761 396 
Q 365 870 365 1683 
Q 365 2208 544 2608 
Q 723 3008 1062 3229 
Q 1402 3450 1875 3450 
z
M 1875 2976 
Q 998 2976 998 1683 
Q 998 397 1869 397 
Q 2739 397 2739 1690 
Q 2739 2976 1875 2976 
z
" id="FiraSans-Regular-6f" transform="scale(0.015625)"/>
       <path d="M 2195 3450 
Q 2656 3450 2915 3174 
Q 3174 2899 3174 2419 
L 3174 0 
L 2586 0 
L 2586 2336 
Q 2586 2694 2451 2841 
Q 2317 2989 2054 2989 
Q 1786 2989 1581 2835 
Q 1376 2682 1197 2394 
L 1197 0 
L 608 0 
L 608 3373 
L 1114 3373 
L 1165 2874 
Q 1344 3142 1609 3296 
Q 1875 3450 2195 3450 
z
" id="FiraSans-Regular-6e" transform="scale(0.015625)"/>
       <path d="M 1197 3373 
L 1197 0 
L 608 0 
L 608 3373 
L 1197 3373 
z
M 896 4992 
Q 1082 4992 1197 4877 
Q 1312 4762 1312 4589 
Q 1312 4416 1197 4304 
Q 1082 4192 896 4192 
Q 717 4192 601 4304 
Q 486 4416 486 4589 
Q 486 4762 601 4877 
Q 717 4992 896 4992 
z
" id="FiraSans-Regular-69" transform="scale(0.015625)"/>
       <path d="M 1837 3450 
Q 2138 3450 2387 3363 
Q 2637 3277 2867 3085 
L 2586 2714 
Q 2406 2842 2236 2902 
Q 2067 2963 1862 2963 
Q 1453 2963 1225 2636 
Q 998 2310 998 1670 
Q 998 1030 1222 726 
Q 1446 422 1862 422 
Q 2061 422 2227 483 
Q 2394 544 2598 678 
L 2867 294 
Q 2406 -77 1837 -77 
Q 1152 -77 758 384 
Q 365 845 365 1658 
Q 365 2195 544 2598 
Q 723 3002 1052 3226 
Q 1382 3450 1837 3450 
z
" id="FiraSans-Regular-63" transform="scale(0.015625)"/>
       <path id="FiraSans-Regular-20" transform="scale(0.015625)"/>
       <path d="M 3219 4730 
L 3219 0 
L 2701 0 
L 2643 467 
Q 2477 211 2227 67 
Q 1978 -77 1670 -77 
Q 1069 -77 733 396 
Q 397 870 397 1670 
Q 397 2189 557 2592 
Q 717 2995 1017 3222 
Q 1318 3450 1722 3450 
Q 2240 3450 2630 3034 
L 2630 4800 
L 3219 4730 
z
M 1798 390 
Q 2067 390 2259 515 
Q 2451 640 2630 890 
L 2630 2541 
Q 2464 2758 2275 2870 
Q 2086 2982 1850 2982 
Q 1459 2982 1244 2656 
Q 1030 2330 1030 1683 
Q 1030 1030 1228 710 
Q 1427 390 1798 390 
z
" id="FiraSans-Regular-64" transform="scale(0.015625)"/>
       <path d="M 3155 1786 
Q 3155 1638 3142 1485 
L 992 1485 
Q 1030 928 1273 665 
Q 1517 403 1901 403 
Q 2144 403 2349 473 
Q 2554 544 2778 698 
L 3034 346 
Q 2496 -77 1856 -77 
Q 1152 -77 758 384 
Q 365 845 365 1651 
Q 365 2176 534 2582 
Q 704 2989 1021 3219 
Q 1338 3450 1766 3450 
Q 2438 3450 2796 3008 
Q 3155 2566 3155 1786 
z
M 2573 1958 
Q 2573 2458 2374 2720 
Q 2176 2982 1779 2982 
Q 1056 2982 992 1920 
L 2573 1920 
L 2573 1958 
z
" id="FiraSans-Regular-65" transform="scale(0.015625)"/>
       <path d="M 3566 2113 
L 3156 0 
L 2578 0 
L 2988 2091 
Q 3016 2238 3031 2350 
Q 3047 2463 3047 2528 
Q 3047 2791 2881 2937 
Q 2716 3084 2419 3084 
Q 1956 3084 1622 2776 
Q 1288 2469 1184 1941 
L 800 0 
L 225 0 
L 903 3500 
L 1478 3500 
L 1363 2950 
Q 1603 3253 1940 3418 
Q 2278 3584 2650 3584 
Q 3113 3584 3367 3334 
Q 3622 3084 3622 2631 
Q 3622 2519 3608 2391 
Q 3594 2263 3566 2113 
z
" id="DejaVuSans-Oblique-6e" transform="scale(0.015625)"/>
       <path d="M 678 2638 
L 4684 2638 
L 4684 2381 
L 678 2381 
L 678 2638 
z
M 678 1631 
L 4684 1631 
L 4684 1375 
L 678 1375 
L 678 1631 
z
" id="DejaVuSans-ExtraLight-3d" transform="scale(0.015625)"/>
       <path d="M 1369 -91 
Q 72 -91 434 1766 
Q 575 2500 1256 3500 
L 1875 3500 
Q 1231 2500 1088 1750 
Q 819 397 1519 397 
Q 2166 397 2478 2078 
L 3009 2078 
Q 2669 388 3316 397 
Q 4013 403 4275 1750 
Q 4419 2500 4169 3500 
L 4788 3500 
Q 5075 2500 4934 1766 
Q 4578 -94 3278 -91 
Q 2428 -88 2503 844 
Q 2194 -91 1369 -91 
z
" id="DejaVuSans-Oblique-3c9" transform="scale(0.015625)"/>
       <path d="M 2016 4494 
Q 1444 4494 1166 3938 
Q 888 3378 888 2328 
Q 888 1278 1166 719 
Q 1444 163 2016 163 
Q 2606 163 2884 719 
Q 3163 1278 3163 2328 
Q 3163 3378 2884 3938 
Q 2606 4494 2016 4494 
z
M 2016 4750 
Q 2691 4750 3084 4200 
Q 3478 3647 3478 2328 
Q 3478 1009 3084 456 
Q 2691 -94 2016 -94 
Q 1359 -94 966 456 
Q 572 1009 572 2328 
Q 572 3647 966 4200 
Q 1359 4750 2016 4750 
z
" id="DejaVuSans-ExtraLight-30" transform="scale(0.015625)"/>
      </defs>
      <use transform="translate(0 0.839062)" xlink:href="#FiraSans-Regular-48"/>
      <use transform="translate(67.999985 0.839062)" xlink:href="#FiraSans-Regular-61"/>
      <use transform="translate(122.399979 0.839062)" xlink:href="#FiraSans-Regular-72"/>
      <use transform="translate(160.999969 0.839062)" xlink:href="#FiraSans-Regular-6d"/>
      <use transform="translate(246.699951 0.839062)" xlink:href="#FiraSans-Regular-6f"/>
      <use transform="translate(305.099945 0.839062)" xlink:href="#FiraSans-Regular-6e"/>
      <use transform="translate(363.699936 0.839062)" xlink:href="#FiraSans-Regular-69"/>
      <use transform="translate(391.899933 0.839062)" xlink:href="#FiraSans-Regular-63"/>
      <use transform="translate(439.699921 0.839062)" xlink:href="#FiraSans-Regular-20"/>
      <use transform="translate(466.199905 0.839062)" xlink:href="#FiraSans-Regular-6f"/>
      <use transform="translate(524.599899 0.839062)" xlink:href="#FiraSans-Regular-72"/>
      <use transform="translate(563.19989 0.839062)" xlink:href="#FiraSans-Regular-64"/>
      <use transform="translate(622.999878 0.839062)" xlink:href="#FiraSans-Regular-65"/>
      <use transform="translate(677.499863 0.839062)" xlink:href="#FiraSans-Regular-72"/>
      <use transform="translate(716.099854 0.839062)" xlink:href="#FiraSans-Regular-20"/>
      <use transform="translate(742.599838 0.839062)" xlink:href="#DejaVuSans-Oblique-6e"/>
      <use transform="translate(825.461166 0.839062)" xlink:href="#DejaVuSans-ExtraLight-3d"/>
      <use transform="translate(945.732651 45.71875)scale(0.7)" xlink:href="#DejaVuSans-Oblique-3c9"/>
      <use transform="translate(928.732651 -24.840625)scale(0.7)" xlink:href="#DejaVuSans-Oblique-3c9"/>
      <use transform="translate(987.350815 -36.325)scale(0.49)" xlink:href="#DejaVuSans-ExtraLight-30"/>
      <path d="M 928.732651 19.690625 
L 928.732651 25.940625 
L 1020.44017 25.940625 
L 1020.44017 19.690625 
L 928.732651 19.690625 
z
"/>
     </g>
    </g>
   </g>
   <g id="matplotlib.axis_2">
    <g id="ytick_1">
     <g id="line2d_53">
      <path clip-path="url(#pe02f8e61a9)" d="M 54 378 
L 388.8 378 
" style="fill:none;stroke:#555555;stroke-linecap:square;"/>
     </g>
     <g id="line2d_54">
      <defs>
       <path d="M 0 0 
L -3.5 0 
" id="mf29df252da" style="stroke:#000000;stroke-width:0.8;"/>
      </defs>
      <g>
       <use style="stroke:#000000;stroke-width:0.8;" x="54" xlink:href="#mf29df252da" y="378"/>
      </g>
     </g>
     <g id="text_8">
      <!-- $\mathdefault{10^{-10}}$ -->
      <g transform="translate(15.32 383.9125)scale(0.16 -0.16)">
       <defs>
        <path d="M 474 2221 
L 2656 2221 
L 2656 2016 
L 474 2016 
L 474 2221 
z
" id="FiraSans-UltraLight-2212" transform="scale(0.015625)"/>
       </defs>
       <use transform="translate(0 0.415625)" xlink:href="#FiraSans-UltraLight-31"/>
       <use transform="translate(39.799988 0.415625)" xlink:href="#FiraSans-UltraLight-30"/>
       <use transform="translate(95.109982 36.815625)scale(0.7)" xlink:href="#FiraSans-UltraLight-2212"/>
       <use transform="translate(129.339977 36.815625)scale(0.7)" xlink:href="#FiraSans-UltraLight-31"/>
       <use transform="translate(157.199969 36.815625)scale(0.7)" xlink:href="#FiraSans-UltraLight-30"/>
      </g>
     </g>
    </g>
    <g id="ytick_2">
     <g id="line2d_55">
      <path clip-path="url(#pe02f8e61a9)" d="M 54 314.674294 
L 388.8 314.674294 
" style="fill:none;stroke:#555555;stroke-linecap:square;"/>
     </g>
     <g id="line2d_56">
      <g>
       <use style="stroke:#000000;stroke-width:0.8;" x="54" xlink:href="#mf29df252da" y="314.674294"/>
      </g>
     </g>
     <g id="text_9">
      <!-- $\mathdefault{10^{-8}}$ -->
      <g transform="translate(19.96 320.586794)scale(0.16 -0.16)">
       <defs>
        <path d="M 2022 2227 
Q 2554 2010 2781 1760 
Q 3008 1510 3008 1082 
Q 3008 557 2640 246 
Q 2272 -64 1683 -64 
Q 1088 -64 733 249 
Q 378 563 378 1075 
Q 378 1510 627 1824 
Q 877 2138 1350 2304 
Q 934 2477 752 2694 
Q 570 2912 570 3277 
Q 570 3590 723 3827 
Q 877 4064 1136 4189 
Q 1395 4314 1696 4314 
Q 1990 4314 2249 4195 
Q 2509 4077 2665 3840 
Q 2822 3603 2822 3270 
Q 2822 2931 2630 2684 
Q 2438 2438 2022 2227 
z
M 794 3270 
Q 794 2957 957 2771 
Q 1120 2586 1574 2406 
L 1837 2304 
Q 2240 2509 2419 2729 
Q 2598 2950 2598 3264 
Q 2598 3674 2345 3898 
Q 2093 4122 1696 4122 
Q 1306 4122 1050 3894 
Q 794 3667 794 3270 
z
M 1690 141 
Q 2176 141 2477 384 
Q 2778 627 2778 1082 
Q 2778 1357 2678 1539 
Q 2579 1722 2380 1850 
Q 2182 1978 1824 2118 
L 1568 2221 
Q 1056 2042 829 1770 
Q 602 1498 602 1075 
Q 602 627 899 384 
Q 1197 141 1690 141 
z
" id="FiraSans-UltraLight-38" transform="scale(0.015625)"/>
       </defs>
       <use transform="translate(0 0.415625)" xlink:href="#FiraSans-UltraLight-31"/>
       <use transform="translate(39.799988 0.415625)" xlink:href="#FiraSans-UltraLight-30"/>
       <use transform="translate(95.109982 36.815625)scale(0.7)" xlink:href="#FiraSans-UltraLight-2212"/>
       <use transform="translate(129.339977 36.815625)scale(0.7)" xlink:href="#FiraSans-UltraLight-38"/>
      </g>
     </g>
    </g>
    <g id="ytick_3">
     <g id="line2d_57">
      <path clip-path="url(#pe02f8e61a9)" d="M 54 251.348587 
L 388.8 251.348587 
" style="fill:none;stroke:#555555;stroke-linecap:square;"/>
     </g>
     <g id="line2d_58">
      <g>
       <use style="stroke:#000000;stroke-width:0.8;" x="54" xlink:href="#mf29df252da" y="251.348587"/>
      </g>
     </g>
     <g id="text_10">
      <!-- $\mathdefault{10^{-6}}$ -->
      <g transform="translate(19.96 257.261087)scale(0.16 -0.16)">
       <defs>
        <path d="M 1837 2746 
Q 2317 2746 2624 2406 
Q 2931 2067 2931 1421 
Q 2931 960 2784 624 
Q 2637 288 2371 112 
Q 2106 -64 1760 -64 
Q 1088 -64 781 467 
Q 474 998 474 1862 
Q 474 2624 653 3174 
Q 832 3725 1161 4019 
Q 1491 4314 1946 4314 
Q 2170 4314 2339 4253 
Q 2509 4192 2682 4070 
L 2566 3910 
Q 2419 4013 2268 4064 
Q 2118 4115 1939 4115 
Q 1562 4115 1283 3849 
Q 1005 3584 857 3117 
Q 710 2650 698 2054 
Q 1146 2746 1837 2746 
z
M 1760 134 
Q 2214 134 2460 486 
Q 2707 838 2707 1414 
Q 2707 1978 2464 2262 
Q 2221 2547 1824 2547 
Q 1472 2547 1184 2339 
Q 896 2131 698 1766 
Q 710 998 966 566 
Q 1222 134 1760 134 
z
" id="FiraSans-UltraLight-36" transform="scale(0.015625)"/>
       </defs>
       <use transform="translate(0 0.415625)" xlink:href="#FiraSans-UltraLight-31"/>
       <use transform="translate(39.799988 0.415625)" xlink:href="#FiraSans-UltraLight-30"/>
       <use transform="translate(95.109982 36.815625)scale(0.7)" xlink:href="#FiraSans-UltraLight-2212"/>
       <use transform="translate(129.339977 36.815625)scale(0.7)" xlink:href="#FiraSans-UltraLight-36"/>
      </g>
     </g>
    </g>
    <g id="ytick_4">
     <g id="line2d_59">
      <path clip-path="url(#pe02f8e61a9)" d="M 54 188.022881 
L 388.8 188.022881 
" style="fill:none;stroke:#555555;stroke-linecap:square;"/>
     </g>
     <g id="line2d_60">
      <g>
       <use style="stroke:#000000;stroke-width:0.8;" x="54" xlink:href="#mf29df252da" y="188.022881"/>
      </g>
     </g>
     <g id="text_11">
      <!-- $\mathdefault{10^{-4}}$ -->
      <g transform="translate(20.12 193.935381)scale(0.16 -0.16)">
       <defs>
        <path d="M 3002 1165 
L 2419 1165 
L 2419 0 
L 2202 0 
L 2202 1165 
L 314 1165 
L 314 1338 
L 1619 4314 
L 1805 4237 
L 550 1363 
L 2202 1363 
L 2227 2675 
L 2419 2675 
L 2419 1363 
L 3002 1363 
L 3002 1165 
z
" id="FiraSans-UltraLight-34" transform="scale(0.015625)"/>
       </defs>
       <use transform="translate(0 0.415625)" xlink:href="#FiraSans-UltraLight-31"/>
       <use transform="translate(39.799988 0.415625)" xlink:href="#FiraSans-UltraLight-30"/>
       <use transform="translate(95.109982 36.815625)scale(0.7)" xlink:href="#FiraSans-UltraLight-2212"/>
       <use transform="translate(129.339977 36.815625)scale(0.7)" xlink:href="#FiraSans-UltraLight-34"/>
      </g>
     </g>
    </g>
    <g id="ytick_5">
     <g id="line2d_61">
      <path clip-path="url(#pe02f8e61a9)" d="M 54 124.697175 
L 388.8 124.697175 
" style="fill:none;stroke:#555555;stroke-linecap:square;"/>
     </g>
     <g id="line2d_62">
      <g>
       <use style="stroke:#000000;stroke-width:0.8;" x="54" xlink:href="#mf29df252da" y="124.697175"/>
      </g>
     </g>
     <g id="text_12">
      <!-- $\mathdefault{10^{-2}}$ -->
      <g transform="translate(20.6 130.609675)scale(0.16 -0.16)">
       <use transform="translate(0 0.415625)" xlink:href="#FiraSans-UltraLight-31"/>
       <use transform="translate(39.799988 0.415625)" xlink:href="#FiraSans-UltraLight-30"/>
       <use transform="translate(95.109982 36.815625)scale(0.7)" xlink:href="#FiraSans-UltraLight-2212"/>
       <use transform="translate(129.339977 36.815625)scale(0.7)" xlink:href="#FiraSans-UltraLight-32"/>
      </g>
     </g>
    </g>
    <g id="ytick_6">
     <g id="line2d_63">
      <path clip-path="url(#pe02f8e61a9)" d="M 54 61.371469 
L 388.8 61.371469 
" style="fill:none;stroke:#555555;stroke-linecap:square;"/>
     </g>
     <g id="line2d_64">
      <g>
       <use style="stroke:#000000;stroke-width:0.8;" x="54" xlink:href="#mf29df252da" y="61.371469"/>
      </g>
     </g>
     <g id="text_13">
      <!-- $\mathdefault{10^{0}}$ -->
      <g transform="translate(25.24 67.283969)scale(0.16 -0.16)">
       <use transform="translate(0 0.415625)" xlink:href="#FiraSans-UltraLight-31"/>
       <use transform="translate(39.799988 0.415625)" xlink:href="#FiraSans-UltraLight-30"/>
       <use transform="translate(95.109982 36.815625)scale(0.7)" xlink:href="#FiraSans-UltraLight-30"/>
      </g>
     </g>
    </g>
    <g id="text_14">
     <!-- Intesity -->
     <g transform="translate(7.060625 248.809062)rotate(-90)scale(0.2 -0.2)">
      <defs>
       <path d="M 1248 4410 
L 1248 0 
L 640 0 
L 640 4410 
L 1248 4410 
z
" id="FiraSans-Regular-49" transform="scale(0.015625)"/>
       <path d="M 2310 154 
Q 1978 -77 1555 -77 
Q 1126 -77 886 169 
Q 646 416 646 883 
L 646 2918 
L 58 2918 
L 58 3373 
L 646 3373 
L 646 4134 
L 1235 4205 
L 1235 3373 
L 2035 3373 
L 1971 2918 
L 1235 2918 
L 1235 909 
Q 1235 646 1328 528 
Q 1421 410 1638 410 
Q 1837 410 2086 544 
L 2310 154 
z
" id="FiraSans-Regular-74" transform="scale(0.015625)"/>
       <path d="M 1523 3450 
Q 1869 3450 2144 3354 
Q 2419 3258 2669 3066 
L 2419 2694 
Q 2189 2842 1981 2912 
Q 1773 2982 1542 2982 
Q 1254 2982 1088 2864 
Q 922 2746 922 2541 
Q 922 2336 1078 2221 
Q 1235 2106 1645 1997 
Q 2208 1856 2486 1613 
Q 2765 1370 2765 947 
Q 2765 448 2377 185 
Q 1990 -77 1434 -77 
Q 666 -77 160 365 
L 474 723 
Q 902 397 1421 397 
Q 1754 397 1949 534 
Q 2144 672 2144 909 
Q 2144 1082 2073 1187 
Q 2003 1293 1830 1373 
Q 1658 1453 1325 1542 
Q 787 1683 547 1920 
Q 307 2157 307 2522 
Q 307 2784 464 2998 
Q 621 3213 899 3331 
Q 1178 3450 1523 3450 
z
" id="FiraSans-Regular-73" transform="scale(0.015625)"/>
       <path d="M 1958 -19 
Q 1760 -608 1405 -950 
Q 1050 -1293 390 -1363 
L 326 -902 
Q 659 -845 857 -736 
Q 1056 -627 1174 -457 
Q 1293 -288 1395 0 
L 1197 0 
L 64 3373 
L 691 3373 
L 1594 429 
L 2477 3373 
L 3085 3373 
L 1958 -19 
z
" id="FiraSans-Regular-79" transform="scale(0.015625)"/>
      </defs>
      <use xlink:href="#FiraSans-Regular-49"/>
      <use x="29.499985" xlink:href="#FiraSans-Regular-6e"/>
      <use x="88.099976" xlink:href="#FiraSans-Regular-74"/>
      <use x="124.199966" xlink:href="#FiraSans-Regular-65"/>
      <use x="178.699951" xlink:href="#FiraSans-Regular-73"/>
      <use x="225.399948" xlink:href="#FiraSans-Regular-69"/>
      <use x="253.599945" xlink:href="#FiraSans-Regular-74"/>
      <use x="289.699936" xlink:href="#FiraSans-Regular-79"/>
     </g>
    </g>
   </g>
   <g id="line2d_65">
    <path clip-path="url(#pe02f8e61a9)" d="M 52.6608 151.127791 
L 54 148.518613 
L 55.3392 147.538183 
L 56.6784 148.057993 
L 58.0176 149.924915 
L 59.3568 152.837078 
L 60.696 156.163713 
L 62.0352 158.998328 
L 63.3744 160.999571 
L 64.7136 162.772767 
L 66.0528 165.013709 
L 67.392 168.021258 
L 68.7312 171.856476 
L 70.0704 176.519863 
L 71.4096 182.139988 
L 72.7488 188.912088 
L 74.088 194.699774 
L 75.4272 192.593284 
L 76.7664 187.858764 
L 78.1056 184.577086 
L 79.4448 182.727503 
L 80.784 182.009114 
L 82.1232 182.234595 
L 83.4624 183.26681 
L 84.8016 185.011587 
L 86.1408 187.353285 
L 87.48 190.189288 
L 88.8192 193.391157 
L 91.4976 200.666335 
L 92.8368 204.795355 
L 94.176 209.374491 
L 95.5152 214.616202 
L 96.8544 220.694652 
L 99.5328 234.776589 
L 100.872 235.397906 
L 102.2112 231.834984 
L 103.5504 228.876671 
L 104.8896 227.156607 
L 106.2288 226.404943 
L 107.568 226.457795 
L 108.9072 227.222808 
L 110.2464 228.582239 
L 111.5856 230.549559 
L 112.9248 232.992924 
L 114.264 235.999891 
L 115.6032 239.390085 
L 118.2816 247.646148 
L 120.96 257.985745 
L 123.6384 271.358653 
L 124.9776 279.450793 
L 126.3168 284.421025 
L 127.656 282.047114 
L 128.9952 280.477465 
L 130.3344 278.172467 
L 133.0128 277.637168 
L 134.352 278.453407 
L 135.6912 279.583813 
L 137.0304 281.216759 
L 139.7088 285.925978 
L 141.048 289.735933 
L 142.3872 292.418184 
L 143.7264 298.057558 
L 145.0656 300.583917 
L 146.4048 309.423304 
L 147.744 310.344894 
L 149.0832 327.200169 
L 150.4224 321.855671 
L 151.7616 333.446044 
L 153.1008 337.081155 
L 154.44 326.230333 
L 155.7792 372.851142 
L 157.1184 325.262202 
L 158.4576 342.280671 
L 159.7968 326.818501 
L 161.136 336.821314 
L 162.4752 329.911242 
L 163.8144 335.169746 
L 165.1536 333.883096 
L 166.4928 335.115101 
L 167.832 337.745952 
L 169.1712 335.864506 
L 170.5104 340.009013 
L 171.8496 337.086237 
L 173.1888 340.421019 
L 174.528 338.458563 
L 175.8672 340.284779 
L 177.2064 339.690731 
L 178.5456 340.335214 
L 179.8848 340.687237 
L 181.224 340.636539 
L 182.5632 341.441765 
L 183.9024 341.156152 
L 185.2416 341.991614 
L 186.5808 341.794824 
L 187.92 342.473323 
L 189.2592 342.430057 
L 190.5984 342.967404 
L 191.9376 343.043286 
L 193.2768 343.461816 
L 194.616 343.647057 
L 199.9728 344.791239 
L 201.312 344.977873 
L 203.9904 345.510169 
L 205.3296 345.822479 
L 206.6688 346.010517 
L 208.008 346.347377 
L 209.3472 346.522875 
L 212.0256 347.061888 
L 220.0608 348.45857 
L 221.4 348.847689 
L 222.7392 348.947825 
L 224.0784 349.288806 
L 226.7568 349.717517 
L 240.1488 352.015475 
L 241.488 352.166341 
L 242.8272 352.495501 
L 244.1664 352.5857 
L 245.5056 352.922856 
L 246.8448 353.048355 
L 249.5232 353.517582 
L 254.88 354.342455 
L 256.2192 354.612787 
L 257.5584 354.706911 
L 258.8976 355.02224 
L 261.576 355.339622 
L 262.9152 355.655846 
L 264.2544 355.738169 
L 266.9328 356.213807 
L 268.272 356.348792 
L 269.6112 356.629346 
L 270.9504 356.755801 
L 274.968 357.387163 
L 280.3248 358.125887 
L 287.0208 359.108394 
L 288.36 359.228067 
L 291.0384 359.643838 
L 292.3776 359.765586 
L 293.7168 360.073537 
L 295.056 360.107141 
L 296.3952 360.40447 
L 299.0736 360.717866 
L 316.4832 362.970432 
L 317.8224 363.194495 
L 319.1616 363.231516 
L 320.5008 363.558118 
L 321.84 363.607078 
L 328.536 364.500636 
L 329.8752 364.578288 
L 331.2144 364.837884 
L 333.8928 365.115069 
L 352.6416 367.29921 
L 370.0512 369.273697 
L 371.3904 369.338644 
L 374.0688 369.690394 
L 375.408 369.766833 
L 378.0864 370.089765 
L 384.7824 370.792124 
L 388.8 371.147719 
L 390.1392 371.435333 
L 390.1392 371.435333 
" style="fill:none;stroke:#1098f7;stroke-linecap:square;stroke-width:1.5;"/>
   </g>
   <g id="line2d_66">
    <path clip-path="url(#pe02f8e61a9)" d="M 52.6608 146.09618 
L 54 149.94046 
L 55.3392 151.17376 
L 56.6784 146.866449 
L 58.0176 143.98365 
L 59.3568 143.330696 
L 60.696 144.046626 
L 62.0352 145.464671 
L 63.3744 147.380984 
L 64.7136 149.616135 
L 66.0528 151.534456 
L 67.392 152.848989 
L 68.7312 154.425581 
L 70.0704 157.297652 
L 71.4096 162.061334 
L 72.7488 168.975978 
L 74.088 177.54883 
L 75.4272 185.058899 
L 76.7664 186.629049 
L 79.4448 166.087798 
L 80.784 159.142993 
L 82.1232 154.330958 
L 83.4624 151.095206 
L 84.8016 149.141416 
L 86.1408 148.354846 
L 87.48 148.760496 
L 88.8192 150.474111 
L 90.1584 153.645007 
L 92.8368 162.748121 
L 94.176 164.089833 
L 95.5152 163.243893 
L 96.8544 163.15723 
L 98.1936 164.529072 
L 99.5328 167.219675 
L 100.872 171.0225 
L 102.2112 176.148673 
L 103.5504 183.740632 
L 104.8896 187.538522 
L 106.2288 177.625577 
L 107.568 170.411745 
L 108.9072 165.876355 
L 110.2464 163.113093 
L 111.5856 161.702554 
L 112.9248 161.461591 
L 114.264 162.331599 
L 115.6032 164.347368 
L 116.9424 167.60952 
L 118.2816 172.223802 
L 119.6208 177.873274 
L 120.96 182.326053 
L 122.2992 182.939242 
L 123.6384 182.333456 
L 124.9776 182.733918 
L 126.3168 184.365387 
L 127.656 186.929944 
L 128.9952 189.88598 
L 130.3344 191.837271 
L 131.6736 190.428567 
L 134.352 182.269448 
L 135.6912 179.035593 
L 137.0304 176.807142 
L 138.3696 175.531056 
L 139.7088 175.134212 
L 141.048 175.560187 
L 142.3872 176.761126 
L 143.7264 178.697691 
L 145.0656 181.323975 
L 146.4048 184.583137 
L 147.744 188.386738 
L 150.4224 197.064269 
L 153.1008 206.404703 
L 154.44 212.140712 
L 155.7792 219.021437 
L 157.1184 215.966244 
L 158.4576 206.942154 
L 159.7968 200.160945 
L 161.136 195.135982 
L 162.4752 191.323282 
L 163.8144 188.462703 
L 165.1536 186.420986 
L 166.4928 185.131091 
L 167.832 184.552834 
L 169.1712 184.661704 
L 170.5104 185.438116 
L 171.8496 186.866198 
L 173.1888 188.931941 
L 174.528 191.628988 
L 175.8672 194.971814 
L 177.2064 199.029048 
L 178.5456 203.988192 
L 179.8848 210.255405 
L 181.224 218.141758 
L 182.5632 221.994573 
L 185.2416 211.017502 
L 186.5808 207.155335 
L 187.92 204.223262 
L 189.2592 201.913257 
L 190.5984 200.104189 
L 191.9376 198.7846 
L 193.2768 197.988206 
L 194.616 197.767208 
L 195.9552 198.178707 
L 197.2944 199.286083 
L 198.6336 201.170292 
L 199.9728 203.946824 
L 201.312 207.798217 
L 202.6512 212.957891 
L 203.9904 219.150651 
L 205.3296 222.20193 
L 206.6688 218.925885 
L 208.008 215.070461 
L 209.3472 212.383363 
L 210.6864 210.652315 
L 212.0256 209.592904 
L 213.3648 208.995595 
L 214.704 208.72425 
L 216.0432 208.693343 
L 217.3824 208.872456 
L 218.7216 209.279595 
L 220.0608 209.977001 
L 221.4 211.060175 
L 222.7392 212.643738 
L 224.0784 214.85562 
L 225.4176 217.790253 
L 226.7568 221.35329 
L 228.096 224.594206 
L 229.4352 225.306929 
L 230.7744 223.239274 
L 232.1136 220.610338 
L 233.4528 218.486103 
L 234.792 217.012135 
L 236.1312 216.093231 
L 237.4704 215.621268 
L 238.8096 215.500245 
L 240.1488 215.663124 
L 241.488 216.062233 
L 242.8272 216.676524 
L 244.1664 217.506859 
L 245.5056 218.580155 
L 246.8448 219.94786 
L 248.184 221.682103 
L 249.5232 223.876352 
L 250.8624 226.617378 
L 253.5408 233.509239 
L 254.88 236.095314 
L 256.2192 236.008646 
L 257.5584 234.003242 
L 258.8976 231.767489 
L 260.2368 229.985442 
L 261.576 228.714261 
L 262.9152 227.881526 
L 264.2544 227.388334 
L 265.5936 227.164688 
L 266.9328 227.158952 
L 268.272 227.350504 
L 269.6112 227.736886 
L 270.9504 228.337236 
L 272.2896 229.184573 
L 273.6288 230.324158 
L 274.968 231.815205 
L 276.3072 233.723948 
L 277.6464 236.140443 
L 278.9856 239.158535 
L 280.3248 242.900148 
L 283.0032 251.885774 
L 284.3424 253.98956 
L 285.6816 252.392985 
L 287.0208 249.597097 
L 288.36 247.187962 
L 289.6992 245.331609 
L 291.0384 243.941819 
L 292.3776 242.903612 
L 293.7168 242.157101 
L 295.056 241.670298 
L 296.3952 241.442441 
L 297.7344 241.487227 
L 299.0736 241.826664 
L 300.4128 242.492422 
L 301.752 243.513083 
L 303.0912 244.933292 
L 304.4304 246.790817 
L 305.7696 249.159869 
L 307.1088 252.116578 
L 308.448 255.837107 
L 309.7872 260.576375 
L 311.1264 266.994816 
L 312.4656 276.210189 
L 313.8048 282.569229 
L 315.144 274.145917 
L 316.4832 267.959831 
L 317.8224 263.953364 
L 319.1616 261.153034 
L 320.5008 259.126773 
L 321.84 257.666684 
L 323.1792 256.688196 
L 324.5184 256.13484 
L 325.8576 255.999313 
L 327.1968 256.25992 
L 328.536 256.934861 
L 329.8752 258.011956 
L 331.2144 259.528134 
L 332.5536 261.479107 
L 333.8928 263.934561 
L 335.232 266.921975 
L 336.5712 270.613671 
L 337.9104 275.219128 
L 339.2496 281.448519 
L 340.5888 291.211415 
L 341.928 307.688812 
L 343.2672 292.227063 
L 344.6064 283.743298 
L 345.9456 278.922746 
L 347.2848 275.663787 
L 348.624 273.43799 
L 349.9632 271.897294 
L 351.3024 270.971216 
L 352.6416 270.526515 
L 353.9808 270.577669 
L 355.32 271.040059 
L 356.6592 271.961995 
L 357.9984 273.269881 
L 359.3376 275.042382 
L 360.6768 277.209123 
L 362.016 279.904241 
L 363.3552 283.094979 
L 364.6944 287.090166 
L 366.0336 292.145703 
L 367.3728 299.533258 
L 368.712 313.147788 
L 370.0512 312.998095 
L 371.3904 300.868841 
L 372.7296 294.470328 
L 374.0688 290.615024 
L 375.408 287.921003 
L 376.7472 286.180381 
L 378.0864 285.015638 
L 379.4256 284.47132 
L 380.7648 284.328965 
L 382.104 284.697468 
L 383.4432 285.389163 
L 384.7824 286.558209 
L 386.1216 288.007853 
L 387.4608 289.957688 
L 388.8 292.187995 
L 390.1392 295.056673 
L 390.1392 295.056673 
" style="fill:none;stroke:#c1292e;stroke-linecap:square;stroke-width:1.5;"/>
   </g>
   <g id="line2d_67">
    <path clip-path="url(#pe02f8e61a9)" d="M 52.6608 162.296652 
L 54 177.935376 
L 55.3392 155.922144 
L 56.6784 149.983804 
L 58.0176 148.274415 
L 59.3568 148.553547 
L 60.696 149.635175 
L 62.0352 151.299388 
L 63.3744 153.741687 
L 64.7136 155.641108 
L 66.0528 154.855768 
L 67.392 153.314082 
L 68.7312 153.306041 
L 70.0704 155.411981 
L 71.4096 159.736826 
L 72.7488 166.281317 
L 74.088 174.0845 
L 75.4272 178.788917 
L 76.7664 179.142857 
L 78.1056 174.556953 
L 79.4448 166.250457 
L 80.784 159.232473 
L 82.1232 154.197448 
L 83.4624 150.7992 
L 84.8016 148.75568 
L 86.1408 147.929514 
L 87.48 148.317371 
L 88.8192 150.00692 
L 90.1584 153.124062 
L 92.8368 162.166603 
L 94.176 163.848574 
L 95.5152 163.252985 
L 96.8544 163.242435 
L 98.1936 164.630646 
L 99.5328 167.320537 
L 100.872 171.119579 
L 102.2112 176.229631 
L 103.5504 183.651964 
L 104.8896 186.797171 
L 106.2288 177.309648 
L 107.568 170.272569 
L 108.9072 165.806662 
L 110.2464 163.079191 
L 111.5856 161.689646 
L 112.9248 161.462748 
L 114.264 162.342822 
L 115.6032 164.367586 
L 116.9424 167.639154 
L 118.2816 172.266603 
L 119.6208 177.930795 
L 120.96 182.37773 
L 122.2992 182.95479 
L 123.6384 182.330886 
L 124.9776 182.725292 
L 126.3168 184.355879 
L 127.656 186.920427 
L 128.9952 189.881206 
L 130.3344 191.843604 
L 131.6736 190.446483 
L 134.352 182.282054 
L 135.6912 179.044738 
L 137.0304 176.813828 
L 138.3696 175.536104 
L 139.7088 175.138113 
L 141.048 175.563226 
L 142.3872 176.763592 
L 143.7264 178.69959 
L 145.0656 181.325579 
L 146.4048 184.584196 
L 147.744 188.387654 
L 150.4224 197.064446 
L 153.1008 206.404392 
L 154.44 212.138385 
L 155.7792 219.021484 
L 157.1184 215.962091 
L 158.4576 206.941493 
L 159.7968 200.160253 
L 161.136 195.135561 
L 162.4752 191.323059 
L 163.8144 188.462425 
L 165.1536 186.420917 
L 166.4928 185.130887 
L 167.832 184.55284 
L 169.1712 184.661532 
L 170.5104 185.438176 
L 171.8496 186.866028 
L 173.1888 188.93206 
L 174.528 191.628786 
L 175.8672 194.972029 
L 177.2064 199.028739 
L 178.5456 203.988645 
L 179.8848 210.254633 
L 181.224 218.143508 
L 182.5632 221.992604 
L 185.2416 211.017453 
L 186.5808 207.155262 
L 187.92 204.223405 
L 189.2592 201.913097 
L 190.5984 200.10437 
L 191.9376 198.784413 
L 193.2768 197.988403 
L 194.616 197.767002 
L 195.9552 198.178932 
L 197.2944 199.285831 
L 198.6336 201.170595 
L 199.9728 203.946441 
L 201.312 207.798753 
L 202.6512 212.957051 
L 203.9904 219.152056 
L 205.3296 222.200634 
L 206.6688 218.926252 
L 208.008 215.070445 
L 209.3472 212.383273 
L 210.6864 210.652445 
L 212.0256 209.592747 
L 213.3648 208.995777 
L 214.704 208.724042 
L 216.0432 208.693584 
L 217.3824 208.87218 
L 218.7216 209.279912 
L 220.0608 209.976629 
L 221.4 211.060604 
L 222.7392 212.643209 
L 224.0784 214.856279 
L 225.4176 217.789369 
L 226.7568 221.354494 
L 228.096 224.592756 
L 229.4352 225.308012 
L 230.7744 223.238828 
L 232.1136 220.610432 
L 233.4528 218.486157 
L 234.792 217.012014 
L 236.1312 216.093387 
L 237.4704 215.621088 
L 238.8096 215.500446 
L 240.1488 215.662893 
L 241.488 216.062493 
L 242.8272 216.676218 
L 244.1664 217.507218 
L 245.5056 218.579727 
L 246.8448 219.948388 
L 248.184 221.681454 
L 249.5232 223.877199 
L 250.8624 226.61625 
L 253.5408 233.507109 
L 254.88 236.097642 
L 256.2192 236.007101 
L 257.5584 234.003889 
L 258.8976 231.767328 
L 260.2368 229.985349 
L 261.576 228.714451 
L 262.9152 227.881261 
L 264.2544 227.38864 
L 265.5936 227.164351 
L 266.9328 227.159332 
L 268.272 227.350085 
L 269.6112 227.737361 
L 270.9504 228.33669 
L 272.2896 229.185207 
L 273.6288 230.323408 
L 274.968 231.816115 
L 276.3072 233.722816 
L 277.6464 236.141902 
L 278.9856 239.156567 
L 280.3248 242.902956 
L 283.0032 251.891602 
L 284.3424 253.98447 
L 285.6816 252.395067 
L 287.0208 249.596814 
L 288.36 247.187548 
L 289.6992 245.332298 
L 291.0384 243.941003 
L 292.3776 242.904487 
L 293.7168 242.15619 
L 295.056 241.671276 
L 296.3952 241.441421 
L 297.7344 241.488342 
L 299.0736 241.825443 
L 300.4128 242.493782 
L 301.752 243.511527 
L 303.0912 244.935106 
L 304.4304 246.788653 
L 305.7696 249.16255 
L 307.1088 252.113141 
L 308.448 255.841776 
L 309.7872 260.569492 
L 311.1264 267.006542 
L 312.4656 276.184569 
L 313.8048 282.591797 
L 315.144 274.149316 
L 316.4832 267.955146 
L 317.8224 263.957572 
L 319.1616 261.149356 
L 320.5008 259.130046 
L 321.84 257.663593 
L 323.1792 256.691159 
L 324.5184 256.131921 
L 325.8576 256.002365 
L 327.1968 256.256777 
L 328.536 256.938299 
L 329.8752 258.008175 
L 331.2144 259.532412 
L 332.5536 261.474159 
L 333.8928 263.94046 
L 335.232 266.914814 
L 336.5712 270.622688 
L 337.9104 275.207224 
L 339.2496 281.464911 
L 340.5888 291.187277 
L 341.928 307.531196 
L 343.2672 292.278822 
L 344.6064 283.71917 
L 345.9456 278.938404 
L 347.2848 275.65203 
L 348.624 273.447811 
L 349.9632 271.88862 
L 351.3024 270.979326 
L 352.6416 270.518549 
L 353.9808 270.585688 
L 355.32 271.031648 
L 356.6592 271.971028 
L 357.9984 273.259916 
L 359.3376 275.053586 
L 360.6768 277.196111 
L 362.016 279.919519 
L 363.3552 283.076417 
L 364.6944 287.113463 
L 366.0336 292.115113 
L 367.3728 299.575521 
L 368.712 313.112843 
L 370.0512 312.781877 
L 371.3904 300.93992 
L 372.7296 294.429525 
L 374.0688 290.644146 
L 375.408 287.897293 
L 376.7472 286.200858 
L 378.0864 284.996528 
L 379.4256 284.489744 
L 380.7648 284.310468 
L 382.104 284.716701 
L 383.4432 285.368734 
L 384.7824 286.58059 
L 386.1216 287.982789 
L 388.8 292.153863 
L 390.1392 295.098136 
L 390.1392 295.098136 
" style="fill:none;stroke:#fca311;stroke-dasharray:5.55,2.4;stroke-dashoffset:0;stroke-width:1.5;"/>
   </g>
   <g id="patch_3">
    <path d="M 54 378 
L 54 51.84 
" style="fill:none;stroke:#000000;stroke-linecap:square;stroke-linejoin:miter;stroke-width:0.8;"/>
   </g>
   <g id="patch_4">
    <path d="M 388.8 378 
L 388.8 51.84 
" style="fill:none;stroke:#000000;stroke-linecap:square;stroke-linejoin:miter;stroke-width:0.8;"/>
   </g>
   <g id="patch_5">
    <path d="M 54 378 
L 388.8 378 
" style="fill:none;stroke:#000000;stroke-linecap:square;stroke-linejoin:miter;stroke-width:0.8;"/>
   </g>
   <g id="patch_6">
    <path d="M 54 51.84 
L 388.8 51.84 
" style="fill:none;stroke:#000000;stroke-linecap:square;stroke-linejoin:miter;stroke-width:0.8;"/>
   </g>
  </g>
 </g>
 <defs>
  <clipPath id="pe02f8e61a9">
   <rect height="326.16" width="334.8" x="54" y="51.84"/>
  </clipPath>
 </defs>
</svg>
