<?xml version="1.0" encoding="utf-8" standalone="no"?>
<!DOCTYPE svg PUBLIC "-//W3C//DTD SVG 1.1//EN"
  "http://www.w3.org/Graphics/SVG/1.1/DTD/svg11.dtd">
<svg height="432pt" version="1.1" viewBox="0 0 216 432" width="216pt" xmlns="http://www.w3.org/2000/svg" xmlns:xlink="http://www.w3.org/1999/xlink">
 <metadata>
  <rdf:RDF xmlns:cc="http://creativecommons.org/ns#" xmlns:dc="http://purl.org/dc/elements/1.1/" xmlns:rdf="http://www.w3.org/1999/02/22-rdf-syntax-ns#">
   <cc:Work>
    <dc:type rdf:resource="http://purl.org/dc/dcmitype/StillImage"/>
    <dc:date>2024-03-13T15:49:14.169069</dc:date>
    <dc:format>image/svg+xml</dc:format>
    <dc:creator>
     <cc:Agent>
      <dc:title>Matplotlib v3.4.3, https://matplotlib.org/</dc:title>
     </cc:Agent>
    </dc:creator>
   </cc:Work>
  </rdf:RDF>
 </metadata>
 <defs>
  <style type="text/css">*{stroke-linecap:butt;stroke-linejoin:round;}</style>
 </defs>
 <g id="figure_1">
  <g id="patch_1">
   <path d="M 0 432 
L 216 432 
L 216 0 
L 0 0 
z
" style="fill:none;"/>
  </g>
  <g id="legend_1">
   <g id="patch_2">
    <path d="M 46 333.525 
L 170 333.525 
Q 173.2 333.525 173.2 330.325 
L 173.2 101.675 
Q 173.2 98.475 170 98.475 
L 46 98.475 
Q 42.8 98.475 42.8 101.675 
L 42.8 330.325 
Q 42.8 333.525 46 333.525 
z
" style="fill:none;opacity:0;"/>
   </g>
   <g id="line2d_1">
    <path d="M 49.2 111.1 
L 81.2 111.1 
" style="fill:none;stroke:#440154;stroke-linecap:square;stroke-width:1.5;"/>
   </g>
   <g id="line2d_2"/>
   <g id="text_1">
    <!-- $T_2 = $inf -->
    <g transform="translate(94 116.7)scale(0.16 -0.16)">
     <defs>
      <path d="M 378 4666 
L 4325 4666 
L 4225 4134 
L 2559 4134 
L 1759 0 
L 1125 0 
L 1925 4134 
L 275 4134 
L 378 4666 
z
" id="DejaVuSans-Oblique-54" transform="scale(0.015625)"/>
      <path d="M 769 253 
L 3431 253 
L 3431 0 
L 444 0 
L 444 328 
L 1606 1538 
Q 2038 1975 2388 2347 
Q 2713 2694 2822 2884 
Q 2931 3075 2931 3388 
Q 2931 3928 2600 4256 
Q 2359 4494 1825 4494 
Q 1513 4494 1106 4313 
Q 928 4231 500 3953 
L 500 4284 
Q 681 4413 1031 4569 
Q 1428 4747 1819 4750 
Q 2422 4750 2828 4441 
Q 3225 4131 3225 3419 
Q 3225 3131 3119 2875 
Q 2994 2575 2725 2266 
Q 2647 2175 2228 1744 
L 769 253 
z
" id="DejaVuSans-ExtraLight-32" transform="scale(0.015625)"/>
      <path d="M 678 2638 
L 4684 2638 
L 4684 2381 
L 678 2381 
L 678 2638 
z
M 678 1631 
L 4684 1631 
L 4684 1375 
L 678 1375 
L 678 1631 
z
" id="DejaVuSans-ExtraLight-3d" transform="scale(0.015625)"/>
      <path d="M 947 0 
L 730 0 
L 730 3328 
L 947 3328 
L 947 0 
z
M 832 4698 
Q 922 4698 970 4646 
Q 1018 4595 1018 4525 
Q 1018 4448 970 4397 
Q 922 4346 832 4346 
Q 755 4346 704 4397 
Q 653 4448 653 4525 
Q 653 4595 704 4646 
Q 755 4698 832 4698 
z
" id="FiraSans-UltraLight-69" transform="scale(0.015625)"/>
      <path d="M 2131 3398 
Q 2579 3398 2806 3132 
Q 3034 2867 3034 2374 
L 3034 0 
L 2816 0 
L 2816 2342 
Q 2816 2784 2640 2995 
Q 2464 3206 2112 3206 
Q 1754 3206 1478 3011 
Q 1203 2816 947 2445 
L 947 0 
L 730 0 
L 730 3328 
L 915 3328 
L 941 2707 
Q 1427 3398 2131 3398 
z
" id="FiraSans-UltraLight-6e" transform="scale(0.015625)"/>
      <path d="M 1606 4531 
Q 966 4531 966 3917 
L 966 3328 
L 1894 3328 
L 1862 3142 
L 966 3142 
L 966 0 
L 749 0 
L 749 3142 
L 186 3142 
L 186 3328 
L 749 3328 
L 749 3942 
Q 749 4314 976 4522 
Q 1203 4730 1587 4730 
Q 1978 4730 2349 4544 
L 2266 4371 
Q 1926 4531 1606 4531 
z
" id="FiraSans-UltraLight-66" transform="scale(0.015625)"/>
     </defs>
     <use transform="translate(0 0.09375)" xlink:href="#DejaVuSans-Oblique-54"/>
     <use transform="translate(61.083984 -16.3125)scale(0.7)" xlink:href="#DejaVuSans-ExtraLight-32"/>
     <use transform="translate(127.836914 0.09375)" xlink:href="#DejaVuSans-ExtraLight-3d"/>
     <use transform="translate(231.108398 0.09375)" xlink:href="#FiraSans-UltraLight-69"/>
     <use transform="translate(257.208389 0.09375)" xlink:href="#FiraSans-UltraLight-6e"/>
     <use transform="translate(315.408386 0.09375)" xlink:href="#FiraSans-UltraLight-66"/>
    </g>
   </g>
   <g id="line2d_3">
    <path d="M 49.2 134.125 
L 81.2 134.125 
" style="fill:none;stroke:#482878;stroke-linecap:square;stroke-width:1.5;"/>
   </g>
   <g id="line2d_4"/>
   <g id="text_2">
    <!-- $T_2 = $4.5 -->
    <g transform="translate(94 139.725)scale(0.16 -0.16)">
     <defs>
      <path d="M 3002 1165 
L 2419 1165 
L 2419 0 
L 2202 0 
L 2202 1165 
L 314 1165 
L 314 1338 
L 1619 4314 
L 1805 4237 
L 550 1363 
L 2202 1363 
L 2227 2675 
L 2419 2675 
L 2419 1363 
L 3002 1363 
L 3002 1165 
z
" id="FiraSans-UltraLight-34" transform="scale(0.015625)"/>
      <path d="M 589 346 
Q 685 346 739 288 
Q 794 230 794 141 
Q 794 51 739 -6 
Q 685 -64 589 -64 
Q 499 -64 438 -6 
Q 378 51 378 141 
Q 378 230 438 288 
Q 499 346 589 346 
z
" id="FiraSans-UltraLight-2e" transform="scale(0.015625)"/>
      <path d="M 2528 4045 
L 762 4045 
L 762 2445 
Q 1101 2675 1517 2675 
Q 2067 2675 2384 2323 
Q 2701 1971 2701 1370 
Q 2701 954 2544 627 
Q 2387 301 2092 118 
Q 1798 -64 1408 -64 
Q 717 -64 250 422 
L 403 563 
Q 614 346 851 240 
Q 1088 134 1414 134 
Q 1901 134 2185 470 
Q 2470 806 2470 1370 
Q 2470 1914 2208 2195 
Q 1946 2477 1498 2477 
Q 1267 2477 1097 2422 
Q 928 2368 717 2240 
L 544 2240 
L 544 4237 
L 2566 4237 
L 2528 4045 
z
" id="FiraSans-UltraLight-35" transform="scale(0.015625)"/>
     </defs>
     <use transform="translate(0 0.09375)" xlink:href="#DejaVuSans-Oblique-54"/>
     <use transform="translate(61.083984 -16.3125)scale(0.7)" xlink:href="#DejaVuSans-ExtraLight-32"/>
     <use transform="translate(127.836914 0.09375)" xlink:href="#DejaVuSans-ExtraLight-3d"/>
     <use transform="translate(231.108398 0.09375)" xlink:href="#FiraSans-UltraLight-34"/>
     <use transform="translate(282.008392 0.09375)" xlink:href="#FiraSans-UltraLight-2e"/>
     <use transform="translate(300.408386 0.09375)" xlink:href="#FiraSans-UltraLight-35"/>
    </g>
   </g>
   <g id="line2d_5">
    <path d="M 49.2 157.15 
L 81.2 157.15 
" style="fill:none;stroke:#3e4989;stroke-linecap:square;stroke-width:1.5;"/>
   </g>
   <g id="line2d_6"/>
   <g id="text_3">
    <!-- $T_2 = $2.25 -->
    <g transform="translate(94 162.75)scale(0.16 -0.16)">
     <defs>
      <path d="M 1421 4314 
Q 1926 4314 2220 4013 
Q 2515 3712 2515 3232 
Q 2515 2797 2345 2425 
Q 2176 2054 1808 1609 
Q 1440 1165 563 211 
L 2637 211 
L 2598 0 
L 294 0 
L 294 205 
Q 1190 1184 1580 1654 
Q 1971 2125 2131 2470 
Q 2291 2816 2291 3213 
Q 2291 3629 2054 3872 
Q 1818 4115 1414 4115 
Q 813 4115 416 3622 
L 250 3738 
Q 499 4032 780 4173 
Q 1062 4314 1421 4314 
z
" id="FiraSans-UltraLight-32" transform="scale(0.015625)"/>
     </defs>
     <use transform="translate(0 0.09375)" xlink:href="#DejaVuSans-Oblique-54"/>
     <use transform="translate(61.083984 -16.3125)scale(0.7)" xlink:href="#DejaVuSans-ExtraLight-32"/>
     <use transform="translate(127.836914 0.09375)" xlink:href="#DejaVuSans-ExtraLight-3d"/>
     <use transform="translate(231.108398 0.09375)" xlink:href="#FiraSans-UltraLight-32"/>
     <use transform="translate(277.808395 0.09375)" xlink:href="#FiraSans-UltraLight-2e"/>
     <use transform="translate(296.208389 0.09375)" xlink:href="#FiraSans-UltraLight-32"/>
     <use transform="translate(342.908386 0.09375)" xlink:href="#FiraSans-UltraLight-35"/>
    </g>
   </g>
   <g id="line2d_7">
    <path d="M 49.2 180.175 
L 81.2 180.175 
" style="fill:none;stroke:#31688e;stroke-linecap:square;stroke-width:1.5;"/>
   </g>
   <g id="line2d_8"/>
   <g id="text_4">
    <!-- $T_2 = $1.5 -->
    <g transform="translate(94 185.775)scale(0.16 -0.16)">
     <defs>
      <path d="M 1728 0 
L 1510 0 
L 1510 3981 
L 422 3296 
L 314 3469 
L 1549 4237 
L 1728 4237 
L 1728 0 
z
" id="FiraSans-UltraLight-31" transform="scale(0.015625)"/>
     </defs>
     <use transform="translate(0 0.09375)" xlink:href="#DejaVuSans-Oblique-54"/>
     <use transform="translate(61.083984 -16.3125)scale(0.7)" xlink:href="#DejaVuSans-ExtraLight-32"/>
     <use transform="translate(127.836914 0.09375)" xlink:href="#DejaVuSans-ExtraLight-3d"/>
     <use transform="translate(231.108398 0.09375)" xlink:href="#FiraSans-UltraLight-31"/>
     <use transform="translate(270.908386 0.09375)" xlink:href="#FiraSans-UltraLight-2e"/>
     <use transform="translate(289.30838 0.09375)" xlink:href="#FiraSans-UltraLight-35"/>
    </g>
   </g>
   <g id="line2d_9">
    <path d="M 49.2 203.2 
L 81.2 203.2 
" style="fill:none;stroke:#26828e;stroke-linecap:square;stroke-width:1.5;"/>
   </g>
   <g id="line2d_10"/>
   <g id="text_5">
    <!-- $T_2 = $1.12 -->
    <g transform="translate(94 208.8)scale(0.16 -0.16)">
     <use transform="translate(0 0.09375)" xlink:href="#DejaVuSans-Oblique-54"/>
     <use transform="translate(61.083984 -16.3125)scale(0.7)" xlink:href="#DejaVuSans-ExtraLight-32"/>
     <use transform="translate(127.836914 0.09375)" xlink:href="#DejaVuSans-ExtraLight-3d"/>
     <use transform="translate(231.108398 0.09375)" xlink:href="#FiraSans-UltraLight-31"/>
     <use transform="translate(270.908386 0.09375)" xlink:href="#FiraSans-UltraLight-2e"/>
     <use transform="translate(289.30838 0.09375)" xlink:href="#FiraSans-UltraLight-31"/>
     <use transform="translate(329.108368 0.09375)" xlink:href="#FiraSans-UltraLight-32"/>
    </g>
   </g>
   <g id="line2d_11">
    <path d="M 49.2 226.225 
L 81.2 226.225 
" style="fill:none;stroke:#1f9e89;stroke-linecap:square;stroke-width:1.5;"/>
   </g>
   <g id="line2d_12"/>
   <g id="text_6">
    <!-- $T_2 = $0.9 -->
    <g transform="translate(94 231.825)scale(0.16 -0.16)">
     <defs>
      <path d="M 1741 4314 
Q 2362 4314 2685 3760 
Q 3008 3206 3008 2112 
Q 3008 1037 2681 486 
Q 2355 -64 1741 -64 
Q 1126 -64 800 489 
Q 474 1043 474 2125 
Q 474 3206 800 3760 
Q 1126 4314 1741 4314 
z
M 1741 4115 
Q 1235 4115 966 3619 
Q 698 3123 698 2125 
Q 698 1133 966 633 
Q 1235 134 1741 134 
Q 2253 134 2518 627 
Q 2784 1120 2784 2112 
Q 2784 3117 2518 3616 
Q 2253 4115 1741 4115 
z
" id="FiraSans-UltraLight-30" transform="scale(0.015625)"/>
      <path d="M 1613 4314 
Q 2240 4314 2541 3859 
Q 2842 3405 2842 2560 
Q 2842 1773 2608 1257 
Q 2374 742 1932 428 
Q 1491 115 806 -109 
L 742 70 
Q 1645 358 2102 860 
Q 2560 1363 2618 2266 
Q 2195 1613 1517 1613 
Q 1190 1613 931 1773 
Q 672 1933 525 2233 
Q 378 2534 378 2931 
Q 378 3347 534 3660 
Q 691 3974 972 4144 
Q 1254 4314 1613 4314 
z
M 1542 1811 
Q 1875 1811 2128 1987 
Q 2381 2163 2624 2528 
Q 2611 3322 2377 3718 
Q 2144 4115 1626 4115 
Q 1152 4115 880 3804 
Q 608 3494 608 2925 
Q 608 2400 861 2105 
Q 1114 1811 1542 1811 
z
" id="FiraSans-UltraLight-39" transform="scale(0.015625)"/>
     </defs>
     <use transform="translate(0 0.09375)" xlink:href="#DejaVuSans-Oblique-54"/>
     <use transform="translate(61.083984 -16.3125)scale(0.7)" xlink:href="#DejaVuSans-ExtraLight-32"/>
     <use transform="translate(127.836914 0.09375)" xlink:href="#DejaVuSans-ExtraLight-3d"/>
     <use transform="translate(231.108398 0.09375)" xlink:href="#FiraSans-UltraLight-30"/>
     <use transform="translate(285.508392 0.09375)" xlink:href="#FiraSans-UltraLight-2e"/>
     <use transform="translate(303.908386 0.09375)" xlink:href="#FiraSans-UltraLight-39"/>
    </g>
   </g>
   <g id="line2d_13">
    <path d="M 49.2 249.25 
L 81.2 249.25 
" style="fill:none;stroke:#35b779;stroke-linecap:square;stroke-width:1.5;"/>
   </g>
   <g id="line2d_14"/>
   <g id="text_7">
    <!-- $T_2 = $0.75 -->
    <g transform="translate(94 254.85)scale(0.16 -0.16)">
     <defs>
      <path d="M 2509 4064 
L 781 -38 
L 570 32 
L 2278 4038 
L 218 4038 
L 218 4237 
L 2509 4237 
L 2509 4064 
z
" id="FiraSans-UltraLight-37" transform="scale(0.015625)"/>
     </defs>
     <use transform="translate(0 0.09375)" xlink:href="#DejaVuSans-Oblique-54"/>
     <use transform="translate(61.083984 -16.3125)scale(0.7)" xlink:href="#DejaVuSans-ExtraLight-32"/>
     <use transform="translate(127.836914 0.09375)" xlink:href="#DejaVuSans-ExtraLight-3d"/>
     <use transform="translate(231.108398 0.09375)" xlink:href="#FiraSans-UltraLight-30"/>
     <use transform="translate(285.508392 0.09375)" xlink:href="#FiraSans-UltraLight-2e"/>
     <use transform="translate(303.908386 0.09375)" xlink:href="#FiraSans-UltraLight-37"/>
     <use transform="translate(347.108383 0.09375)" xlink:href="#FiraSans-UltraLight-35"/>
    </g>
   </g>
   <g id="line2d_15">
    <path d="M 49.2 272.275 
L 81.2 272.275 
" style="fill:none;stroke:#6ece58;stroke-linecap:square;stroke-width:1.5;"/>
   </g>
   <g id="line2d_16"/>
   <g id="text_8">
    <!-- $T_2 = $0.643 -->
    <g transform="translate(94 277.875)scale(0.16 -0.16)">
     <defs>
      <path d="M 1837 2746 
Q 2317 2746 2624 2406 
Q 2931 2067 2931 1421 
Q 2931 960 2784 624 
Q 2637 288 2371 112 
Q 2106 -64 1760 -64 
Q 1088 -64 781 467 
Q 474 998 474 1862 
Q 474 2624 653 3174 
Q 832 3725 1161 4019 
Q 1491 4314 1946 4314 
Q 2170 4314 2339 4253 
Q 2509 4192 2682 4070 
L 2566 3910 
Q 2419 4013 2268 4064 
Q 2118 4115 1939 4115 
Q 1562 4115 1283 3849 
Q 1005 3584 857 3117 
Q 710 2650 698 2054 
Q 1146 2746 1837 2746 
z
M 1760 134 
Q 2214 134 2460 486 
Q 2707 838 2707 1414 
Q 2707 1978 2464 2262 
Q 2221 2547 1824 2547 
Q 1472 2547 1184 2339 
Q 896 2131 698 1766 
Q 710 998 966 566 
Q 1222 134 1760 134 
z
" id="FiraSans-UltraLight-36" transform="scale(0.015625)"/>
      <path d="M 1395 4314 
Q 1901 4314 2201 4022 
Q 2502 3731 2502 3270 
Q 2502 2835 2262 2572 
Q 2022 2310 1645 2259 
Q 2061 2253 2336 1965 
Q 2611 1677 2611 1178 
Q 2611 621 2262 278 
Q 1914 -64 1331 -64 
Q 960 -64 675 67 
Q 390 198 154 467 
L 307 595 
Q 531 346 771 240 
Q 1011 134 1318 134 
Q 1824 134 2105 419 
Q 2387 704 2387 1171 
Q 2387 1664 2112 1907 
Q 1837 2150 1357 2150 
L 1101 2150 
L 1133 2342 
L 1338 2342 
Q 1722 2342 2000 2576 
Q 2278 2810 2278 3264 
Q 2278 3654 2035 3884 
Q 1792 4115 1382 4115 
Q 1101 4115 867 4019 
Q 634 3923 397 3706 
L 269 3846 
Q 512 4083 781 4198 
Q 1050 4314 1395 4314 
z
" id="FiraSans-UltraLight-33" transform="scale(0.015625)"/>
     </defs>
     <use transform="translate(0 0.09375)" xlink:href="#DejaVuSans-Oblique-54"/>
     <use transform="translate(61.083984 -16.3125)scale(0.7)" xlink:href="#DejaVuSans-ExtraLight-32"/>
     <use transform="translate(127.836914 0.09375)" xlink:href="#DejaVuSans-ExtraLight-3d"/>
     <use transform="translate(231.108398 0.09375)" xlink:href="#FiraSans-UltraLight-30"/>
     <use transform="translate(285.508392 0.09375)" xlink:href="#FiraSans-UltraLight-2e"/>
     <use transform="translate(303.908386 0.09375)" xlink:href="#FiraSans-UltraLight-36"/>
     <use transform="translate(355.608383 0.09375)" xlink:href="#FiraSans-UltraLight-34"/>
     <use transform="translate(406.508377 0.09375)" xlink:href="#FiraSans-UltraLight-33"/>
    </g>
   </g>
   <g id="line2d_17">
    <path d="M 49.2 295.3 
L 81.2 295.3 
" style="fill:none;stroke:#b5de2b;stroke-linecap:square;stroke-width:1.5;"/>
   </g>
   <g id="line2d_18"/>
   <g id="text_9">
    <!-- $T_2 = $0.562 -->
    <g transform="translate(94 300.9)scale(0.16 -0.16)">
     <use transform="translate(0 0.09375)" xlink:href="#DejaVuSans-Oblique-54"/>
     <use transform="translate(61.083984 -16.3125)scale(0.7)" xlink:href="#DejaVuSans-ExtraLight-32"/>
     <use transform="translate(127.836914 0.09375)" xlink:href="#DejaVuSans-ExtraLight-3d"/>
     <use transform="translate(231.108398 0.09375)" xlink:href="#FiraSans-UltraLight-30"/>
     <use transform="translate(285.508392 0.09375)" xlink:href="#FiraSans-UltraLight-2e"/>
     <use transform="translate(303.908386 0.09375)" xlink:href="#FiraSans-UltraLight-35"/>
     <use transform="translate(351.608383 0.09375)" xlink:href="#FiraSans-UltraLight-36"/>
     <use transform="translate(403.30838 0.09375)" xlink:href="#FiraSans-UltraLight-32"/>
    </g>
   </g>
   <g id="line2d_19">
    <path d="M 49.2 318.325 
L 81.2 318.325 
" style="fill:none;stroke:#fde725;stroke-linecap:square;stroke-width:1.5;"/>
   </g>
   <g id="line2d_20"/>
   <g id="text_10">
    <!-- $T_2 = $0.5 -->
    <g transform="translate(94 323.925)scale(0.16 -0.16)">
     <use transform="translate(0 0.09375)" xlink:href="#DejaVuSans-Oblique-54"/>
     <use transform="translate(61.083984 -16.3125)scale(0.7)" xlink:href="#DejaVuSans-ExtraLight-32"/>
     <use transform="translate(127.836914 0.09375)" xlink:href="#DejaVuSans-ExtraLight-3d"/>
     <use transform="translate(231.108398 0.09375)" xlink:href="#FiraSans-UltraLight-30"/>
     <use transform="translate(285.508392 0.09375)" xlink:href="#FiraSans-UltraLight-2e"/>
     <use transform="translate(303.908386 0.09375)" xlink:href="#FiraSans-UltraLight-35"/>
    </g>
   </g>
  </g>
 </g>
</svg>
