<?xml version="1.0" encoding="utf-8" standalone="no"?>
<!DOCTYPE svg PUBLIC "-//W3C//DTD SVG 1.1//EN"
  "http://www.w3.org/Graphics/SVG/1.1/DTD/svg11.dtd">
<svg height="396pt" version="1.1" viewBox="0 0 720 396" width="720pt" xmlns="http://www.w3.org/2000/svg" xmlns:xlink="http://www.w3.org/1999/xlink">
 <metadata>
  <rdf:RDF xmlns:cc="http://creativecommons.org/ns#" xmlns:dc="http://purl.org/dc/elements/1.1/" xmlns:rdf="http://www.w3.org/1999/02/22-rdf-syntax-ns#">
   <cc:Work>
    <dc:type rdf:resource="http://purl.org/dc/dcmitype/StillImage"/>
    <dc:date>2024-04-08T14:19:34.208493</dc:date>
    <dc:format>image/svg+xml</dc:format>
    <dc:creator>
     <cc:Agent>
      <dc:title>Matplotlib v3.4.3, https://matplotlib.org/</dc:title>
     </cc:Agent>
    </dc:creator>
   </cc:Work>
  </rdf:RDF>
 </metadata>
 <defs>
  <style type="text/css">*{stroke-linecap:butt;stroke-linejoin:round;}</style>
 </defs>
 <g id="figure_1">
  <g id="patch_1">
   <path d="M 0 396 
L 720 396 
L 720 0 
L 0 0 
z
" style="fill:none;"/>
  </g>
  <g id="axes_1">
   <g id="patch_2">
    <path d="M 108.172682 301.67125 
L 537.159446 301.67125 
L 537.159446 86.382508 
L 108.172682 86.382508 
z
" style="fill:none;"/>
   </g>
   <g id="matplotlib.axis_1">
    <g id="xtick_1">
     <g id="line2d_1">
      <path clip-path="url(#p723eb2d7cf)" d="M 108.172682 301.67125 
L 108.172682 86.382508 
" style="fill:none;stroke:#555555;stroke-linecap:square;"/>
     </g>
     <g id="line2d_2">
      <defs>
       <path d="M 0 0 
L 0 3.5 
" id="m3a90698726" style="stroke:#000000;stroke-width:0.8;"/>
      </defs>
      <g>
       <use style="stroke:#000000;stroke-width:0.8;" x="108.172682" xlink:href="#m3a90698726" y="301.67125"/>
      </g>
     </g>
     <g id="text_1">
      <!-- 0 -->
      <g transform="translate(101.643932 326.40875)scale(0.24 -0.24)">
       <defs>
        <path d="M 1741 4314 
Q 2362 4314 2685 3760 
Q 3008 3206 3008 2112 
Q 3008 1037 2681 486 
Q 2355 -64 1741 -64 
Q 1126 -64 800 489 
Q 474 1043 474 2125 
Q 474 3206 800 3760 
Q 1126 4314 1741 4314 
z
M 1741 4115 
Q 1235 4115 966 3619 
Q 698 3123 698 2125 
Q 698 1133 966 633 
Q 1235 134 1741 134 
Q 2253 134 2518 627 
Q 2784 1120 2784 2112 
Q 2784 3117 2518 3616 
Q 2253 4115 1741 4115 
z
" id="FiraSans-UltraLight-30" transform="scale(0.015625)"/>
       </defs>
       <use xlink:href="#FiraSans-UltraLight-30"/>
      </g>
     </g>
    </g>
    <g id="xtick_2">
     <g id="line2d_3">
      <path clip-path="url(#p723eb2d7cf)" d="M 251.16827 301.67125 
L 251.16827 86.382508 
" style="fill:none;stroke:#555555;stroke-linecap:square;"/>
     </g>
     <g id="line2d_4">
      <g>
       <use style="stroke:#000000;stroke-width:0.8;" x="251.16827" xlink:href="#m3a90698726" y="301.67125"/>
      </g>
     </g>
     <g id="text_2">
      <!-- 10 -->
      <g transform="translate(239.863895 326.40875)scale(0.24 -0.24)">
       <defs>
        <path d="M 1728 0 
L 1510 0 
L 1510 3981 
L 422 3296 
L 314 3469 
L 1549 4237 
L 1728 4237 
L 1728 0 
z
" id="FiraSans-UltraLight-31" transform="scale(0.015625)"/>
       </defs>
       <use xlink:href="#FiraSans-UltraLight-31"/>
       <use x="39.799988" xlink:href="#FiraSans-UltraLight-30"/>
      </g>
     </g>
    </g>
    <g id="xtick_3">
     <g id="line2d_5">
      <path clip-path="url(#p723eb2d7cf)" d="M 394.163858 301.67125 
L 394.163858 86.382508 
" style="fill:none;stroke:#555555;stroke-linecap:square;"/>
     </g>
     <g id="line2d_6">
      <g>
       <use style="stroke:#000000;stroke-width:0.8;" x="394.163858" xlink:href="#m3a90698726" y="301.67125"/>
      </g>
     </g>
     <g id="text_3">
      <!-- 20 -->
      <g transform="translate(382.030733 326.40875)scale(0.24 -0.24)">
       <defs>
        <path d="M 1421 4314 
Q 1926 4314 2220 4013 
Q 2515 3712 2515 3232 
Q 2515 2797 2345 2425 
Q 2176 2054 1808 1609 
Q 1440 1165 563 211 
L 2637 211 
L 2598 0 
L 294 0 
L 294 205 
Q 1190 1184 1580 1654 
Q 1971 2125 2131 2470 
Q 2291 2816 2291 3213 
Q 2291 3629 2054 3872 
Q 1818 4115 1414 4115 
Q 813 4115 416 3622 
L 250 3738 
Q 499 4032 780 4173 
Q 1062 4314 1421 4314 
z
" id="FiraSans-UltraLight-32" transform="scale(0.015625)"/>
       </defs>
       <use xlink:href="#FiraSans-UltraLight-32"/>
       <use x="46.699997" xlink:href="#FiraSans-UltraLight-30"/>
      </g>
     </g>
    </g>
    <g id="xtick_4">
     <g id="line2d_7">
      <path clip-path="url(#p723eb2d7cf)" d="M 537.159446 301.67125 
L 537.159446 86.382508 
" style="fill:none;stroke:#555555;stroke-linecap:square;"/>
     </g>
     <g id="line2d_8">
      <g>
       <use style="stroke:#000000;stroke-width:0.8;" x="537.159446" xlink:href="#m3a90698726" y="301.67125"/>
      </g>
     </g>
     <g id="text_4">
      <!-- 30 -->
      <g transform="translate(524.906321 326.40875)scale(0.24 -0.24)">
       <defs>
        <path d="M 1395 4314 
Q 1901 4314 2201 4022 
Q 2502 3731 2502 3270 
Q 2502 2835 2262 2572 
Q 2022 2310 1645 2259 
Q 2061 2253 2336 1965 
Q 2611 1677 2611 1178 
Q 2611 621 2262 278 
Q 1914 -64 1331 -64 
Q 960 -64 675 67 
Q 390 198 154 467 
L 307 595 
Q 531 346 771 240 
Q 1011 134 1318 134 
Q 1824 134 2105 419 
Q 2387 704 2387 1171 
Q 2387 1664 2112 1907 
Q 1837 2150 1357 2150 
L 1101 2150 
L 1133 2342 
L 1338 2342 
Q 1722 2342 2000 2576 
Q 2278 2810 2278 3264 
Q 2278 3654 2035 3884 
Q 1792 4115 1382 4115 
Q 1101 4115 867 4019 
Q 634 3923 397 3706 
L 269 3846 
Q 512 4083 781 4198 
Q 1050 4314 1395 4314 
z
" id="FiraSans-UltraLight-33" transform="scale(0.015625)"/>
       </defs>
       <use xlink:href="#FiraSans-UltraLight-33"/>
       <use x="47.699997" xlink:href="#FiraSans-UltraLight-30"/>
      </g>
     </g>
    </g>
    <g id="xtick_5">
     <g id="line2d_9">
      <path clip-path="url(#p723eb2d7cf)" d="M 136.771799 301.67125 
L 136.771799 86.382508 
" style="fill:none;stroke:#555555;stroke-dasharray:0.8,1.32;stroke-dashoffset:0;stroke-width:0.8;"/>
     </g>
     <g id="line2d_10">
      <defs>
       <path d="M 0 0 
L 0 2 
" id="m0c3f27cd25" style="stroke:#000000;stroke-width:0.6;"/>
      </defs>
      <g>
       <use style="stroke:#000000;stroke-width:0.6;" x="136.771799" xlink:href="#m0c3f27cd25" y="301.67125"/>
      </g>
     </g>
    </g>
    <g id="xtick_6">
     <g id="line2d_11">
      <path clip-path="url(#p723eb2d7cf)" d="M 165.370917 301.67125 
L 165.370917 86.382508 
" style="fill:none;stroke:#555555;stroke-dasharray:0.8,1.32;stroke-dashoffset:0;stroke-width:0.8;"/>
     </g>
     <g id="line2d_12">
      <g>
       <use style="stroke:#000000;stroke-width:0.6;" x="165.370917" xlink:href="#m0c3f27cd25" y="301.67125"/>
      </g>
     </g>
    </g>
    <g id="xtick_7">
     <g id="line2d_13">
      <path clip-path="url(#p723eb2d7cf)" d="M 193.970035 301.67125 
L 193.970035 86.382508 
" style="fill:none;stroke:#555555;stroke-dasharray:0.8,1.32;stroke-dashoffset:0;stroke-width:0.8;"/>
     </g>
     <g id="line2d_14">
      <g>
       <use style="stroke:#000000;stroke-width:0.6;" x="193.970035" xlink:href="#m0c3f27cd25" y="301.67125"/>
      </g>
     </g>
    </g>
    <g id="xtick_8">
     <g id="line2d_15">
      <path clip-path="url(#p723eb2d7cf)" d="M 222.569152 301.67125 
L 222.569152 86.382508 
" style="fill:none;stroke:#555555;stroke-dasharray:0.8,1.32;stroke-dashoffset:0;stroke-width:0.8;"/>
     </g>
     <g id="line2d_16">
      <g>
       <use style="stroke:#000000;stroke-width:0.6;" x="222.569152" xlink:href="#m0c3f27cd25" y="301.67125"/>
      </g>
     </g>
    </g>
    <g id="xtick_9">
     <g id="line2d_17">
      <path clip-path="url(#p723eb2d7cf)" d="M 279.767388 301.67125 
L 279.767388 86.382508 
" style="fill:none;stroke:#555555;stroke-dasharray:0.8,1.32;stroke-dashoffset:0;stroke-width:0.8;"/>
     </g>
     <g id="line2d_18">
      <g>
       <use style="stroke:#000000;stroke-width:0.6;" x="279.767388" xlink:href="#m0c3f27cd25" y="301.67125"/>
      </g>
     </g>
    </g>
    <g id="xtick_10">
     <g id="line2d_19">
      <path clip-path="url(#p723eb2d7cf)" d="M 308.366505 301.67125 
L 308.366505 86.382508 
" style="fill:none;stroke:#555555;stroke-dasharray:0.8,1.32;stroke-dashoffset:0;stroke-width:0.8;"/>
     </g>
     <g id="line2d_20">
      <g>
       <use style="stroke:#000000;stroke-width:0.6;" x="308.366505" xlink:href="#m0c3f27cd25" y="301.67125"/>
      </g>
     </g>
    </g>
    <g id="xtick_11">
     <g id="line2d_21">
      <path clip-path="url(#p723eb2d7cf)" d="M 336.965623 301.67125 
L 336.965623 86.382508 
" style="fill:none;stroke:#555555;stroke-dasharray:0.8,1.32;stroke-dashoffset:0;stroke-width:0.8;"/>
     </g>
     <g id="line2d_22">
      <g>
       <use style="stroke:#000000;stroke-width:0.6;" x="336.965623" xlink:href="#m0c3f27cd25" y="301.67125"/>
      </g>
     </g>
    </g>
    <g id="xtick_12">
     <g id="line2d_23">
      <path clip-path="url(#p723eb2d7cf)" d="M 365.56474 301.67125 
L 365.56474 86.382508 
" style="fill:none;stroke:#555555;stroke-dasharray:0.8,1.32;stroke-dashoffset:0;stroke-width:0.8;"/>
     </g>
     <g id="line2d_24">
      <g>
       <use style="stroke:#000000;stroke-width:0.6;" x="365.56474" xlink:href="#m0c3f27cd25" y="301.67125"/>
      </g>
     </g>
    </g>
    <g id="xtick_13">
     <g id="line2d_25">
      <path clip-path="url(#p723eb2d7cf)" d="M 422.762976 301.67125 
L 422.762976 86.382508 
" style="fill:none;stroke:#555555;stroke-dasharray:0.8,1.32;stroke-dashoffset:0;stroke-width:0.8;"/>
     </g>
     <g id="line2d_26">
      <g>
       <use style="stroke:#000000;stroke-width:0.6;" x="422.762976" xlink:href="#m0c3f27cd25" y="301.67125"/>
      </g>
     </g>
    </g>
    <g id="xtick_14">
     <g id="line2d_27">
      <path clip-path="url(#p723eb2d7cf)" d="M 451.362093 301.67125 
L 451.362093 86.382508 
" style="fill:none;stroke:#555555;stroke-dasharray:0.8,1.32;stroke-dashoffset:0;stroke-width:0.8;"/>
     </g>
     <g id="line2d_28">
      <g>
       <use style="stroke:#000000;stroke-width:0.6;" x="451.362093" xlink:href="#m0c3f27cd25" y="301.67125"/>
      </g>
     </g>
    </g>
    <g id="xtick_15">
     <g id="line2d_29">
      <path clip-path="url(#p723eb2d7cf)" d="M 479.961211 301.67125 
L 479.961211 86.382508 
" style="fill:none;stroke:#555555;stroke-dasharray:0.8,1.32;stroke-dashoffset:0;stroke-width:0.8;"/>
     </g>
     <g id="line2d_30">
      <g>
       <use style="stroke:#000000;stroke-width:0.6;" x="479.961211" xlink:href="#m0c3f27cd25" y="301.67125"/>
      </g>
     </g>
    </g>
    <g id="xtick_16">
     <g id="line2d_31">
      <path clip-path="url(#p723eb2d7cf)" d="M 508.560329 301.67125 
L 508.560329 86.382508 
" style="fill:none;stroke:#555555;stroke-dasharray:0.8,1.32;stroke-dashoffset:0;stroke-width:0.8;"/>
     </g>
     <g id="line2d_32">
      <g>
       <use style="stroke:#000000;stroke-width:0.6;" x="508.560329" xlink:href="#m0c3f27cd25" y="301.67125"/>
      </g>
     </g>
    </g>
    <g id="text_5">
     <!-- Harmonic order $n = \frac{\omega}{\omega_0}$ -->
     <g transform="translate(198.706064 355.36875)scale(0.24 -0.24)">
      <defs>
       <path d="M 3104 0 
L 3104 2067 
L 1248 2067 
L 1248 0 
L 640 0 
L 640 4410 
L 1248 4410 
L 1248 2566 
L 3104 2566 
L 3104 4410 
L 3712 4410 
L 3712 0 
L 3104 0 
z
" id="FiraSans-Regular-48" transform="scale(0.015625)"/>
       <path d="M 2880 787 
Q 2880 582 2950 483 
Q 3021 384 3162 333 
L 3027 -77 
Q 2765 -45 2605 70 
Q 2445 186 2368 429 
Q 2029 -77 1363 -77 
Q 864 -77 576 204 
Q 288 486 288 941 
Q 288 1478 675 1766 
Q 1062 2054 1773 2054 
L 2291 2054 
L 2291 2304 
Q 2291 2662 2118 2816 
Q 1946 2970 1587 2970 
Q 1216 2970 678 2790 
L 531 3219 
Q 1158 3450 1696 3450 
Q 2291 3450 2585 3158 
Q 2880 2867 2880 2330 
L 2880 787 
z
M 1498 365 
Q 2003 365 2291 890 
L 2291 1664 
L 1850 1664 
Q 915 1664 915 973 
Q 915 672 1062 518 
Q 1210 365 1498 365 
z
" id="FiraSans-Regular-61" transform="scale(0.015625)"/>
       <path d="M 2074 3450 
Q 2253 3450 2406 3411 
L 2298 2835 
Q 2144 2874 2003 2874 
Q 1690 2874 1498 2643 
Q 1306 2413 1197 1926 
L 1197 0 
L 608 0 
L 608 3373 
L 1114 3373 
L 1171 2688 
Q 1306 3066 1536 3258 
Q 1766 3450 2074 3450 
z
" id="FiraSans-Regular-72" transform="scale(0.015625)"/>
       <path d="M 3994 3450 
Q 4410 3450 4659 3171 
Q 4909 2893 4909 2419 
L 4909 0 
L 4320 0 
L 4320 2336 
Q 4320 2989 3846 2989 
Q 3597 2989 3424 2845 
Q 3251 2701 3053 2394 
L 3053 0 
L 2464 0 
L 2464 2336 
Q 2464 2989 1990 2989 
Q 1734 2989 1561 2841 
Q 1389 2694 1197 2394 
L 1197 0 
L 608 0 
L 608 3373 
L 1114 3373 
L 1165 2880 
Q 1542 3450 2138 3450 
Q 2451 3450 2672 3290 
Q 2893 3130 2989 2842 
Q 3187 3136 3427 3293 
Q 3667 3450 3994 3450 
z
" id="FiraSans-Regular-6d" transform="scale(0.015625)"/>
       <path d="M 1875 3450 
Q 2586 3450 2979 2976 
Q 3373 2502 3373 1690 
Q 3373 1165 3193 765 
Q 3014 365 2675 144 
Q 2336 -77 1869 -77 
Q 1158 -77 761 396 
Q 365 870 365 1683 
Q 365 2208 544 2608 
Q 723 3008 1062 3229 
Q 1402 3450 1875 3450 
z
M 1875 2976 
Q 998 2976 998 1683 
Q 998 397 1869 397 
Q 2739 397 2739 1690 
Q 2739 2976 1875 2976 
z
" id="FiraSans-Regular-6f" transform="scale(0.015625)"/>
       <path d="M 2195 3450 
Q 2656 3450 2915 3174 
Q 3174 2899 3174 2419 
L 3174 0 
L 2586 0 
L 2586 2336 
Q 2586 2694 2451 2841 
Q 2317 2989 2054 2989 
Q 1786 2989 1581 2835 
Q 1376 2682 1197 2394 
L 1197 0 
L 608 0 
L 608 3373 
L 1114 3373 
L 1165 2874 
Q 1344 3142 1609 3296 
Q 1875 3450 2195 3450 
z
" id="FiraSans-Regular-6e" transform="scale(0.015625)"/>
       <path d="M 1197 3373 
L 1197 0 
L 608 0 
L 608 3373 
L 1197 3373 
z
M 896 4992 
Q 1082 4992 1197 4877 
Q 1312 4762 1312 4589 
Q 1312 4416 1197 4304 
Q 1082 4192 896 4192 
Q 717 4192 601 4304 
Q 486 4416 486 4589 
Q 486 4762 601 4877 
Q 717 4992 896 4992 
z
" id="FiraSans-Regular-69" transform="scale(0.015625)"/>
       <path d="M 1837 3450 
Q 2138 3450 2387 3363 
Q 2637 3277 2867 3085 
L 2586 2714 
Q 2406 2842 2236 2902 
Q 2067 2963 1862 2963 
Q 1453 2963 1225 2636 
Q 998 2310 998 1670 
Q 998 1030 1222 726 
Q 1446 422 1862 422 
Q 2061 422 2227 483 
Q 2394 544 2598 678 
L 2867 294 
Q 2406 -77 1837 -77 
Q 1152 -77 758 384 
Q 365 845 365 1658 
Q 365 2195 544 2598 
Q 723 3002 1052 3226 
Q 1382 3450 1837 3450 
z
" id="FiraSans-Regular-63" transform="scale(0.015625)"/>
       <path id="FiraSans-Regular-20" transform="scale(0.015625)"/>
       <path d="M 3219 4730 
L 3219 0 
L 2701 0 
L 2643 467 
Q 2477 211 2227 67 
Q 1978 -77 1670 -77 
Q 1069 -77 733 396 
Q 397 870 397 1670 
Q 397 2189 557 2592 
Q 717 2995 1017 3222 
Q 1318 3450 1722 3450 
Q 2240 3450 2630 3034 
L 2630 4800 
L 3219 4730 
z
M 1798 390 
Q 2067 390 2259 515 
Q 2451 640 2630 890 
L 2630 2541 
Q 2464 2758 2275 2870 
Q 2086 2982 1850 2982 
Q 1459 2982 1244 2656 
Q 1030 2330 1030 1683 
Q 1030 1030 1228 710 
Q 1427 390 1798 390 
z
" id="FiraSans-Regular-64" transform="scale(0.015625)"/>
       <path d="M 3155 1786 
Q 3155 1638 3142 1485 
L 992 1485 
Q 1030 928 1273 665 
Q 1517 403 1901 403 
Q 2144 403 2349 473 
Q 2554 544 2778 698 
L 3034 346 
Q 2496 -77 1856 -77 
Q 1152 -77 758 384 
Q 365 845 365 1651 
Q 365 2176 534 2582 
Q 704 2989 1021 3219 
Q 1338 3450 1766 3450 
Q 2438 3450 2796 3008 
Q 3155 2566 3155 1786 
z
M 2573 1958 
Q 2573 2458 2374 2720 
Q 2176 2982 1779 2982 
Q 1056 2982 992 1920 
L 2573 1920 
L 2573 1958 
z
" id="FiraSans-Regular-65" transform="scale(0.015625)"/>
       <path d="M 3566 2113 
L 3156 0 
L 2578 0 
L 2988 2091 
Q 3016 2238 3031 2350 
Q 3047 2463 3047 2528 
Q 3047 2791 2881 2937 
Q 2716 3084 2419 3084 
Q 1956 3084 1622 2776 
Q 1288 2469 1184 1941 
L 800 0 
L 225 0 
L 903 3500 
L 1478 3500 
L 1363 2950 
Q 1603 3253 1940 3418 
Q 2278 3584 2650 3584 
Q 3113 3584 3367 3334 
Q 3622 3084 3622 2631 
Q 3622 2519 3608 2391 
Q 3594 2263 3566 2113 
z
" id="DejaVuSans-Oblique-6e" transform="scale(0.015625)"/>
       <path d="M 678 2638 
L 4684 2638 
L 4684 2381 
L 678 2381 
L 678 2638 
z
M 678 1631 
L 4684 1631 
L 4684 1375 
L 678 1375 
L 678 1631 
z
" id="DejaVuSans-ExtraLight-3d" transform="scale(0.015625)"/>
       <path d="M 1369 -91 
Q 72 -91 434 1766 
Q 575 2500 1256 3500 
L 1875 3500 
Q 1231 2500 1088 1750 
Q 819 397 1519 397 
Q 2166 397 2478 2078 
L 3009 2078 
Q 2669 388 3316 397 
Q 4013 403 4275 1750 
Q 4419 2500 4169 3500 
L 4788 3500 
Q 5075 2500 4934 1766 
Q 4578 -94 3278 -91 
Q 2428 -88 2503 844 
Q 2194 -91 1369 -91 
z
" id="DejaVuSans-Oblique-3c9" transform="scale(0.015625)"/>
       <path d="M 2016 4494 
Q 1444 4494 1166 3938 
Q 888 3378 888 2328 
Q 888 1278 1166 719 
Q 1444 163 2016 163 
Q 2606 163 2884 719 
Q 3163 1278 3163 2328 
Q 3163 3378 2884 3938 
Q 2606 4494 2016 4494 
z
M 2016 4750 
Q 2691 4750 3084 4200 
Q 3478 3647 3478 2328 
Q 3478 1009 3084 456 
Q 2691 -94 2016 -94 
Q 1359 -94 966 456 
Q 572 1009 572 2328 
Q 572 3647 966 4200 
Q 1359 4750 2016 4750 
z
" id="DejaVuSans-ExtraLight-30" transform="scale(0.015625)"/>
      </defs>
      <use transform="translate(0 0.839062)" xlink:href="#FiraSans-Regular-48"/>
      <use transform="translate(67.999985 0.839062)" xlink:href="#FiraSans-Regular-61"/>
      <use transform="translate(122.399979 0.839062)" xlink:href="#FiraSans-Regular-72"/>
      <use transform="translate(160.999969 0.839062)" xlink:href="#FiraSans-Regular-6d"/>
      <use transform="translate(246.699951 0.839062)" xlink:href="#FiraSans-Regular-6f"/>
      <use transform="translate(305.099945 0.839062)" xlink:href="#FiraSans-Regular-6e"/>
      <use transform="translate(363.699936 0.839062)" xlink:href="#FiraSans-Regular-69"/>
      <use transform="translate(391.899933 0.839062)" xlink:href="#FiraSans-Regular-63"/>
      <use transform="translate(439.699921 0.839062)" xlink:href="#FiraSans-Regular-20"/>
      <use transform="translate(466.199905 0.839062)" xlink:href="#FiraSans-Regular-6f"/>
      <use transform="translate(524.599899 0.839062)" xlink:href="#FiraSans-Regular-72"/>
      <use transform="translate(563.19989 0.839062)" xlink:href="#FiraSans-Regular-64"/>
      <use transform="translate(622.999878 0.839062)" xlink:href="#FiraSans-Regular-65"/>
      <use transform="translate(677.499863 0.839062)" xlink:href="#FiraSans-Regular-72"/>
      <use transform="translate(716.099854 0.839062)" xlink:href="#FiraSans-Regular-20"/>
      <use transform="translate(742.599838 0.839062)" xlink:href="#DejaVuSans-Oblique-6e"/>
      <use transform="translate(825.461166 0.839062)" xlink:href="#DejaVuSans-ExtraLight-3d"/>
      <use transform="translate(945.732651 45.71875)scale(0.7)" xlink:href="#DejaVuSans-Oblique-3c9"/>
      <use transform="translate(928.732651 -24.840625)scale(0.7)" xlink:href="#DejaVuSans-Oblique-3c9"/>
      <use transform="translate(987.350815 -36.325)scale(0.49)" xlink:href="#DejaVuSans-ExtraLight-30"/>
      <path d="M 928.732651 19.690625 
L 928.732651 25.940625 
L 1020.44017 25.940625 
L 1020.44017 19.690625 
L 928.732651 19.690625 
z
"/>
     </g>
    </g>
   </g>
   <g id="matplotlib.axis_2">
    <g id="ytick_1">
     <g id="line2d_33">
      <path clip-path="url(#p723eb2d7cf)" d="M 108.172682 301.67125 
L 537.159446 301.67125 
" style="fill:none;stroke:#555555;stroke-linecap:square;"/>
     </g>
     <g id="line2d_34">
      <defs>
       <path d="M 0 0 
L -3.5 0 
" id="mb8c8e08e7d" style="stroke:#000000;stroke-width:0.8;"/>
      </defs>
      <g>
       <use style="stroke:#000000;stroke-width:0.8;" x="108.172682" xlink:href="#mb8c8e08e7d" y="301.67125"/>
      </g>
     </g>
     <g id="text_6">
      <!-- $\mathdefault{10^{-10}}$ -->
      <g transform="translate(53.652682 310.54)scale(0.24 -0.24)">
       <defs>
        <path d="M 474 2221 
L 2656 2221 
L 2656 2016 
L 474 2016 
L 474 2221 
z
" id="FiraSans-UltraLight-2212" transform="scale(0.015625)"/>
       </defs>
       <use transform="translate(0 0.415625)" xlink:href="#FiraSans-UltraLight-31"/>
       <use transform="translate(39.799988 0.415625)" xlink:href="#FiraSans-UltraLight-30"/>
       <use transform="translate(95.109982 36.815625)scale(0.7)" xlink:href="#FiraSans-UltraLight-2212"/>
       <use transform="translate(129.339977 36.815625)scale(0.7)" xlink:href="#FiraSans-UltraLight-31"/>
       <use transform="translate(157.199969 36.815625)scale(0.7)" xlink:href="#FiraSans-UltraLight-30"/>
      </g>
     </g>
    </g>
    <g id="ytick_2">
     <g id="line2d_35">
      <path clip-path="url(#p723eb2d7cf)" d="M 108.172682 238.972061 
L 537.159446 238.972061 
" style="fill:none;stroke:#555555;stroke-linecap:square;"/>
     </g>
     <g id="line2d_36">
      <g>
       <use style="stroke:#000000;stroke-width:0.8;" x="108.172682" xlink:href="#mb8c8e08e7d" y="238.972061"/>
      </g>
     </g>
     <g id="text_7">
      <!-- $\mathdefault{10^{-7}}$ -->
      <g transform="translate(62.052682 247.840811)scale(0.24 -0.24)">
       <defs>
        <path d="M 2509 4064 
L 781 -38 
L 570 32 
L 2278 4038 
L 218 4038 
L 218 4237 
L 2509 4237 
L 2509 4064 
z
" id="FiraSans-UltraLight-37" transform="scale(0.015625)"/>
       </defs>
       <use transform="translate(0 0.257812)" xlink:href="#FiraSans-UltraLight-31"/>
       <use transform="translate(39.799988 0.257812)" xlink:href="#FiraSans-UltraLight-30"/>
       <use transform="translate(95.109982 36.657812)scale(0.7)" xlink:href="#FiraSans-UltraLight-2212"/>
       <use transform="translate(129.339977 36.657812)scale(0.7)" xlink:href="#FiraSans-UltraLight-37"/>
      </g>
     </g>
    </g>
    <g id="ytick_3">
     <g id="line2d_37">
      <path clip-path="url(#p723eb2d7cf)" d="M 108.172682 176.272872 
L 537.159446 176.272872 
" style="fill:none;stroke:#555555;stroke-linecap:square;"/>
     </g>
     <g id="line2d_38">
      <g>
       <use style="stroke:#000000;stroke-width:0.8;" x="108.172682" xlink:href="#mb8c8e08e7d" y="176.272872"/>
      </g>
     </g>
     <g id="text_8">
      <!-- $\mathdefault{10^{-4}}$ -->
      <g transform="translate(60.852682 185.141622)scale(0.24 -0.24)">
       <defs>
        <path d="M 3002 1165 
L 2419 1165 
L 2419 0 
L 2202 0 
L 2202 1165 
L 314 1165 
L 314 1338 
L 1619 4314 
L 1805 4237 
L 550 1363 
L 2202 1363 
L 2227 2675 
L 2419 2675 
L 2419 1363 
L 3002 1363 
L 3002 1165 
z
" id="FiraSans-UltraLight-34" transform="scale(0.015625)"/>
       </defs>
       <use transform="translate(0 0.415625)" xlink:href="#FiraSans-UltraLight-31"/>
       <use transform="translate(39.799988 0.415625)" xlink:href="#FiraSans-UltraLight-30"/>
       <use transform="translate(95.109982 36.815625)scale(0.7)" xlink:href="#FiraSans-UltraLight-2212"/>
       <use transform="translate(129.339977 36.815625)scale(0.7)" xlink:href="#FiraSans-UltraLight-34"/>
      </g>
     </g>
    </g>
    <g id="ytick_4">
     <g id="line2d_39">
      <path clip-path="url(#p723eb2d7cf)" d="M 108.172682 113.573683 
L 537.159446 113.573683 
" style="fill:none;stroke:#555555;stroke-linecap:square;"/>
     </g>
     <g id="line2d_40">
      <g>
       <use style="stroke:#000000;stroke-width:0.8;" x="108.172682" xlink:href="#mb8c8e08e7d" y="113.573683"/>
      </g>
     </g>
     <g id="text_9">
      <!-- $\mathdefault{10^{-1}}$ -->
      <g transform="translate(62.772682 122.442433)scale(0.24 -0.24)">
       <use transform="translate(0 0.257812)" xlink:href="#FiraSans-UltraLight-31"/>
       <use transform="translate(39.799988 0.257812)" xlink:href="#FiraSans-UltraLight-30"/>
       <use transform="translate(95.109982 36.657812)scale(0.7)" xlink:href="#FiraSans-UltraLight-2212"/>
       <use transform="translate(129.339977 36.657812)scale(0.7)" xlink:href="#FiraSans-UltraLight-31"/>
      </g>
     </g>
    </g>
    <g id="text_10">
     <!-- Intensity -->
     <g transform="translate(44.541432 241.725004)rotate(-90)scale(0.24 -0.24)">
      <defs>
       <path d="M 1248 4410 
L 1248 0 
L 640 0 
L 640 4410 
L 1248 4410 
z
" id="FiraSans-Regular-49" transform="scale(0.015625)"/>
       <path d="M 2310 154 
Q 1978 -77 1555 -77 
Q 1126 -77 886 169 
Q 646 416 646 883 
L 646 2918 
L 58 2918 
L 58 3373 
L 646 3373 
L 646 4134 
L 1235 4205 
L 1235 3373 
L 2035 3373 
L 1971 2918 
L 1235 2918 
L 1235 909 
Q 1235 646 1328 528 
Q 1421 410 1638 410 
Q 1837 410 2086 544 
L 2310 154 
z
" id="FiraSans-Regular-74" transform="scale(0.015625)"/>
       <path d="M 1523 3450 
Q 1869 3450 2144 3354 
Q 2419 3258 2669 3066 
L 2419 2694 
Q 2189 2842 1981 2912 
Q 1773 2982 1542 2982 
Q 1254 2982 1088 2864 
Q 922 2746 922 2541 
Q 922 2336 1078 2221 
Q 1235 2106 1645 1997 
Q 2208 1856 2486 1613 
Q 2765 1370 2765 947 
Q 2765 448 2377 185 
Q 1990 -77 1434 -77 
Q 666 -77 160 365 
L 474 723 
Q 902 397 1421 397 
Q 1754 397 1949 534 
Q 2144 672 2144 909 
Q 2144 1082 2073 1187 
Q 2003 1293 1830 1373 
Q 1658 1453 1325 1542 
Q 787 1683 547 1920 
Q 307 2157 307 2522 
Q 307 2784 464 2998 
Q 621 3213 899 3331 
Q 1178 3450 1523 3450 
z
" id="FiraSans-Regular-73" transform="scale(0.015625)"/>
       <path d="M 1958 -19 
Q 1760 -608 1405 -950 
Q 1050 -1293 390 -1363 
L 326 -902 
Q 659 -845 857 -736 
Q 1056 -627 1174 -457 
Q 1293 -288 1395 0 
L 1197 0 
L 64 3373 
L 691 3373 
L 1594 429 
L 2477 3373 
L 3085 3373 
L 1958 -19 
z
" id="FiraSans-Regular-79" transform="scale(0.015625)"/>
      </defs>
      <use xlink:href="#FiraSans-Regular-49"/>
      <use x="29.499985" xlink:href="#FiraSans-Regular-6e"/>
      <use x="88.099976" xlink:href="#FiraSans-Regular-74"/>
      <use x="124.199966" xlink:href="#FiraSans-Regular-65"/>
      <use x="178.699951" xlink:href="#FiraSans-Regular-6e"/>
      <use x="237.299942" xlink:href="#FiraSans-Regular-73"/>
      <use x="283.999939" xlink:href="#FiraSans-Regular-69"/>
      <use x="312.199936" xlink:href="#FiraSans-Regular-74"/>
      <use x="348.299927" xlink:href="#FiraSans-Regular-79"/>
     </g>
    </g>
   </g>
   <g id="line2d_41">
    <path clip-path="url(#p723eb2d7cf)" d="M 108.172682 114.896106 
L 109.602494 115.302589 
L 111.032307 117.445654 
L 112.46212 117.170488 
L 113.891933 114.10893 
L 115.321746 109.615109 
L 116.751559 103.351463 
L 118.181372 97.728057 
L 119.611185 93.953093 
L 121.040998 92.673954 
L 122.47081 94.197081 
L 123.900623 98.355711 
L 125.330436 104.327568 
L 126.760249 110.928494 
L 128.190062 119.474165 
L 129.619875 132.963996 
L 131.049688 127.509795 
L 132.479501 132.924943 
L 133.909314 132.064367 
L 136.768939 124.686915 
L 138.198752 122.397297 
L 139.628565 123.581308 
L 141.058378 128.199367 
L 142.488191 135.129189 
L 143.918004 132.832032 
L 145.347817 129.64979 
L 146.77763 129.026648 
L 148.207442 126.596698 
L 149.637255 121.95894 
L 151.067068 119.203573 
L 152.496881 118.82389 
L 153.926694 120.654972 
L 156.78632 128.159258 
L 158.216133 128.59037 
L 159.645946 128.069906 
L 161.075758 128.418306 
L 162.505571 129.838328 
L 163.935384 132.413738 
L 165.365197 135.891862 
L 166.79501 138.5444 
L 168.224823 138.301998 
L 169.654636 136.993499 
L 171.084449 135.941829 
L 175.373887 133.532329 
L 176.8037 132.920679 
L 178.233513 132.566934 
L 179.663326 132.555759 
L 181.093139 132.950634 
L 182.522952 133.796359 
L 183.952765 135.111755 
L 185.382577 136.895412 
L 186.81239 139.139536 
L 188.242203 141.856502 
L 189.672016 145.112077 
L 191.101829 149.059047 
L 192.531642 153.929993 
L 193.961455 159.320498 
L 195.391268 161.002151 
L 196.821081 158.899814 
L 198.250893 157.203462 
L 199.680706 156.236027 
L 201.110519 155.684945 
L 202.540332 155.345696 
L 203.970145 155.136634 
L 205.399958 155.08091 
L 206.829771 155.234478 
L 208.259584 155.675177 
L 209.689397 156.458827 
L 211.119209 157.641932 
L 212.549022 159.258754 
L 213.978835 161.353918 
L 215.408648 163.965979 
L 216.838461 167.171279 
L 218.268274 171.092753 
L 219.698087 176.028971 
L 221.1279 182.79203 
L 222.557713 195.165588 
L 223.987525 194.126926 
L 225.417338 187.688851 
L 226.847151 185.273087 
L 228.276964 184.171982 
L 229.706777 183.672489 
L 231.13659 183.532775 
L 232.566403 183.616078 
L 233.996216 183.939407 
L 235.426029 184.463316 
L 236.855841 185.281392 
L 238.285654 186.356504 
L 239.715467 187.805641 
L 241.14528 189.563688 
L 242.575093 191.772016 
L 244.004906 194.330271 
L 245.434719 197.445281 
L 246.864532 200.973155 
L 248.294345 205.322646 
L 249.724157 210.283414 
L 251.15397 216.956533 
L 252.583783 222.130313 
L 254.013596 221.426342 
L 255.443409 218.767964 
L 256.873222 217.438767 
L 258.303035 216.753644 
L 259.732848 216.669883 
L 261.162661 216.756695 
L 264.022286 217.907969 
L 265.452099 219.169671 
L 266.881912 220.04734 
L 268.311725 222.008838 
L 269.741538 223.215912 
L 271.171351 226.031208 
L 272.601164 227.468235 
L 274.030976 231.432118 
L 275.460789 232.802129 
L 276.890602 238.645011 
L 278.320415 239.117064 
L 279.750228 249.315695 
L 281.180041 245.957553 
L 282.609854 259.526137 
L 284.039667 251.125235 
L 285.46948 252.850453 
L 286.899292 252.237959 
L 288.329105 251.889246 
L 289.758918 252.00988 
L 291.188731 253.208261 
L 292.618544 252.084611 
L 294.048357 255.948452 
L 295.47817 252.656046 
L 296.907983 259.443496 
L 298.337796 253.663828 
L 299.767608 261.697444 
L 301.197421 254.955854 
L 302.627234 261.276353 
L 304.057047 256.323634 
L 305.48686 260.206558 
L 306.916673 257.567874 
L 308.346486 259.57998 
L 309.776299 258.569949 
L 311.206112 259.406834 
L 312.635924 259.313715 
L 315.49555 259.850247 
L 316.925363 259.830704 
L 318.355176 260.253228 
L 319.784989 260.211021 
L 321.214802 260.591811 
L 322.644615 260.612377 
L 324.074428 260.915804 
L 325.50424 261.000253 
L 326.934053 261.249918 
L 328.363866 261.364273 
L 329.793679 261.597853 
L 331.223492 261.708886 
L 332.653305 261.950999 
L 334.083118 262.036333 
L 335.512931 262.322855 
L 336.942744 262.418115 
L 338.372556 262.649284 
L 339.802369 262.716583 
L 341.232182 263.002076 
L 342.661995 263.04688 
L 344.091808 263.34028 
L 345.521621 263.377908 
L 346.951434 263.670432 
L 348.381247 263.707339 
L 349.81106 263.994956 
L 351.240872 264.033825 
L 352.670685 264.315104 
L 354.100498 264.356711 
L 355.530311 264.631509 
L 356.960124 264.675736 
L 358.389937 264.944376 
L 359.81975 264.990956 
L 361.249563 265.253636 
L 362.679375 265.302545 
L 364.109188 265.559338 
L 365.539001 265.610444 
L 366.968814 265.861801 
L 368.398627 265.914557 
L 369.82844 266.161074 
L 371.258253 266.215136 
L 372.688066 266.456968 
L 374.117879 266.512488 
L 375.547691 266.74948 
L 376.977504 266.806704 
L 378.407317 267.038748 
L 379.83713 267.097827 
L 381.266943 267.324874 
L 382.696756 267.385901 
L 384.126569 267.607936 
L 385.556382 267.670962 
L 386.986195 267.888009 
L 388.416007 267.953016 
L 389.84582 268.16517 
L 391.275633 268.2321 
L 392.705446 268.439484 
L 394.135259 268.508237 
L 395.565072 268.711033 
L 396.994885 268.781489 
L 398.424698 268.979864 
L 399.854511 269.051928 
L 401.284323 269.246037 
L 402.714136 269.319631 
L 404.143949 269.509598 
L 407.003575 269.770572 
L 411.293014 270.10706 
L 415.582452 270.538635 
L 419.871891 270.872209 
L 424.16133 271.285585 
L 428.450768 271.615622 
L 432.740207 272.012522 
L 437.029646 272.338831 
L 441.319084 272.720562 
L 448.468149 273.273633 
L 455.617213 273.861333 
L 465.625903 274.617167 
L 475.634594 275.382828 
L 494.222161 276.716151 
L 511.379916 277.902011 
L 534.256922 279.405607 
L 538.546361 279.680364 
L 538.546361 279.680364 
" style="fill:none;stroke:#1098f7;stroke-linecap:square;stroke-width:1.5;"/>
   </g>
   <g id="line2d_42">
    <path clip-path="url(#p723eb2d7cf)" d="M 108.172682 130.654286 
L 109.602494 131.482732 
L 111.032307 133.46569 
L 112.46212 132.927738 
L 113.891933 128.767281 
L 115.321746 126.15852 
L 116.751559 124.442629 
L 118.181372 120.233998 
L 119.611185 117.124966 
L 121.040998 111.663837 
L 122.47081 105.004256 
L 123.900623 103.095104 
L 125.330436 105.949245 
L 126.760249 113.235656 
L 128.190062 127.07663 
L 129.619875 126.064278 
L 131.049688 122.744523 
L 132.479501 127.683079 
L 133.909314 131.146161 
L 135.339126 125.890284 
L 136.768939 121.805204 
L 138.198752 119.729542 
L 139.628565 121.011099 
L 141.058378 125.766158 
L 142.488191 133.896632 
L 143.918004 125.108149 
L 145.347817 120.879921 
L 146.77763 121.616196 
L 148.207442 131.825416 
L 149.637255 125.114821 
L 151.067068 117.626196 
L 152.496881 115.626319 
L 153.926694 116.315521 
L 155.356507 118.67231 
L 158.216133 124.474715 
L 161.075758 130.351984 
L 162.505571 133.329888 
L 163.935384 134.055258 
L 165.365197 132.427816 
L 166.79501 131.240956 
L 168.224823 131.22623 
L 169.654636 132.460524 
L 171.084449 135.250021 
L 172.514262 140.109522 
L 173.944074 142.565216 
L 175.373887 138.599721 
L 176.8037 136.260283 
L 178.233513 135.750035 
L 179.663326 136.531284 
L 181.093139 138.430725 
L 182.522952 141.804284 
L 185.382577 154.956997 
L 186.81239 144.082522 
L 188.242203 139.594254 
L 189.672016 137.670185 
L 191.101829 137.427038 
L 192.531642 138.476953 
L 193.961455 140.175227 
L 195.391268 141.248748 
L 196.821081 141.312427 
L 198.250893 141.490767 
L 199.680706 142.368748 
L 201.110519 143.600929 
L 202.540332 144.27389 
L 203.970145 143.769398 
L 206.829771 141.137756 
L 208.259584 140.246645 
L 209.689397 139.976695 
L 211.119209 140.326876 
L 212.549022 141.209998 
L 215.408648 143.605153 
L 216.838461 144.028799 
L 218.268274 143.58648 
L 219.698087 142.945303 
L 221.1279 142.673884 
L 222.557713 142.968318 
L 223.987525 143.854867 
L 225.417338 145.33347 
L 226.847151 147.417115 
L 228.276964 150.14874 
L 229.706777 153.727041 
L 231.13659 158.144739 
L 232.566403 157.516826 
L 233.996216 152.530176 
L 235.426029 149.204265 
L 236.855841 147.577388 
L 238.285654 147.339114 
L 239.715467 148.313752 
L 241.14528 150.347668 
L 242.575093 153.032507 
L 244.004906 155.20856 
L 245.434719 155.930794 
L 246.864532 156.335817 
L 248.294345 157.68667 
L 249.724157 159.933935 
L 251.15397 160.097073 
L 252.583783 157.245426 
L 254.013596 154.915408 
L 255.443409 154.036941 
L 256.873222 154.699432 
L 258.303035 156.889272 
L 259.732848 158.32779 
L 261.162661 154.909819 
L 262.592473 151.145715 
L 264.022286 148.881295 
L 265.452099 148.028505 
L 266.881912 148.526947 
L 268.311725 150.564357 
L 269.741538 154.787288 
L 271.171351 160.937095 
L 272.601164 156.864928 
L 274.030976 152.32121 
L 275.460789 150.237186 
L 276.890602 149.798407 
L 278.320415 150.702141 
L 279.750228 152.908221 
L 281.180041 156.492636 
L 282.609854 161.212016 
L 284.039667 164.900663 
L 285.46948 166.482366 
L 286.899292 170.06496 
L 288.329105 171.89995 
L 289.758918 163.811584 
L 291.188731 158.983064 
L 292.618544 156.401812 
L 294.048357 155.322031 
L 295.47817 155.479619 
L 296.907983 156.85763 
L 298.337796 159.675793 
L 301.197421 169.632361 
L 304.057047 163.795339 
L 305.48686 163.226647 
L 306.916673 164.772296 
L 308.346486 169.138007 
L 309.776299 182.739684 
L 311.206112 174.318961 
L 312.635924 167.056881 
L 314.065737 163.757206 
L 315.49555 162.00736 
L 316.925363 161.271932 
L 318.355176 161.480942 
L 319.784989 162.800519 
L 321.214802 165.707033 
L 322.644615 171.465925 
L 324.074428 175.568925 
L 325.50424 168.059374 
L 326.934053 163.872424 
L 328.363866 161.713361 
L 329.793679 160.754706 
L 331.223492 160.606841 
L 332.653305 160.993643 
L 335.512931 162.399083 
L 336.942744 163.184263 
L 338.372556 164.120238 
L 339.802369 165.207498 
L 341.232182 165.993976 
L 342.661995 165.742484 
L 345.521621 163.408699 
L 346.951434 162.716447 
L 348.381247 162.677739 
L 349.81106 163.330827 
L 351.240872 164.694514 
L 352.670685 166.7486 
L 354.100498 169.150647 
L 355.530311 170.507627 
L 356.960124 169.644342 
L 358.389937 168.03966 
L 359.81975 166.951794 
L 361.249563 166.666942 
L 362.679375 167.210346 
L 364.109188 168.578222 
L 365.539001 170.747636 
L 368.398627 176.27757 
L 369.82844 177.537681 
L 371.258253 177.00274 
L 372.688066 175.663797 
L 374.117879 174.166082 
L 375.547691 172.842792 
L 376.977504 171.919103 
L 378.407317 171.522804 
L 379.83713 171.718994 
L 381.266943 172.558872 
L 382.696756 174.113932 
L 384.126569 176.476516 
L 385.556382 179.583352 
L 386.986195 182.03377 
L 388.416007 180.613657 
L 391.275633 173.65232 
L 392.705446 170.8301 
L 394.135259 168.647906 
L 395.565072 167.131865 
L 396.994885 166.288503 
L 398.424698 166.115725 
L 399.854511 166.612427 
L 401.284323 167.783678 
L 402.714136 169.640192 
L 404.143949 172.186744 
L 405.573762 175.372855 
L 407.003575 178.90152 
L 408.433388 181.698151 
L 409.863201 182.129761 
L 411.293014 180.546004 
L 415.582452 174.107465 
L 417.012265 172.264852 
L 418.442078 170.627583 
L 419.871891 169.216858 
L 421.301704 168.070222 
L 422.731517 167.233393 
L 424.16133 166.750919 
L 425.591143 166.660767 
L 427.020955 166.992382 
L 428.450768 167.766104 
L 429.880581 168.991445 
L 431.310394 170.662997 
L 432.740207 172.755283 
L 434.17002 175.226934 
L 435.599833 178.055417 
L 438.459459 184.68156 
L 439.889271 185.719916 
L 441.319084 182.711834 
L 442.748897 179.250679 
L 444.17871 176.527028 
L 445.608523 174.480487 
L 447.038336 172.963591 
L 448.468149 171.872785 
L 449.897962 171.144821 
L 451.327775 170.74411 
L 452.757587 170.652652 
L 454.1874 170.862505 
L 455.617213 171.370423 
L 457.047026 172.174245 
L 458.476839 173.271645 
L 459.906652 174.662805 
L 461.336465 176.361191 
L 462.766278 178.418551 
L 464.19609 180.971694 
L 465.625903 184.306117 
L 467.055716 188.663275 
L 468.485529 190.79455 
L 471.345155 182.940117 
L 472.774968 180.233253 
L 474.204781 178.369853 
L 475.634594 177.117025 
L 477.064406 176.336351 
L 478.494219 175.940481 
L 479.924032 175.869933 
L 481.353845 176.081245 
L 482.783658 176.54113 
L 484.213471 177.224606 
L 485.643284 178.117356 
L 487.073097 179.2224 
L 488.50291 180.571206 
L 489.932722 182.239227 
L 491.362535 184.370339 
L 492.792348 187.218727 
L 495.651974 195.075577 
L 497.081787 192.900661 
L 498.5116 188.655857 
L 499.941413 185.576622 
L 501.371226 183.458158 
L 502.801038 182.023212 
L 504.230851 181.110815 
L 505.660664 180.626565 
L 507.090477 180.511735 
L 508.52029 180.728387 
L 509.950103 181.252442 
L 511.379916 182.069912 
L 512.809729 183.174536 
L 514.239542 184.566079 
L 515.669354 186.251222 
L 517.099167 188.250317 
L 518.52898 190.615952 
L 519.958793 193.459327 
L 521.388606 196.882515 
L 522.818419 199.944987 
L 524.248232 198.885004 
L 525.678045 195.221766 
L 527.107858 192.00856 
L 528.53767 189.55379 
L 529.967483 187.717627 
L 531.397296 186.380924 
L 532.827109 185.464291 
L 534.256922 184.914357 
L 535.686735 184.695038 
L 537.116548 184.784331 
L 538.546361 185.173695 
L 538.546361 185.173695 
" style="fill:none;stroke:#c1292e;stroke-linecap:square;stroke-width:2.5;"/>
   </g>
   <g id="line2d_43">
    <path clip-path="url(#p723eb2d7cf)" d="M 108.172682 116.655428 
L 109.602494 116.551997 
L 111.032307 118.40497 
L 112.46212 118.349462 
L 113.891933 115.373033 
L 115.321746 110.556562 
L 116.751559 104.114202 
L 118.181372 98.43535 
L 119.611185 94.359395 
L 121.040998 92.205095 
L 122.47081 92.137588 
L 123.900623 94.284867 
L 125.330436 98.810924 
L 126.760249 106.014592 
L 128.190062 116.522064 
L 129.619875 128.517328 
L 131.049688 130.63598 
L 132.479501 135.048618 
L 133.909314 144.06483 
L 135.339126 137.962172 
L 136.768939 132.924456 
L 138.198752 130.346247 
L 139.628565 129.459821 
L 141.058378 129.090856 
L 142.488191 128.307396 
L 143.918004 126.906878 
L 145.347817 125.217124 
L 146.77763 124.240151 
L 148.207442 124.622163 
L 149.637255 126.217903 
L 151.067068 127.347753 
L 152.496881 126.255622 
L 153.926694 125.0041 
L 155.356507 125.27316 
L 156.78632 127.697054 
L 158.216133 133.345951 
L 159.645946 148.943231 
L 161.075758 143.164775 
L 162.505571 140.130478 
L 163.935384 142.067461 
L 165.365197 140.506598 
L 166.79501 136.486811 
L 168.224823 134.356324 
L 169.654636 133.788868 
L 171.084449 134.334972 
L 172.514262 135.792739 
L 173.944074 138.111112 
L 175.373887 141.06739 
L 176.8037 142.132841 
L 179.663326 135.630572 
L 181.093139 133.720017 
L 182.522952 133.195194 
L 183.952765 134.033375 
L 185.382577 136.34439 
L 186.81239 140.167072 
L 188.242203 143.324856 
L 189.672016 142.01586 
L 191.101829 140.376493 
L 192.531642 139.98958 
L 193.961455 140.201291 
L 196.821081 140.393867 
L 198.250893 141.059541 
L 199.680706 142.49315 
L 201.110519 144.281913 
L 202.540332 145.471911 
L 203.970145 145.418725 
L 205.399958 144.392053 
L 206.829771 143.071657 
L 208.259584 142.042468 
L 209.689397 141.587234 
L 211.119209 141.735199 
L 212.549022 142.378174 
L 213.978835 143.27532 
L 215.408648 143.9719 
L 216.838461 143.970356 
L 219.698087 142.759835 
L 221.1279 142.570343 
L 222.557713 142.940643 
L 223.987525 143.888649 
L 225.417338 145.419182 
L 226.847151 147.554708 
L 228.276964 150.350589 
L 229.706777 154.013172 
L 231.13659 158.385952 
L 232.566403 157.225726 
L 233.996216 152.269872 
L 235.426029 149.020456 
L 236.855841 147.436762 
L 238.285654 147.221003 
L 239.715467 148.205919 
L 241.14528 150.238406 
L 242.575093 152.913181 
L 244.004906 155.087906 
L 245.434719 155.838824 
L 246.864532 156.271942 
L 248.294345 157.639928 
L 249.724157 159.898726 
L 251.15397 160.081919 
L 252.583783 157.238456 
L 254.013596 154.910164 
L 255.443409 154.031382 
L 256.873222 154.694095 
L 258.303035 156.884796 
L 259.732848 158.332976 
L 261.162661 154.917893 
L 262.592473 151.151416 
L 264.022286 148.885463 
L 265.452099 148.0318 
L 266.881912 148.529963 
L 268.311725 150.567397 
L 269.741538 154.791653 
L 271.171351 160.94375 
L 272.601164 156.865958 
L 274.030976 152.321298 
L 275.460789 150.237246 
L 276.890602 149.798447 
L 278.320415 150.702197 
L 279.750228 152.908242 
L 281.180041 156.492728 
L 282.609854 161.211855 
L 284.039667 164.901132 
L 285.46948 166.482003 
L 286.899292 170.065753 
L 288.329105 171.898629 
L 289.758918 163.81114 
L 291.188731 158.982872 
L 292.618544 156.401629 
L 294.048357 155.32193 
L 295.47817 155.47951 
L 296.907983 156.857548 
L 298.337796 159.675756 
L 301.197421 169.633079 
L 304.057047 163.795482 
L 305.48686 163.226584 
L 306.916673 164.772322 
L 308.346486 169.137957 
L 309.776299 182.73912 
L 311.206112 174.318936 
L 312.635924 167.057014 
L 314.065737 163.757126 
L 315.49555 162.007477 
L 316.925363 161.271836 
L 318.355176 161.481069 
L 319.784989 162.800393 
L 321.214802 165.707225 
L 322.644615 171.465751 
L 324.074428 175.568357 
L 325.50424 168.05969 
L 326.934053 163.87223 
L 328.363866 161.713493 
L 329.793679 160.754586 
L 331.223492 160.606929 
L 332.653305 160.993551 
L 335.512931 162.399034 
L 336.942744 163.184256 
L 338.372556 164.120227 
L 339.802369 165.20748 
L 341.232182 165.993919 
L 342.661995 165.742551 
L 345.521621 163.408787 
L 346.951434 162.716349 
L 348.381247 162.677813 
L 349.81106 163.330743 
L 351.240872 164.694564 
L 352.670685 166.748558 
L 354.100498 169.150555 
L 355.530311 170.507839 
L 356.960124 169.644085 
L 358.389937 168.039857 
L 359.81975 166.951672 
L 361.249563 166.667037 
L 362.679375 167.210321 
L 364.109188 168.578214 
L 365.539001 170.747774 
L 368.398627 176.278032 
L 369.82844 177.537321 
L 371.258253 177.00268 
L 372.688066 175.664035 
L 374.117879 174.165754 
L 375.547691 172.843083 
L 376.977504 171.918859 
L 378.407317 171.523019 
L 379.83713 171.71882 
L 381.266943 172.559051 
L 382.696756 174.113777 
L 384.126569 176.476726 
L 385.556382 179.583083 
L 386.986195 182.034328 
L 388.416007 180.613103 
L 391.275633 173.652077 
L 392.705446 170.830267 
L 394.135259 168.647801 
L 395.565072 167.131944 
L 396.994885 166.288454 
L 398.424698 166.115766 
L 399.854511 166.612407 
L 401.284323 167.783693 
L 402.714136 169.640205 
L 404.143949 172.186716 
L 405.573762 175.372959 
L 407.003575 178.901308 
L 408.433388 181.698608 
L 409.863201 182.129213 
L 411.293014 180.546473 
L 415.582452 174.107259 
L 417.012265 172.265006 
L 418.442078 170.627461 
L 419.871891 169.216949 
L 421.301704 168.070148 
L 422.731517 167.233448 
L 424.16133 166.750871 
L 425.591143 166.660803 
L 427.020955 166.992347 
L 428.450768 167.766131 
L 429.880581 168.991415 
L 431.310394 170.663023 
L 432.740207 172.755246 
L 434.17002 175.226972 
L 435.599833 178.055362 
L 438.459459 184.681694 
L 439.889271 185.719403 
L 441.319084 182.71228 
L 442.748897 179.250384 
L 444.17871 176.527233 
L 445.608523 174.480339 
L 447.038336 172.963707 
L 448.468149 171.872695 
L 449.897962 171.144898 
L 451.327775 170.744047 
L 452.757587 170.652709 
L 454.1874 170.862456 
L 455.617213 171.370472 
L 457.047026 172.174198 
L 458.476839 173.271697 
L 459.906652 174.662749 
L 461.336465 176.361262 
L 462.766278 178.41847 
L 464.19609 180.971795 
L 465.625903 184.306028 
L 467.055716 188.663185 
L 468.485529 190.795287 
L 471.345155 182.940441 
L 472.774968 180.233034 
L 474.204781 178.370015 
L 475.634594 177.116896 
L 477.064406 176.336455 
L 478.494219 175.940391 
L 479.924032 175.87001 
L 481.353845 176.081173 
L 482.783658 176.541196 
L 484.213471 177.22454 
L 485.643284 178.117422 
L 487.073097 179.222327 
L 488.50291 180.571285 
L 489.932722 182.239137 
L 491.362535 184.370434 
L 492.792348 187.218641 
L 495.651974 195.076342 
L 497.081787 192.899798 
L 498.5116 188.656334 
L 499.941413 185.576326 
L 501.371226 183.458366 
L 502.801038 182.023057 
L 504.230851 181.110937 
L 505.660664 180.626471 
L 507.090477 180.51181 
L 508.52029 180.728332 
L 509.950103 181.252481 
L 511.379916 182.069891 
L 512.809729 183.174541 
L 514.239542 184.566093 
L 515.669354 186.251189 
L 517.099167 188.250378 
L 518.52898 190.615848 
L 519.958793 193.459538 
L 521.388606 196.881994 
L 522.818419 199.946299 
L 524.248232 198.883651 
L 525.678045 195.222531 
L 527.107858 192.008107 
L 528.53767 189.554083 
L 529.967483 187.717426 
L 531.397296 186.381062 
L 532.827109 185.464201 
L 534.256922 184.914406 
L 535.686735 184.695027 
L 537.116548 184.784302 
L 538.546361 185.173766 
L 538.546361 185.173766 
" style="fill:none;stroke:#fca311;stroke-dasharray:6,3;stroke-dashoffset:0;stroke-width:2;"/>
   </g>
   <g id="line2d_44">
    <path clip-path="url(#p723eb2d7cf)" d="M 108.172682 114.896106 
L 109.602494 115.302589 
L 111.032307 117.445654 
L 112.46212 117.170488 
L 113.891933 114.10893 
L 115.321746 109.615109 
L 116.751559 103.351463 
L 118.181372 97.728057 
L 119.611185 93.953093 
L 121.040998 92.673954 
L 122.47081 94.197081 
L 123.900623 98.355711 
L 125.330436 104.327568 
L 126.760249 110.928494 
L 128.190062 119.474165 
L 129.619875 132.963996 
L 131.049688 127.509795 
L 132.479501 132.924943 
L 133.909314 132.064367 
L 136.768939 124.686915 
L 138.198752 122.397297 
L 139.628565 123.581308 
L 141.058378 128.199367 
L 142.488191 135.129189 
L 143.918004 132.832032 
L 145.347817 129.64979 
L 146.77763 129.026648 
L 148.207442 126.596698 
L 149.637255 121.95894 
L 151.067068 119.203573 
L 152.496881 118.82389 
L 153.926694 120.654972 
L 156.78632 128.159258 
L 158.216133 128.59037 
L 159.645946 128.069906 
L 161.075758 128.418306 
L 162.505571 129.838328 
L 163.935384 132.413738 
L 165.365197 135.891862 
L 166.79501 138.5444 
L 168.224823 138.301998 
L 169.654636 136.993499 
L 171.084449 135.941829 
L 175.373887 133.532329 
L 176.8037 132.920679 
L 178.233513 132.566934 
L 179.663326 132.555759 
L 181.093139 132.950634 
L 182.522952 133.796359 
L 183.952765 135.111755 
L 185.382577 136.895412 
L 186.81239 139.139536 
L 188.242203 141.856502 
L 189.672016 145.112077 
L 191.101829 149.059047 
L 192.531642 153.929993 
L 193.961455 159.320498 
L 195.391268 161.002151 
L 196.821081 158.899814 
L 198.250893 157.203462 
L 199.680706 156.236027 
L 201.110519 155.684945 
L 202.540332 155.345696 
L 203.970145 155.136634 
L 205.399958 155.08091 
L 206.829771 155.234478 
L 208.259584 155.675177 
L 209.689397 156.458827 
L 211.119209 157.641932 
L 212.549022 159.258754 
L 213.978835 161.353918 
L 215.408648 163.965979 
L 216.838461 167.171279 
L 218.268274 171.092753 
L 219.698087 176.028971 
L 221.1279 182.79203 
L 222.557713 195.165588 
L 223.987525 194.126926 
L 225.417338 187.688851 
L 226.847151 185.273087 
L 228.276964 184.171982 
L 229.706777 183.672489 
L 231.13659 183.532775 
L 232.566403 183.616078 
L 233.996216 183.939407 
L 235.426029 184.463316 
L 236.855841 185.281392 
L 238.285654 186.356504 
L 239.715467 187.805641 
L 241.14528 189.563688 
L 242.575093 191.772016 
L 244.004906 194.330271 
L 245.434719 197.445281 
L 246.864532 200.973155 
L 248.294345 205.322646 
L 249.724157 210.283414 
L 251.15397 216.956533 
L 252.583783 222.130313 
L 254.013596 221.426342 
L 255.443409 218.767964 
L 256.873222 217.438767 
L 258.303035 216.753644 
L 259.732848 216.669883 
L 261.162661 216.756695 
L 264.022286 217.907969 
L 265.452099 219.169671 
L 266.881912 220.04734 
L 268.311725 222.008838 
L 269.741538 223.215912 
L 271.171351 226.031208 
L 272.601164 227.468235 
L 274.030976 231.432118 
L 275.460789 232.802129 
L 276.890602 238.645011 
L 278.320415 239.117064 
L 279.750228 249.315695 
L 281.180041 245.957553 
L 282.609854 259.526137 
L 284.039667 251.125235 
L 285.46948 252.850453 
L 286.899292 252.237959 
L 288.329105 251.889246 
L 289.758918 252.00988 
L 291.188731 253.208261 
L 292.618544 252.084611 
L 294.048357 255.948452 
L 295.47817 252.656046 
L 296.907983 259.443496 
L 298.337796 253.663828 
L 299.767608 261.697444 
L 301.197421 254.955854 
L 302.627234 261.276353 
L 304.057047 256.323634 
L 305.48686 260.206558 
L 306.916673 257.567874 
L 308.346486 259.57998 
L 309.776299 258.569949 
L 311.206112 259.406834 
L 312.635924 259.313715 
L 315.49555 259.850247 
L 316.925363 259.830704 
L 318.355176 260.253228 
L 319.784989 260.211021 
L 321.214802 260.591811 
L 322.644615 260.612377 
L 324.074428 260.915804 
L 325.50424 261.000253 
L 326.934053 261.249918 
L 328.363866 261.364273 
L 329.793679 261.597853 
L 331.223492 261.708886 
L 332.653305 261.950999 
L 334.083118 262.036333 
L 335.512931 262.322855 
L 336.942744 262.418115 
L 338.372556 262.649284 
L 339.802369 262.716583 
L 341.232182 263.002076 
L 342.661995 263.04688 
L 344.091808 263.34028 
L 345.521621 263.377908 
L 346.951434 263.670432 
L 348.381247 263.707339 
L 349.81106 263.994956 
L 351.240872 264.033825 
L 352.670685 264.315104 
L 354.100498 264.356711 
L 355.530311 264.631509 
L 356.960124 264.675736 
L 358.389937 264.944376 
L 359.81975 264.990956 
L 361.249563 265.253636 
L 362.679375 265.302545 
L 364.109188 265.559338 
L 365.539001 265.610444 
L 366.968814 265.861801 
L 368.398627 265.914557 
L 369.82844 266.161074 
L 371.258253 266.215136 
L 372.688066 266.456968 
L 374.117879 266.512488 
L 375.547691 266.74948 
L 376.977504 266.806704 
L 378.407317 267.038748 
L 379.83713 267.097827 
L 381.266943 267.324874 
L 382.696756 267.385901 
L 384.126569 267.607936 
L 385.556382 267.670962 
L 386.986195 267.888009 
L 388.416007 267.953016 
L 389.84582 268.16517 
L 391.275633 268.2321 
L 392.705446 268.439484 
L 394.135259 268.508237 
L 395.565072 268.711033 
L 396.994885 268.781489 
L 398.424698 268.979864 
L 399.854511 269.051928 
L 401.284323 269.246037 
L 402.714136 269.319631 
L 404.143949 269.509598 
L 407.003575 269.770572 
L 411.293014 270.10706 
L 415.582452 270.538635 
L 419.871891 270.872209 
L 424.16133 271.285585 
L 428.450768 271.615622 
L 432.740207 272.012522 
L 437.029646 272.338831 
L 441.319084 272.720562 
L 448.468149 273.273633 
L 455.617213 273.861333 
L 465.625903 274.617167 
L 475.634594 275.382828 
L 494.222161 276.716151 
L 511.379916 277.902011 
L 534.256922 279.405607 
L 538.546361 279.680364 
L 538.546361 279.680364 
" style="fill:none;stroke:#440154;stroke-linecap:square;stroke-width:1.5;"/>
   </g>
   <g id="line2d_45">
    <path clip-path="url(#p723eb2d7cf)" d="M 108.172682 115.044246 
L 109.602494 115.358301 
L 111.032307 117.336153 
L 112.46212 117.312582 
L 113.891933 114.475584 
L 115.321746 109.908765 
L 116.751559 103.538085 
L 118.181372 97.849985 
L 119.611185 94.036437 
L 121.040998 92.6953 
L 122.47081 94.109594 
L 123.900623 98.183344 
L 125.330436 104.202079 
L 126.760249 110.957586 
L 128.190062 119.590914 
L 129.619875 132.206723 
L 131.049688 127.965825 
L 132.479501 133.544499 
L 133.909314 133.636651 
L 135.339126 128.875383 
L 136.768939 125.502208 
L 138.198752 123.653516 
L 139.628565 125.101468 
L 141.058378 130.246199 
L 142.488191 138.455279 
L 143.918004 134.159225 
L 145.347817 131.329298 
L 146.77763 131.680748 
L 148.207442 128.371182 
L 149.637255 122.777157 
L 151.067068 119.776342 
L 152.496881 119.260206 
L 153.926694 120.914536 
L 155.356507 124.418343 
L 156.78632 128.224 
L 158.216133 129.188701 
L 159.645946 128.80723 
L 161.075758 129.143419 
L 162.505571 130.565658 
L 163.935384 133.184322 
L 165.365197 136.836177 
L 166.79501 139.868065 
L 168.224823 139.631168 
L 169.654636 138.074003 
L 171.084449 136.828303 
L 173.944074 134.941687 
L 175.373887 134.098857 
L 176.8037 133.429298 
L 178.233513 133.036408 
L 179.663326 133.00169 
L 181.093139 133.384033 
L 182.522952 134.224323 
L 183.952765 135.539026 
L 185.382577 137.325881 
L 186.81239 139.5758 
L 188.242203 142.29912 
L 189.672016 145.561312 
L 191.101829 149.52975 
L 192.531642 154.516229 
L 193.961455 160.455444 
L 195.391268 162.566791 
L 196.821081 159.910897 
L 198.250893 157.910065 
L 199.680706 156.791733 
L 201.110519 156.150064 
L 202.540332 155.747874 
L 203.970145 155.495604 
L 205.399958 155.416338 
L 206.829771 155.565219 
L 208.259584 156.015744 
L 209.689397 156.817592 
L 211.119209 158.022934 
L 212.549022 159.664181 
L 213.978835 161.787749 
L 215.408648 164.4332 
L 216.838461 167.675532 
L 218.268274 171.621987 
L 219.698087 176.523197 
L 221.1279 182.981931 
L 222.557713 192.551862 
L 223.987525 193.775659 
L 225.417338 188.550159 
L 226.847151 186.148183 
L 228.276964 184.948194 
L 229.706777 184.369769 
L 231.13659 184.186399 
L 232.566403 184.239761 
L 233.996216 184.491988 
L 235.426029 184.865806 
L 236.855841 185.470466 
L 238.285654 186.322811 
L 239.715467 187.604735 
L 241.14528 189.299824 
L 242.575093 191.559277 
L 244.004906 194.26684 
L 245.434719 197.546249 
L 246.864532 201.11566 
L 249.724157 208.831418 
L 251.15397 212.349193 
L 252.583783 214.175863 
L 254.013596 215.447443 
L 255.443409 216.171282 
L 256.873222 219.356326 
L 258.303035 225.95071 
L 259.732848 225.590955 
L 261.162661 216.642645 
L 262.592473 212.013888 
L 264.022286 209.968743 
L 265.452099 209.131378 
L 266.881912 209.931609 
L 268.311725 212.013809 
L 269.741538 216.344286 
L 271.171351 219.744364 
L 272.601164 215.479259 
L 274.030976 212.202646 
L 275.460789 210.407354 
L 276.890602 210.345211 
L 278.320415 211.235245 
L 279.750228 213.689663 
L 281.180041 217.109898 
L 282.609854 222.354944 
L 284.039667 226.313457 
L 285.46948 227.989217 
L 286.899292 231.815918 
L 288.329105 236.668621 
L 289.758918 226.146776 
L 291.188731 221.366955 
L 292.618544 218.291731 
L 294.048357 217.361726 
L 295.47817 217.236168 
L 296.907983 218.811211 
L 298.337796 221.290425 
L 299.767608 226.364268 
L 301.197421 230.953608 
L 302.627234 228.173414 
L 304.057047 225.890602 
L 305.48686 224.924198 
L 306.916673 226.957886 
L 308.346486 230.630693 
L 309.776299 246.332591 
L 311.206112 236.918322 
L 312.635924 228.683129 
L 314.065737 225.932428 
L 315.49555 223.96661 
L 316.925363 223.662529 
L 318.355176 223.78123 
L 319.784989 225.497983 
L 321.214802 228.153314 
L 322.644615 234.453134 
L 324.074428 237.727586 
L 325.50424 231.154681 
L 326.934053 227.172912 
L 328.363866 224.969086 
L 329.793679 224.232364 
L 331.223492 224.001967 
L 332.653305 224.666735 
L 334.083118 225.141725 
L 335.512931 226.181599 
L 336.942744 226.568121 
L 338.372556 227.695957 
L 339.802369 228.135302 
L 341.232182 229.070081 
L 344.091808 227.893425 
L 345.521621 226.712568 
L 346.951434 226.449736 
L 348.381247 226.314846 
L 349.81106 227.30717 
L 351.240872 228.446327 
L 352.670685 230.94555 
L 355.530311 234.990276 
L 356.960124 234.110184 
L 358.389937 232.541114 
L 359.81975 231.750559 
L 361.249563 231.144359 
L 364.109188 232.866467 
L 365.539001 235.459042 
L 366.968814 237.734304 
L 369.82844 246.13423 
L 371.258253 245.417866 
L 372.688066 243.664572 
L 374.117879 240.140931 
L 375.547691 238.077147 
L 376.977504 237.017229 
L 378.407317 236.189206 
L 379.83713 236.739338 
L 381.266943 237.099023 
L 382.696756 239.228536 
L 384.126569 240.799664 
L 385.556382 244.898634 
L 386.986195 246.450385 
L 388.416007 246.790133 
L 389.84582 243.030214 
L 392.705446 237.021399 
L 395.565072 233.471065 
L 398.424698 232.582508 
L 401.284323 234.362809 
L 402.714136 236.750899 
L 404.143949 238.87308 
L 405.573762 242.939295 
L 407.003575 245.573264 
L 408.433388 248.805654 
L 409.863201 248.100688 
L 412.722827 244.494769 
L 414.152639 242.227057 
L 415.582452 240.663456 
L 417.012265 238.716542 
L 418.442078 237.479644 
L 419.871891 235.92967 
L 421.301704 235.130373 
L 422.731517 234.132863 
L 425.591143 233.691789 
L 428.450768 234.885966 
L 429.880581 236.486528 
L 431.310394 237.8412 
L 432.740207 240.483334 
L 434.17002 242.477742 
L 435.599833 246.338663 
L 437.029646 248.734912 
L 438.459459 254.235517 
L 439.889271 253.043176 
L 444.17871 243.755538 
L 447.038336 240.400276 
L 448.468149 239.692423 
L 449.897962 238.737933 
L 451.327775 238.701587 
L 452.757587 238.358251 
L 454.1874 238.940826 
L 455.617213 239.156242 
L 457.047026 240.382149 
L 458.476839 241.119675 
L 459.906652 243.055072 
L 461.336465 244.278125 
L 462.766278 247.159821 
L 464.19609 248.997547 
L 465.625903 254.03575 
L 467.055716 256.891451 
L 468.485529 260.577673 
L 469.915342 255.27163 
L 471.345155 250.864581 
L 472.774968 248.795677 
L 474.204781 246.503434 
L 475.634594 245.811923 
L 477.064406 244.629051 
L 478.494219 244.759938 
L 479.924032 244.263242 
L 481.353845 245.017398 
L 482.783658 244.992041 
L 484.213471 246.285875 
L 485.643284 246.602028 
L 487.073097 248.464569 
L 488.50291 249.094857 
L 489.932722 251.8333 
L 491.362535 252.951455 
L 492.792348 257.773499 
L 494.222161 259.809472 
L 495.651974 267.633038 
L 498.5116 257.101253 
L 499.941413 255.120957 
L 501.371226 252.159075 
L 502.801038 251.640615 
L 504.230851 250.023245 
L 505.660664 250.377251 
L 507.090477 249.556792 
L 508.52029 250.642128 
L 509.950103 250.370603 
L 511.379916 252.185534 
L 512.809729 252.304979 
L 514.239542 254.971455 
L 515.669354 255.320047 
L 517.099167 259.203465 
L 518.52898 259.552768 
L 519.958793 265.843884 
L 521.388606 265.729922 
L 522.818419 272.138645 
L 524.248232 269.402185 
L 525.678045 263.506782 
L 527.107858 262.543993 
L 528.53767 258.416087 
L 529.967483 258.238805 
L 531.397296 255.641099 
L 532.827109 256.088472 
L 534.256922 254.416053 
L 535.686735 255.465331 
L 537.116548 254.452131 
L 538.546361 256.111507 
L 538.546361 256.111507 
" style="fill:none;stroke:#3b528b;stroke-linecap:square;stroke-width:1.5;"/>
   </g>
   <g id="line2d_46">
    <path clip-path="url(#p723eb2d7cf)" d="M 108.172682 115.159439 
L 109.602494 115.402119 
L 111.032307 117.282411 
L 112.46212 117.485199 
L 113.891933 114.810491 
L 115.321746 110.163915 
L 116.751559 103.699741 
L 118.181372 97.952934 
L 119.611185 94.098092 
L 121.040998 92.700137 
L 122.47081 94.02897 
L 123.900623 98.036077 
L 125.330436 104.079773 
L 126.760249 110.952408 
L 128.190062 119.662025 
L 129.619875 131.751931 
L 131.049688 128.352812 
L 132.479501 133.920571 
L 133.909314 135.198505 
L 135.339126 129.483579 
L 136.768939 126.311805 
L 138.198752 124.864518 
L 139.628565 126.580169 
L 141.058378 132.297639 
L 142.488191 142.192146 
L 143.918004 135.274704 
L 145.347817 132.983931 
L 146.77763 134.777915 
L 148.207442 129.894982 
L 149.637255 123.428116 
L 151.067068 120.265617 
L 152.496881 119.647957 
L 153.926694 121.154535 
L 155.356507 124.455545 
L 156.78632 128.289976 
L 158.216133 129.742176 
L 159.645946 129.527125 
L 161.075758 129.857094 
L 162.505571 131.275969 
L 163.935384 133.926065 
L 165.365197 137.733742 
L 166.79501 141.180746 
L 168.224823 140.978838 
L 169.654636 139.148671 
L 171.084449 137.69979 
L 173.944074 135.571348 
L 175.373887 134.652308 
L 176.8037 133.927789 
L 178.233513 133.497929 
L 179.663326 133.440725 
L 181.093139 133.810798 
L 182.522952 134.645585 
L 183.952765 135.959439 
L 185.382577 137.749175 
L 186.81239 140.004203 
L 188.242203 142.732211 
L 189.672016 145.996673 
L 191.101829 149.974298 
L 192.531642 155.041142 
L 193.961455 161.50019 
L 195.391268 164.226391 
L 196.821081 160.917495 
L 198.250893 158.598712 
L 199.680706 157.332427 
L 201.110519 156.604984 
L 202.540332 156.144447 
L 203.970145 155.851781 
L 205.399958 155.749377 
L 206.829771 155.891916 
L 208.259584 156.349964 
L 209.689397 157.168422 
L 211.119209 158.396111 
L 212.549022 160.063889 
L 213.978835 162.220103 
L 215.408648 164.905904 
L 216.838461 168.19664 
L 218.268274 172.186078 
L 219.698087 177.073764 
L 221.1279 183.219941 
L 222.557713 190.5994 
L 223.987525 192.099598 
L 225.417338 188.831658 
L 226.847151 186.797348 
L 228.276964 185.646621 
L 229.706777 185.064765 
L 231.13659 184.879649 
L 232.566403 184.920562 
L 235.426029 185.29317 
L 236.855841 185.662324 
L 238.285654 186.283791 
L 239.715467 187.391858 
L 241.14528 188.992222 
L 242.575093 191.226715 
L 244.004906 193.952647 
L 248.294345 203.896479 
L 249.724157 206.596689 
L 251.15397 208.566576 
L 252.583783 209.109276 
L 254.013596 209.385518 
L 255.443409 209.859977 
L 256.873222 212.237941 
L 258.303035 217.827409 
L 259.732848 222.584556 
L 261.162661 212.076241 
L 262.592473 206.981276 
L 264.022286 204.61039 
L 265.452099 203.644184 
L 266.881912 204.235931 
L 268.311725 206.238167 
L 269.741538 210.635516 
L 271.171351 216.21687 
L 274.030976 207.562774 
L 275.460789 205.498907 
L 276.890602 205.196193 
L 278.320415 206.031794 
L 279.750228 208.317372 
L 281.180041 211.782566 
L 282.609854 216.992963 
L 284.039667 221.608938 
L 285.46948 223.385908 
L 286.899292 227.225792 
L 288.329105 235.189883 
L 289.758918 221.857687 
L 291.188731 216.373901 
L 292.618544 213.232884 
L 294.048357 212.073004 
L 295.47817 211.957256 
L 296.907983 213.353853 
L 298.337796 215.905269 
L 299.767608 220.691393 
L 301.197421 225.088095 
L 302.627234 222.380197 
L 304.057047 219.961061 
L 305.48686 219.210898 
L 306.916673 220.975923 
L 308.346486 224.877645 
L 309.776299 238.269021 
L 312.635924 222.816643 
L 314.065737 219.839061 
L 315.49555 218.082646 
L 316.925363 217.717186 
L 318.355176 218.02959 
L 319.784989 219.689465 
L 321.214802 222.525555 
L 322.644615 228.444007 
L 324.074428 232.218232 
L 325.50424 225.755985 
L 326.934053 221.756791 
L 328.363866 219.632386 
L 329.793679 218.848724 
L 331.223492 218.717942 
L 334.083118 219.894059 
L 335.512931 220.748558 
L 336.942744 221.16204 
L 338.372556 221.922134 
L 339.802369 222.281765 
L 341.232182 222.787974 
L 344.091808 221.756711 
L 345.521621 220.875217 
L 346.951434 220.627714 
L 348.381247 220.67362 
L 349.81106 221.597122 
L 351.240872 222.898202 
L 354.100498 227.494238 
L 355.530311 229.420093 
L 356.960124 228.76335 
L 358.389937 227.28871 
L 359.81975 226.38287 
L 361.249563 225.894492 
L 362.679375 226.537602 
L 364.109188 227.429766 
L 365.539001 229.586786 
L 366.968814 231.950447 
L 368.398627 236.224022 
L 369.82844 242.541429 
L 371.258253 247.804439 
L 372.688066 240.268225 
L 374.117879 235.380176 
L 375.547691 232.634527 
L 376.977504 231.318538 
L 378.407317 230.529272 
L 379.83713 230.870743 
L 381.266943 231.422474 
L 384.126569 235.110466 
L 385.556382 238.656636 
L 386.986195 240.952648 
L 388.416007 241.538865 
L 391.275633 235.247154 
L 392.705446 232.37658 
L 394.135259 230.476498 
L 395.565072 228.893358 
L 396.994885 228.317759 
L 398.424698 228.069143 
L 399.854511 228.866025 
L 401.284323 229.95258 
L 404.143949 234.683032 
L 405.573762 238.594671 
L 407.003575 241.549776 
L 408.433388 243.654118 
L 409.863201 242.576191 
L 411.293014 240.577743 
L 412.722827 238.835637 
L 414.152639 236.832399 
L 415.582452 235.303142 
L 417.012265 233.585768 
L 419.871891 230.962666 
L 422.731517 229.263184 
L 425.591143 228.880564 
L 427.020955 229.438222 
L 428.450768 230.118657 
L 431.310394 233.138959 
L 434.17002 237.963647 
L 435.599833 241.67287 
L 437.029646 244.847268 
L 438.459459 249.985363 
L 439.889271 248.56033 
L 441.319084 244.641969 
L 442.748897 241.343933 
L 444.17871 238.638325 
L 447.038336 235.421166 
L 449.897962 233.840187 
L 452.757587 233.510047 
L 455.617213 234.345328 
L 457.047026 235.426028 
L 458.476839 236.360112 
L 459.906652 238.122365 
L 461.336465 239.635533 
L 462.766278 242.311286 
L 464.19609 244.683733 
L 465.625903 249.52103 
L 467.055716 253.916738 
L 468.485529 256.074866 
L 469.915342 250.231424 
L 471.345155 245.927655 
L 474.204781 241.660816 
L 477.064406 239.854746 
L 478.494219 239.811616 
L 479.924032 239.532993 
L 481.353845 240.087291 
L 482.783658 240.293166 
L 484.213471 241.353589 
L 485.643284 241.947685 
L 487.073097 243.539466 
L 488.50291 244.55326 
L 489.932722 246.971814 
L 491.362535 248.720041 
L 492.792348 253.158006 
L 494.222161 256.797263 
L 495.651974 264.367531 
L 497.081787 257.956259 
L 498.5116 252.363885 
L 501.371226 247.474954 
L 502.801038 246.674352 
L 504.230851 245.422719 
L 505.660664 245.504422 
L 507.090477 245.0355 
L 508.52029 245.823275 
L 509.950103 245.9288 
L 511.379916 247.390831 
L 512.809729 247.959603 
L 514.239542 250.178825 
L 515.669354 251.141149 
L 517.099167 254.431666 
L 518.52898 255.794235 
L 519.958793 261.35478 
L 521.388606 263.323489 
L 522.818419 268.418246 
L 524.248232 264.741005 
L 525.678045 258.7996 
L 527.107858 257.093343 
L 528.53767 253.787349 
L 529.967483 253.091079 
L 531.397296 251.132646 
L 532.827109 251.138564 
L 534.256922 250.017314 
L 535.686735 250.647135 
L 537.116548 250.157794 
L 538.546361 251.400185 
L 538.546361 251.400185 
" style="fill:none;stroke:#21918c;stroke-linecap:square;stroke-width:1.5;"/>
   </g>
   <g id="line2d_47">
    <path clip-path="url(#p723eb2d7cf)" d="M 108.172682 116.121814 
L 109.602494 116.099026 
L 111.032307 117.852002 
L 112.46212 119.20749 
L 113.891933 116.828544 
L 115.321746 111.425416 
L 116.751559 104.402345 
L 118.181372 98.292981 
L 119.611185 94.161492 
L 121.040998 92.489951 
L 122.47081 93.510759 
L 123.900623 97.255354 
L 125.330436 103.267466 
L 126.760249 110.48698 
L 128.190062 119.471184 
L 129.619875 131.437724 
L 131.049688 130.525174 
L 132.479501 134.311194 
L 133.909314 148.756907 
L 135.339126 135.774515 
L 136.768939 132.786961 
L 138.198752 133.335607 
L 139.628565 136.943283 
L 141.058378 145.079935 
L 142.488191 143.46296 
L 143.918004 139.12728 
L 145.347817 139.269777 
L 146.77763 136.59533 
L 148.207442 129.379971 
L 149.637255 124.595606 
L 151.067068 122.124324 
L 152.496881 121.532587 
L 153.926694 122.597378 
L 155.356507 125.188766 
L 158.216133 132.88891 
L 159.645946 134.577407 
L 161.075758 135.135204 
L 162.505571 136.443686 
L 163.935384 139.060009 
L 165.365197 143.398032 
L 166.79501 150.385838 
L 168.224823 152.957291 
L 169.654636 147.390749 
L 171.084449 144.054679 
L 172.514262 141.830499 
L 173.944074 140.071222 
L 175.373887 138.642244 
L 176.8037 137.584475 
L 178.233513 136.943651 
L 179.663326 136.756214 
L 181.093139 137.046313 
L 182.522952 137.835042 
L 183.952765 139.129718 
L 185.382577 140.924561 
L 186.81239 143.197033 
L 188.242203 145.923645 
L 189.672016 149.115894 
L 191.101829 152.911034 
L 192.531642 157.7612 
L 193.961455 165.207486 
L 195.391268 194.503323 
L 196.821081 168.105143 
L 198.250893 163.229303 
L 199.680706 161.010632 
L 201.110519 159.79494 
L 202.540332 159.037879 
L 203.970145 158.542214 
L 205.399958 158.304209 
L 206.829771 158.379848 
L 208.259584 158.846621 
L 209.689397 159.748569 
L 211.119209 161.138947 
L 212.549022 163.056901 
L 213.978835 165.586695 
L 215.408648 168.825632 
L 216.838461 172.953274 
L 219.698087 183.170825 
L 221.1279 184.742361 
L 222.557713 184.194236 
L 223.987525 184.402058 
L 225.417338 185.467105 
L 229.706777 190.327096 
L 231.13659 191.535925 
L 232.566403 191.954481 
L 233.996216 190.876237 
L 235.426029 188.920784 
L 236.855841 187.356935 
L 238.285654 186.496121 
L 239.715467 186.477813 
L 241.14528 187.142354 
L 242.575093 188.451466 
L 244.004906 190.126451 
L 245.434719 192.001451 
L 246.864532 193.675216 
L 248.294345 195.082237 
L 249.724157 196.076986 
L 251.15397 196.900609 
L 252.583783 197.568587 
L 254.013596 198.492028 
L 255.443409 199.855447 
L 256.873222 202.508586 
L 258.303035 207.904428 
L 259.732848 223.425046 
L 261.162661 206.02328 
L 262.592473 200.064393 
L 264.022286 197.168527 
L 265.452099 195.838822 
L 266.881912 195.940218 
L 268.311725 197.424373 
L 269.741538 201.046324 
L 271.171351 209.054452 
L 272.601164 211.164997 
L 274.030976 202.763942 
L 275.460789 199.453807 
L 276.890602 198.44611 
L 278.320415 198.848896 
L 279.750228 200.65743 
L 281.180041 203.824178 
L 282.609854 208.968729 
L 284.039667 215.679268 
L 285.46948 217.77073 
L 286.899292 218.542875 
L 288.329105 224.415937 
L 291.188731 210.237083 
L 292.618544 206.319212 
L 294.048357 204.516193 
L 295.47817 204.044528 
L 296.907983 204.997361 
L 298.337796 207.226404 
L 299.767608 210.936419 
L 301.197421 213.429354 
L 304.057047 209.548305 
L 305.48686 209.052809 
L 306.916673 210.422402 
L 308.346486 213.853507 
L 309.776299 221.921449 
L 311.206112 220.507811 
L 312.635924 213.231851 
L 314.065737 209.956358 
L 315.49555 208.358189 
L 316.925363 208.086193 
L 318.355176 208.763173 
L 319.784989 210.678469 
L 321.214802 214.020918 
L 322.644615 220.379138 
L 324.074428 224.845611 
L 325.50424 217.706151 
L 326.934053 213.81871 
L 328.363866 211.903453 
L 329.793679 211.243001 
L 331.223492 211.363424 
L 335.512931 213.433958 
L 336.942744 213.27398 
L 338.372556 212.865215 
L 339.802369 212.210044 
L 342.661995 211.171403 
L 344.091808 210.865084 
L 345.521621 210.681373 
L 346.951434 210.930088 
L 348.381247 211.521569 
L 349.81106 212.74527 
L 351.240872 214.469298 
L 352.670685 217.006247 
L 354.100498 219.785658 
L 355.530311 221.982077 
L 356.960124 221.652668 
L 358.389937 220.294569 
L 359.81975 219.266621 
L 361.249563 218.637032 
L 362.679375 218.588733 
L 364.109188 218.661246 
L 366.968814 219.751674 
L 369.82844 221.735181 
L 371.258253 222.659222 
L 372.688066 222.57042 
L 374.117879 222.089043 
L 375.547691 221.223584 
L 376.977504 220.838843 
L 378.407317 220.711188 
L 379.83713 221.282832 
L 381.266943 222.204551 
L 382.696756 223.936679 
L 384.126569 226.057522 
L 388.416007 235.468491 
L 389.84582 234.246621 
L 391.275633 231.717 
L 392.705446 229.461568 
L 394.135259 227.941021 
L 395.565072 226.981936 
L 396.994885 226.857701 
L 398.424698 227.312974 
L 399.854511 228.872346 
L 401.284323 231.266284 
L 402.714136 235.92586 
L 404.143949 243.465817 
L 405.573762 244.989618 
L 407.003575 237.844475 
L 408.433388 234.060416 
L 409.863201 232.23089 
L 411.293014 230.764675 
L 417.012265 227.42337 
L 421.301704 225.552476 
L 422.731517 225.125174 
L 424.16133 225.114386 
L 425.591143 225.261171 
L 427.020955 225.951876 
L 428.450768 226.877433 
L 429.880581 228.489921 
L 431.310394 230.3971 
L 432.740207 233.3001 
L 434.17002 236.762846 
L 435.599833 242.866339 
L 437.029646 253.21111 
L 439.889271 240.548209 
L 441.319084 236.62604 
L 442.748897 234.321295 
L 444.17871 232.447027 
L 445.608523 231.288542 
L 447.038336 230.278328 
L 449.897962 229.320331 
L 452.757587 229.37159 
L 455.617213 230.470126 
L 458.476839 232.772933 
L 461.336465 236.63651 
L 462.766278 239.734765 
L 464.19609 243.49033 
L 465.625903 250.892547 
L 467.055716 262.759385 
L 468.485529 248.208614 
L 469.915342 243.653756 
L 471.345155 240.338924 
L 472.774968 238.665531 
L 474.204781 237.18661 
L 477.064406 235.95432 
L 479.924032 235.9386 
L 481.353845 236.473361 
L 482.783658 236.877649 
L 484.213471 237.889709 
L 485.643284 238.754003 
L 488.50291 241.875401 
L 491.362535 247.324918 
L 492.792348 252.302086 
L 494.222161 258.082105 
L 495.651974 254.076124 
L 498.5116 246.746811 
L 499.941413 245.292912 
L 501.371226 243.579668 
L 502.801038 243.172536 
L 504.230851 242.447826 
L 505.660664 242.749889 
L 507.090477 242.68071 
L 508.52029 243.596871 
L 509.950103 244.056143 
L 511.379916 245.616065 
L 512.809729 246.592318 
L 514.239542 249.016147 
L 515.669354 250.6993 
L 517.099167 254.785289 
L 518.52898 258.127315 
L 519.958793 264.630944 
L 521.388606 264.160415 
L 522.818419 256.736867 
L 524.248232 254.84631 
L 525.678045 251.548064 
L 527.107858 250.817431 
L 528.53767 249.025674 
L 529.967483 248.946805 
L 531.397296 247.96293 
L 532.827109 248.434069 
L 534.256922 248.043103 
L 535.686735 249.102799 
L 537.116548 249.243941 
L 538.546361 251.030536 
L 538.546361 251.030536 
" style="fill:none;stroke:#5ec962;stroke-linecap:square;stroke-width:1.5;"/>
   </g>
   <g id="line2d_48">
    <path clip-path="url(#p723eb2d7cf)" d="M 108.172682 117.941668 
L 109.602494 117.826573 
L 112.46212 121.288404 
L 113.891933 118.400388 
L 115.321746 112.059545 
L 116.751559 104.547322 
L 118.181372 98.184262 
L 119.611185 93.899021 
L 121.040998 92.105786 
L 122.47081 92.999454 
L 123.900623 96.602797 
L 125.330436 102.527429 
L 126.760249 109.842865 
L 128.190062 118.846527 
L 129.619875 131.697162 
L 131.049688 132.838702 
L 132.479501 135.197274 
L 133.909314 146.749499 
L 135.339126 146.013667 
L 136.768939 141.046141 
L 138.198752 142.497347 
L 139.628565 147.026895 
L 141.058378 145.808876 
L 142.488191 141.208927 
L 145.347817 134.098643 
L 146.77763 130.048591 
L 148.207442 126.475099 
L 149.637255 123.941555 
L 151.067068 122.625037 
L 152.496881 122.580208 
L 153.926694 123.832774 
L 155.356507 126.413575 
L 156.78632 130.314206 
L 158.216133 135.160432 
L 159.645946 139.114268 
L 161.075758 140.680204 
L 162.505571 141.946498 
L 163.935384 144.304035 
L 165.365197 148.318757 
L 166.79501 155.623267 
L 168.224823 174.802527 
L 169.654636 155.392663 
L 171.084449 150.123558 
L 172.514262 146.867472 
L 173.944074 144.446541 
L 175.373887 142.651645 
L 176.8037 141.437942 
L 178.233513 140.747634 
L 179.663326 140.53719 
L 181.093139 140.788289 
L 182.522952 141.518462 
L 183.952765 142.752454 
L 185.382577 144.504558 
L 186.81239 146.752809 
L 188.242203 149.437619 
L 189.672016 152.48598 
L 191.101829 155.917262 
L 192.531642 159.988767 
L 193.961455 165.41418 
L 195.391268 172.592083 
L 196.821081 170.9461 
L 198.250893 166.454638 
L 199.680706 163.996235 
L 201.110519 162.637999 
L 202.540332 161.844979 
L 203.970145 161.352357 
L 205.399958 161.09827 
L 206.829771 161.132492 
L 208.259584 161.566462 
L 209.689397 162.487953 
L 211.119209 163.99425 
L 212.549022 166.171497 
L 213.978835 169.194306 
L 215.408648 173.376893 
L 216.838461 179.659394 
L 218.268274 192.145609 
L 219.698087 189.472442 
L 221.1279 183.743566 
L 222.557713 182.092352 
L 223.987525 182.186583 
L 225.417338 183.308526 
L 226.847151 185.295999 
L 228.276964 188.047639 
L 229.706777 192.021164 
L 231.13659 198.689681 
L 232.566403 213.328731 
L 233.996216 197.203668 
L 235.426029 191.659094 
L 236.855841 188.785571 
L 238.285654 187.198643 
L 239.715467 186.567264 
L 241.14528 186.583347 
L 242.575093 187.139528 
L 244.004906 187.990291 
L 252.583783 194.381471 
L 254.013596 196.012348 
L 255.443409 198.151778 
L 256.873222 201.45487 
L 258.303035 207.011407 
L 259.732848 215.095954 
L 261.162661 205.880079 
L 262.592473 200.548092 
L 264.022286 197.803883 
L 265.452099 196.466418 
L 266.881912 196.415242 
L 268.311725 197.556311 
L 269.741538 200.398934 
L 271.171351 206.107575 
L 272.601164 227.348166 
L 274.030976 208.464769 
L 275.460789 203.210449 
L 276.890602 201.448111 
L 278.320415 201.347629 
L 279.750228 202.703975 
L 281.180041 205.312164 
L 282.609854 209.579784 
L 284.039667 215.353513 
L 285.46948 220.311842 
L 286.899292 222.843566 
L 288.329105 222.692739 
L 289.758918 215.268469 
L 291.188731 209.935974 
L 292.618544 206.63985 
L 294.048357 205.055376 
L 295.47817 204.648931 
L 296.907983 205.518641 
L 298.337796 207.382133 
L 299.767608 209.815785 
L 301.197421 210.546396 
L 302.627234 209.118215 
L 304.057047 207.904431 
L 305.48686 207.671786 
L 306.916673 208.856696 
L 308.346486 211.572367 
L 309.776299 217.258805 
L 311.206112 224.330093 
L 312.635924 216.618459 
L 314.065737 212.402145 
L 315.49555 210.468423 
L 316.925363 210.154196 
L 318.355176 210.984748 
L 319.784989 213.300415 
L 321.214802 217.570463 
L 322.644615 227.89423 
L 324.074428 226.569626 
L 325.50424 218.169618 
L 326.934053 214.773811 
L 328.363866 213.168526 
L 329.793679 212.725781 
L 331.223492 213.109754 
L 332.653305 214.209608 
L 334.083118 215.634267 
L 335.512931 216.742077 
L 336.942744 216.426781 
L 338.372556 215.225772 
L 339.802369 213.717819 
L 341.232182 212.625398 
L 342.661995 211.797106 
L 344.091808 211.469693 
L 345.521621 211.452815 
L 346.951434 211.970265 
L 348.381247 212.881909 
L 349.81106 214.463636 
L 351.240872 216.575064 
L 354.100498 222.751561 
L 355.530311 224.991428 
L 356.960124 224.358091 
L 358.389937 223.005427 
L 359.81975 222.073032 
L 361.249563 221.359742 
L 362.679375 220.914564 
L 364.109188 220.218812 
L 366.968814 219.143786 
L 369.82844 218.803584 
L 374.117879 219.38864 
L 375.547691 219.628849 
L 378.407317 220.840249 
L 379.83713 221.992564 
L 381.266943 223.353244 
L 382.696756 225.436049 
L 384.126569 227.846489 
L 388.416007 238.1841 
L 389.84582 236.54639 
L 391.275633 233.628634 
L 392.705446 231.744515 
L 394.135259 230.345248 
L 395.565072 229.831539 
L 396.994885 229.674283 
L 398.424698 230.240409 
L 399.854511 230.990035 
L 401.284323 232.25922 
L 404.143949 233.702809 
L 405.573762 233.22216 
L 407.003575 232.982254 
L 408.433388 232.217044 
L 409.863201 232.015679 
L 411.293014 231.558526 
L 412.722827 231.517211 
L 414.152639 231.226888 
L 415.582452 231.182729 
L 417.012265 230.90721 
L 418.442078 230.81802 
L 419.871891 230.574286 
L 422.731517 230.524452 
L 425.591143 231.236838 
L 427.020955 232.131693 
L 428.450768 233.224654 
L 429.880581 234.972661 
L 431.310394 237.081406 
L 432.740207 240.106816 
L 434.17002 243.989421 
L 435.599833 247.54667 
L 437.029646 247.709843 
L 438.459459 243.341005 
L 441.319084 238.509821 
L 444.17871 235.989095 
L 447.038336 234.78204 
L 449.897962 234.45074 
L 452.757587 234.890968 
L 455.617213 236.220537 
L 458.476839 238.684583 
L 461.336465 242.727955 
L 462.766278 245.767148 
L 464.19609 249.407666 
L 465.625903 252.381401 
L 467.055716 252.969033 
L 468.485529 248.736919 
L 469.915342 246.799363 
L 471.345155 244.444599 
L 472.774968 243.532085 
L 474.204781 242.376116 
L 475.634594 242.15582 
L 477.064406 241.671347 
L 478.494219 241.944095 
L 479.924032 241.922192 
L 481.353845 242.619645 
L 482.783658 243.008946 
L 484.213471 244.158147 
L 485.643284 245.013287 
L 487.073097 246.706545 
L 488.50291 248.177022 
L 491.362535 252.599211 
L 494.222161 255.245487 
L 495.651974 253.096702 
L 497.081787 252.810373 
L 498.5116 250.638389 
L 499.941413 250.563928 
L 501.371226 249.286678 
L 502.801038 249.698899 
L 504.230851 249.089588 
L 505.660664 249.989907 
L 507.090477 249.877412 
L 508.52029 251.285214 
L 509.950103 251.601213 
L 511.379916 253.594786 
L 512.809729 254.376087 
L 514.239542 256.988163 
L 515.669354 258.328503 
L 517.099167 260.230892 
L 518.52898 261.300559 
L 519.958793 259.036486 
L 521.388606 259.00578 
L 522.818419 256.092764 
L 524.248232 256.222458 
L 525.678045 254.256169 
L 527.107858 254.827344 
L 528.53767 253.605809 
L 529.967483 254.661592 
L 531.397296 253.975061 
L 532.827109 255.598878 
L 534.256922 255.339009 
L 535.686735 257.762591 
L 537.116548 257.909621 
L 538.546361 261.782705 
L 538.546361 261.782705 
" style="fill:none;stroke:#fde725;stroke-linecap:square;stroke-width:1.5;"/>
   </g>
   <g id="patch_3">
    <path d="M 108.172682 301.67125 
L 108.172682 86.382508 
" style="fill:none;stroke:#000000;stroke-linecap:square;stroke-linejoin:miter;stroke-width:0.8;"/>
   </g>
   <g id="patch_4">
    <path d="M 537.159446 301.67125 
L 537.159446 86.382508 
" style="fill:none;stroke:#000000;stroke-linecap:square;stroke-linejoin:miter;stroke-width:0.8;"/>
   </g>
   <g id="patch_5">
    <path d="M 108.172682 301.67125 
L 537.159446 301.67125 
" style="fill:none;stroke:#000000;stroke-linecap:square;stroke-linejoin:miter;stroke-width:0.8;"/>
   </g>
   <g id="patch_6">
    <path d="M 108.172682 86.382508 
L 537.159446 86.382508 
" style="fill:none;stroke:#000000;stroke-linecap:square;stroke-linejoin:miter;stroke-width:0.8;"/>
   </g>
   <g id="legend_1">
    <g id="patch_7">
     <path d="M 549.759446 261.484692 
L 690.159446 261.484692 
Q 693.759446 261.484692 693.759446 257.884692 
L 693.759446 130.169067 
Q 693.759446 126.569067 690.159446 126.569067 
L 549.759446 126.569067 
Q 546.159446 126.569067 546.159446 130.169067 
L 546.159446 257.884692 
Q 546.159446 261.484692 549.759446 261.484692 
z
" style="fill:#ffffff;opacity:0.8;stroke:#cccccc;stroke-linejoin:miter;"/>
    </g>
    <g id="line2d_49">
     <path d="M 553.359446 140.772192 
L 589.359446 140.772192 
" style="fill:none;stroke:#440154;stroke-linecap:square;stroke-width:1.5;"/>
    </g>
    <g id="line2d_50"/>
    <g id="text_11">
     <!-- $T_2 = $$\infty$ -->
     <g transform="translate(603.759446 147.072192)scale(0.18 -0.18)">
      <defs>
       <path d="M 378 4666 
L 4325 4666 
L 4225 4134 
L 2559 4134 
L 1759 0 
L 1125 0 
L 1925 4134 
L 275 4134 
L 378 4666 
z
" id="DejaVuSans-Oblique-54" transform="scale(0.015625)"/>
       <path d="M 769 253 
L 3431 253 
L 3431 0 
L 444 0 
L 444 328 
L 1606 1538 
Q 2038 1975 2388 2347 
Q 2713 2694 2822 2884 
Q 2931 3075 2931 3388 
Q 2931 3928 2600 4256 
Q 2359 4494 1825 4494 
Q 1513 4494 1106 4313 
Q 928 4231 500 3953 
L 500 4284 
Q 681 4413 1031 4569 
Q 1428 4747 1819 4750 
Q 2422 4750 2828 4441 
Q 3225 4131 3225 3419 
Q 3225 3131 3119 2875 
Q 2994 2575 2725 2266 
Q 2647 2175 2228 1744 
L 769 253 
z
" id="DejaVuSans-ExtraLight-32" transform="scale(0.015625)"/>
       <path d="M 5466 1421 
Q 5466 902 5114 451 
Q 4762 0 4198 0 
Q 3827 0 3529 227 
Q 3232 454 2912 928 
Q 2451 0 1574 0 
Q 1120 0 784 329 
Q 448 659 448 1280 
Q 448 1613 541 1881 
Q 634 2150 771 2307 
Q 909 2464 1081 2569 
Q 1254 2675 1398 2713 
Q 1542 2752 1670 2752 
Q 2054 2752 2345 2569 
Q 2637 2387 3066 1811 
Q 3328 2285 3593 2518 
Q 3859 2752 4301 2752 
Q 4768 2752 5117 2390 
Q 5466 2029 5466 1421 
z
M 3194 1568 
L 3194 1549 
Q 3565 941 3846 659 
Q 4128 378 4442 378 
Q 4710 378 4896 605 
Q 5082 832 5082 1139 
Q 5082 1594 4842 1904 
Q 4602 2214 4192 2214 
Q 3994 2214 3830 2160 
Q 3667 2106 3539 1984 
Q 3411 1862 3353 1792 
Q 3296 1722 3194 1568 
z
M 2771 1158 
L 2771 1178 
Q 2406 1779 2096 2076 
Q 1786 2374 1472 2374 
Q 1203 2374 1017 2147 
Q 832 1920 832 1613 
Q 832 1178 1075 858 
Q 1318 538 1722 538 
Q 1920 538 2093 595 
Q 2266 653 2400 765 
Q 2534 877 2608 957 
Q 2682 1037 2771 1158 
z
" id="STIXGeneral-Regular-221e" transform="scale(0.015625)"/>
      </defs>
      <use transform="translate(0 0.09375)" xlink:href="#DejaVuSans-Oblique-54"/>
      <use transform="translate(61.083984 -16.3125)scale(0.7)" xlink:href="#DejaVuSans-ExtraLight-32"/>
      <use transform="translate(127.836914 0.09375)" xlink:href="#DejaVuSans-ExtraLight-3d"/>
      <use transform="translate(231.108398 0.09375)" xlink:href="#STIXGeneral-Regular-221e"/>
     </g>
    </g>
    <g id="line2d_51">
     <path d="M 553.359446 166.675317 
L 589.359446 166.675317 
" style="fill:none;stroke:#3b528b;stroke-linecap:square;stroke-width:1.5;"/>
    </g>
    <g id="line2d_52"/>
    <g id="text_12">
     <!-- $T_2 = $10$T_0$ -->
     <g transform="translate(603.759446 172.975317)scale(0.18 -0.18)">
      <use transform="translate(0 0.09375)" xlink:href="#DejaVuSans-Oblique-54"/>
      <use transform="translate(61.083984 -16.3125)scale(0.7)" xlink:href="#DejaVuSans-ExtraLight-32"/>
      <use transform="translate(127.836914 0.09375)" xlink:href="#DejaVuSans-ExtraLight-3d"/>
      <use transform="translate(231.108398 0.09375)" xlink:href="#FiraSans-UltraLight-31"/>
      <use transform="translate(270.908386 0.09375)" xlink:href="#FiraSans-UltraLight-30"/>
      <use transform="translate(325.30838 0.09375)" xlink:href="#DejaVuSans-Oblique-54"/>
      <use transform="translate(386.392365 -16.3125)scale(0.7)" xlink:href="#DejaVuSans-ExtraLight-30"/>
     </g>
    </g>
    <g id="line2d_53">
     <path d="M 553.359446 192.578442 
L 589.359446 192.578442 
" style="fill:none;stroke:#21918c;stroke-linecap:square;stroke-width:1.5;"/>
    </g>
    <g id="line2d_54"/>
    <g id="text_13">
     <!-- $T_2 = $5$T_0$ -->
     <g transform="translate(603.759446 198.878442)scale(0.18 -0.18)">
      <defs>
       <path d="M 2528 4045 
L 762 4045 
L 762 2445 
Q 1101 2675 1517 2675 
Q 2067 2675 2384 2323 
Q 2701 1971 2701 1370 
Q 2701 954 2544 627 
Q 2387 301 2092 118 
Q 1798 -64 1408 -64 
Q 717 -64 250 422 
L 403 563 
Q 614 346 851 240 
Q 1088 134 1414 134 
Q 1901 134 2185 470 
Q 2470 806 2470 1370 
Q 2470 1914 2208 2195 
Q 1946 2477 1498 2477 
Q 1267 2477 1097 2422 
Q 928 2368 717 2240 
L 544 2240 
L 544 4237 
L 2566 4237 
L 2528 4045 
z
" id="FiraSans-UltraLight-35" transform="scale(0.015625)"/>
      </defs>
      <use transform="translate(0 0.09375)" xlink:href="#DejaVuSans-Oblique-54"/>
      <use transform="translate(61.083984 -16.3125)scale(0.7)" xlink:href="#DejaVuSans-ExtraLight-32"/>
      <use transform="translate(127.836914 0.09375)" xlink:href="#DejaVuSans-ExtraLight-3d"/>
      <use transform="translate(231.108398 0.09375)" xlink:href="#FiraSans-UltraLight-35"/>
      <use transform="translate(278.808395 0.09375)" xlink:href="#DejaVuSans-Oblique-54"/>
      <use transform="translate(339.89238 -16.3125)scale(0.7)" xlink:href="#DejaVuSans-ExtraLight-30"/>
     </g>
    </g>
    <g id="line2d_55">
     <path d="M 553.359446 218.481567 
L 589.359446 218.481567 
" style="fill:none;stroke:#5ec962;stroke-linecap:square;stroke-width:1.5;"/>
    </g>
    <g id="line2d_56"/>
    <g id="text_14">
     <!-- $T_2 = $1$T_0$ -->
     <g transform="translate(603.759446 224.781567)scale(0.18 -0.18)">
      <use transform="translate(0 0.09375)" xlink:href="#DejaVuSans-Oblique-54"/>
      <use transform="translate(61.083984 -16.3125)scale(0.7)" xlink:href="#DejaVuSans-ExtraLight-32"/>
      <use transform="translate(127.836914 0.09375)" xlink:href="#DejaVuSans-ExtraLight-3d"/>
      <use transform="translate(231.108398 0.09375)" xlink:href="#FiraSans-UltraLight-31"/>
      <use transform="translate(270.908386 0.09375)" xlink:href="#DejaVuSans-Oblique-54"/>
      <use transform="translate(331.992371 -16.3125)scale(0.7)" xlink:href="#DejaVuSans-ExtraLight-30"/>
     </g>
    </g>
    <g id="line2d_57">
     <path d="M 553.359446 244.384692 
L 589.359446 244.384692 
" style="fill:none;stroke:#fde725;stroke-linecap:square;stroke-width:1.5;"/>
    </g>
    <g id="line2d_58"/>
    <g id="text_15">
     <!-- $T_2 = $0.5$T_0$ -->
     <g transform="translate(603.759446 250.684692)scale(0.18 -0.18)">
      <defs>
       <path d="M 589 346 
Q 685 346 739 288 
Q 794 230 794 141 
Q 794 51 739 -6 
Q 685 -64 589 -64 
Q 499 -64 438 -6 
Q 378 51 378 141 
Q 378 230 438 288 
Q 499 346 589 346 
z
" id="FiraSans-UltraLight-2e" transform="scale(0.015625)"/>
      </defs>
      <use transform="translate(0 0.09375)" xlink:href="#DejaVuSans-Oblique-54"/>
      <use transform="translate(61.083984 -16.3125)scale(0.7)" xlink:href="#DejaVuSans-ExtraLight-32"/>
      <use transform="translate(127.836914 0.09375)" xlink:href="#DejaVuSans-ExtraLight-3d"/>
      <use transform="translate(231.108398 0.09375)" xlink:href="#FiraSans-UltraLight-30"/>
      <use transform="translate(285.508392 0.09375)" xlink:href="#FiraSans-UltraLight-2e"/>
      <use transform="translate(303.908386 0.09375)" xlink:href="#FiraSans-UltraLight-35"/>
      <use transform="translate(351.608383 0.09375)" xlink:href="#DejaVuSans-Oblique-54"/>
      <use transform="translate(412.692368 -16.3125)scale(0.7)" xlink:href="#DejaVuSans-ExtraLight-30"/>
     </g>
    </g>
   </g>
  </g>
  <g id="text_16">
   <!-- Influence of dephasing: $T_2$-sweep -->
   <g transform="translate(139.968 54.144)scale(0.288 -0.288)">
    <defs>
     <path d="M 1754 4326 
Q 1485 4326 1369 4208 
Q 1254 4090 1254 3840 
L 1254 3373 
L 2074 3373 
L 2010 2918 
L 1254 2918 
L 1254 0 
L 666 0 
L 666 2918 
L 64 2918 
L 64 3373 
L 666 3373 
L 666 3834 
Q 666 4269 944 4534 
Q 1222 4800 1722 4800 
Q 1952 4800 2134 4758 
Q 2317 4717 2528 4627 
L 2342 4198 
Q 2054 4326 1754 4326 
z
" id="FiraSans-Regular-66" transform="scale(0.015625)"/>
     <path d="M 1280 -77 
Q 954 -77 765 118 
Q 576 314 576 666 
L 576 4730 
L 1165 4800 
L 1165 678 
Q 1165 538 1213 474 
Q 1261 410 1376 410 
Q 1498 410 1594 448 
L 1747 38 
Q 1536 -77 1280 -77 
z
" id="FiraSans-Regular-6c" transform="scale(0.015625)"/>
     <path d="M 3117 0 
L 2611 0 
L 2566 525 
Q 2374 211 2124 67 
Q 1875 -77 1517 -77 
Q 1075 -77 825 192 
Q 576 461 576 954 
L 576 3373 
L 1165 3373 
L 1165 1018 
Q 1165 672 1286 528 
Q 1408 384 1683 384 
Q 2176 384 2528 966 
L 2528 3373 
L 3117 3373 
L 3117 0 
z
" id="FiraSans-Regular-75" transform="scale(0.015625)"/>
     <path d="M 2157 3450 
Q 2803 3450 3104 2989 
Q 3405 2528 3405 1690 
Q 3405 896 3059 409 
Q 2714 -77 2080 -77 
Q 1517 -77 1197 307 
L 1197 -1293 
L 608 -1363 
L 608 3373 
L 1114 3373 
L 1158 2918 
Q 1344 3174 1606 3312 
Q 1869 3450 2157 3450 
z
M 1939 403 
Q 2771 403 2771 1690 
Q 2771 2982 2010 2982 
Q 1760 2982 1555 2835 
Q 1350 2688 1197 2458 
L 1197 813 
Q 1325 614 1517 508 
Q 1709 403 1939 403 
z
" id="FiraSans-Regular-70" transform="scale(0.015625)"/>
     <path d="M 2195 3450 
Q 2656 3450 2915 3174 
Q 3174 2899 3174 2419 
L 3174 0 
L 2586 0 
L 2586 2336 
Q 2586 2694 2448 2841 
Q 2310 2989 2048 2989 
Q 1786 2989 1581 2835 
Q 1376 2682 1197 2400 
L 1197 0 
L 608 0 
L 608 4723 
L 1197 4787 
L 1197 2906 
Q 1594 3450 2195 3450 
z
" id="FiraSans-Regular-68" transform="scale(0.015625)"/>
     <path d="M 3328 3219 
Q 3136 3155 2905 3136 
Q 2675 3117 2342 3117 
Q 2938 2848 2938 2266 
Q 2938 1760 2592 1440 
Q 2246 1120 1651 1120 
Q 1421 1120 1222 1184 
Q 1146 1133 1101 1046 
Q 1056 960 1056 870 
Q 1056 595 1498 595 
L 2035 595 
Q 2374 595 2636 473 
Q 2899 352 3043 141 
Q 3187 -70 3187 -339 
Q 3187 -832 2784 -1097 
Q 2381 -1363 1606 -1363 
Q 1062 -1363 745 -1251 
Q 429 -1139 294 -915 
Q 160 -691 160 -339 
L 691 -339 
Q 691 -544 768 -662 
Q 845 -781 1043 -841 
Q 1242 -902 1606 -902 
Q 2138 -902 2365 -771 
Q 2592 -640 2592 -378 
Q 2592 -141 2413 -19 
Q 2234 102 1914 102 
L 1382 102 
Q 954 102 733 284 
Q 512 467 512 742 
Q 512 909 608 1062 
Q 704 1216 883 1338 
Q 589 1491 451 1718 
Q 314 1946 314 2272 
Q 314 2611 483 2880 
Q 653 3149 950 3299 
Q 1248 3450 1613 3450 
Q 2010 3443 2278 3478 
Q 2547 3514 2723 3574 
Q 2899 3635 3155 3750 
L 3328 3219 
z
M 1613 3027 
Q 1280 3027 1097 2819 
Q 915 2611 915 2272 
Q 915 1926 1100 1718 
Q 1286 1510 1626 1510 
Q 1971 1510 2153 1712 
Q 2336 1914 2336 2278 
Q 2336 3027 1613 3027 
z
" id="FiraSans-Regular-67" transform="scale(0.015625)"/>
     <path d="M 762 813 
Q 954 813 1082 685 
Q 1210 557 1210 371 
Q 1210 186 1082 54 
Q 954 -77 762 -77 
Q 576 -77 448 54 
Q 320 186 320 371 
Q 320 557 448 685 
Q 576 813 762 813 
z
M 762 3168 
Q 954 3168 1082 3040 
Q 1210 2912 1210 2726 
Q 1210 2541 1082 2409 
Q 954 2278 762 2278 
Q 576 2278 448 2409 
Q 320 2541 320 2726 
Q 320 2912 448 3040 
Q 576 3168 762 3168 
z
" id="FiraSans-Regular-3a" transform="scale(0.015625)"/>
     <path d="M 384 1754 
L 384 2253 
L 2195 2253 
L 2195 1754 
L 384 1754 
z
" id="FiraSans-Regular-2d" transform="scale(0.015625)"/>
     <path d="M 4461 3373 
L 3693 0 
L 2893 0 
L 2304 2842 
L 1696 0 
L 915 0 
L 128 3373 
L 717 3373 
L 1325 410 
L 1990 3373 
L 2650 3373 
L 3283 410 
L 3898 3373 
L 4461 3373 
z
" id="FiraSans-Regular-77" transform="scale(0.015625)"/>
    </defs>
    <use xlink:href="#FiraSans-Regular-49"/>
    <use transform="translate(29.499985 0)" xlink:href="#FiraSans-Regular-6e"/>
    <use transform="translate(88.099976 0)" xlink:href="#FiraSans-Regular-66"/>
    <use transform="translate(121.59996 0)" xlink:href="#FiraSans-Regular-6c"/>
    <use transform="translate(150.899948 0)" xlink:href="#FiraSans-Regular-75"/>
    <use transform="translate(209.099945 0)" xlink:href="#FiraSans-Regular-65"/>
    <use transform="translate(263.59993 0)" xlink:href="#FiraSans-Regular-6e"/>
    <use transform="translate(322.199921 0)" xlink:href="#FiraSans-Regular-63"/>
    <use transform="translate(369.999908 0)" xlink:href="#FiraSans-Regular-65"/>
    <use transform="translate(424.499893 0)" xlink:href="#FiraSans-Regular-20"/>
    <use transform="translate(450.999878 0)" xlink:href="#FiraSans-Regular-6f"/>
    <use transform="translate(509.399872 0)" xlink:href="#FiraSans-Regular-66"/>
    <use transform="translate(542.899857 0)" xlink:href="#FiraSans-Regular-20"/>
    <use transform="translate(569.399841 0)" xlink:href="#FiraSans-Regular-64"/>
    <use transform="translate(629.199829 0)" xlink:href="#FiraSans-Regular-65"/>
    <use transform="translate(683.699814 0)" xlink:href="#FiraSans-Regular-70"/>
    <use transform="translate(743.099808 0)" xlink:href="#FiraSans-Regular-68"/>
    <use transform="translate(801.699799 0)" xlink:href="#FiraSans-Regular-61"/>
    <use transform="translate(856.099792 0)" xlink:href="#FiraSans-Regular-73"/>
    <use transform="translate(902.799789 0)" xlink:href="#FiraSans-Regular-69"/>
    <use transform="translate(930.999786 0)" xlink:href="#FiraSans-Regular-6e"/>
    <use transform="translate(989.599777 0)" xlink:href="#FiraSans-Regular-67"/>
    <use transform="translate(1041.599762 0)" xlink:href="#FiraSans-Regular-3a"/>
    <use transform="translate(1065.599747 0)" xlink:href="#FiraSans-Regular-20"/>
    <use transform="translate(1092.099731 0)" xlink:href="#DejaVuSans-Oblique-54"/>
    <use transform="translate(1153.183716 -16.40625)scale(0.7)" xlink:href="#DejaVuSans-ExtraLight-32"/>
    <use transform="translate(1200.454224 0)" xlink:href="#FiraSans-Regular-2d"/>
    <use transform="translate(1240.754211 0)" xlink:href="#FiraSans-Regular-73"/>
    <use transform="translate(1287.454208 0)" xlink:href="#FiraSans-Regular-77"/>
    <use transform="translate(1359.15419 0)" xlink:href="#FiraSans-Regular-65"/>
    <use transform="translate(1413.654175 0)" xlink:href="#FiraSans-Regular-65"/>
    <use transform="translate(1468.15416 0)" xlink:href="#FiraSans-Regular-70"/>
   </g>
  </g>
 </g>
 <defs>
  <clipPath id="p723eb2d7cf">
   <rect height="215.288742" width="428.986765" x="108.172682" y="86.382508"/>
  </clipPath>
 </defs>
</svg>
