<?xml version="1.0" encoding="utf-8" standalone="no"?>
<!DOCTYPE svg PUBLIC "-//W3C//DTD SVG 1.1//EN"
  "http://www.w3.org/Graphics/SVG/1.1/DTD/svg11.dtd">
<svg height="345.6pt" version="1.1" viewBox="0 0 388.8 345.6" width="388.8pt" xmlns="http://www.w3.org/2000/svg" xmlns:xlink="http://www.w3.org/1999/xlink">
 <metadata>
  <rdf:RDF xmlns:cc="http://creativecommons.org/ns#" xmlns:dc="http://purl.org/dc/elements/1.1/" xmlns:rdf="http://www.w3.org/1999/02/22-rdf-syntax-ns#">
   <cc:Work>
    <dc:type rdf:resource="http://purl.org/dc/dcmitype/StillImage"/>
    <dc:date>2024-03-15T14:08:06.560316</dc:date>
    <dc:format>image/svg+xml</dc:format>
    <dc:creator>
     <cc:Agent>
      <dc:title>Matplotlib v3.4.3, https://matplotlib.org/</dc:title>
     </cc:Agent>
    </dc:creator>
   </cc:Work>
  </rdf:RDF>
 </metadata>
 <defs>
  <style type="text/css">*{stroke-linecap:butt;stroke-linejoin:round;}</style>
 </defs>
 <g id="figure_1">
  <g id="patch_1">
   <path d="M 0 345.6 
L 388.8 345.6 
L 388.8 0 
L 0 0 
z
" style="fill:none;"/>
  </g>
  <g id="axes_1">
   <g id="patch_2">
    <path d="M 56.725131 276.72375 
L 363.395 276.72375 
L 363.395 25.020625 
L 56.725131 25.020625 
z
" style="fill:none;"/>
   </g>
   <g id="matplotlib.axis_1">
    <g id="xtick_1">
     <g id="line2d_1">
      <path clip-path="url(#p9bf3338418)" d="M 56.725131 276.72375 
L 56.725131 25.020625 
" style="fill:none;stroke:#555555;stroke-linecap:square;"/>
     </g>
     <g id="line2d_2">
      <defs>
       <path d="M 0 0 
L 0 3.5 
" id="m757813f26e" style="stroke:#000000;stroke-width:0.8;"/>
      </defs>
      <g>
       <use style="stroke:#000000;stroke-width:0.8;" x="56.725131" xlink:href="#m757813f26e" y="276.72375"/>
      </g>
     </g>
     <g id="text_1">
      <!-- 5 -->
      <g transform="translate(52.908881 295.54875)scale(0.16 -0.16)">
       <defs>
        <path d="M 2528 4045 
L 762 4045 
L 762 2445 
Q 1101 2675 1517 2675 
Q 2067 2675 2384 2323 
Q 2701 1971 2701 1370 
Q 2701 954 2544 627 
Q 2387 301 2092 118 
Q 1798 -64 1408 -64 
Q 717 -64 250 422 
L 403 563 
Q 614 346 851 240 
Q 1088 134 1414 134 
Q 1901 134 2185 470 
Q 2470 806 2470 1370 
Q 2470 1914 2208 2195 
Q 1946 2477 1498 2477 
Q 1267 2477 1097 2422 
Q 928 2368 717 2240 
L 544 2240 
L 544 4237 
L 2566 4237 
L 2528 4045 
z
" id="FiraSans-UltraLight-35" transform="scale(0.015625)"/>
       </defs>
       <use xlink:href="#FiraSans-UltraLight-35"/>
      </g>
     </g>
    </g>
    <g id="xtick_2">
     <g id="line2d_3">
      <path clip-path="url(#p9bf3338418)" d="M 118.059105 276.72375 
L 118.059105 25.020625 
" style="fill:none;stroke:#555555;stroke-linecap:square;"/>
     </g>
     <g id="line2d_4">
      <g>
       <use style="stroke:#000000;stroke-width:0.8;" x="118.059105" xlink:href="#m757813f26e" y="276.72375"/>
      </g>
     </g>
     <g id="text_2">
      <!-- 10 -->
      <g transform="translate(110.522855 295.54875)scale(0.16 -0.16)">
       <defs>
        <path d="M 1728 0 
L 1510 0 
L 1510 3981 
L 422 3296 
L 314 3469 
L 1549 4237 
L 1728 4237 
L 1728 0 
z
" id="FiraSans-UltraLight-31" transform="scale(0.015625)"/>
        <path d="M 1741 4314 
Q 2362 4314 2685 3760 
Q 3008 3206 3008 2112 
Q 3008 1037 2681 486 
Q 2355 -64 1741 -64 
Q 1126 -64 800 489 
Q 474 1043 474 2125 
Q 474 3206 800 3760 
Q 1126 4314 1741 4314 
z
M 1741 4115 
Q 1235 4115 966 3619 
Q 698 3123 698 2125 
Q 698 1133 966 633 
Q 1235 134 1741 134 
Q 2253 134 2518 627 
Q 2784 1120 2784 2112 
Q 2784 3117 2518 3616 
Q 2253 4115 1741 4115 
z
" id="FiraSans-UltraLight-30" transform="scale(0.015625)"/>
       </defs>
       <use xlink:href="#FiraSans-UltraLight-31"/>
       <use x="39.799988" xlink:href="#FiraSans-UltraLight-30"/>
      </g>
     </g>
    </g>
    <g id="xtick_3">
     <g id="line2d_5">
      <path clip-path="url(#p9bf3338418)" d="M 179.393079 276.72375 
L 179.393079 25.020625 
" style="fill:none;stroke:#555555;stroke-linecap:square;"/>
     </g>
     <g id="line2d_6">
      <g>
       <use style="stroke:#000000;stroke-width:0.8;" x="179.393079" xlink:href="#m757813f26e" y="276.72375"/>
      </g>
     </g>
     <g id="text_3">
      <!-- 15 -->
      <g transform="translate(172.393079 295.54875)scale(0.16 -0.16)">
       <use xlink:href="#FiraSans-UltraLight-31"/>
       <use x="39.799988" xlink:href="#FiraSans-UltraLight-35"/>
      </g>
     </g>
    </g>
    <g id="xtick_4">
     <g id="line2d_7">
      <path clip-path="url(#p9bf3338418)" d="M 240.727052 276.72375 
L 240.727052 25.020625 
" style="fill:none;stroke:#555555;stroke-linecap:square;"/>
     </g>
     <g id="line2d_8">
      <g>
       <use style="stroke:#000000;stroke-width:0.8;" x="240.727052" xlink:href="#m757813f26e" y="276.72375"/>
      </g>
     </g>
     <g id="text_4">
      <!-- 20 -->
      <g transform="translate(232.638302 295.54875)scale(0.16 -0.16)">
       <defs>
        <path d="M 1421 4314 
Q 1926 4314 2220 4013 
Q 2515 3712 2515 3232 
Q 2515 2797 2345 2425 
Q 2176 2054 1808 1609 
Q 1440 1165 563 211 
L 2637 211 
L 2598 0 
L 294 0 
L 294 205 
Q 1190 1184 1580 1654 
Q 1971 2125 2131 2470 
Q 2291 2816 2291 3213 
Q 2291 3629 2054 3872 
Q 1818 4115 1414 4115 
Q 813 4115 416 3622 
L 250 3738 
Q 499 4032 780 4173 
Q 1062 4314 1421 4314 
z
" id="FiraSans-UltraLight-32" transform="scale(0.015625)"/>
       </defs>
       <use xlink:href="#FiraSans-UltraLight-32"/>
       <use x="46.699997" xlink:href="#FiraSans-UltraLight-30"/>
      </g>
     </g>
    </g>
    <g id="xtick_5">
     <g id="line2d_9">
      <path clip-path="url(#p9bf3338418)" d="M 302.061026 276.72375 
L 302.061026 25.020625 
" style="fill:none;stroke:#555555;stroke-linecap:square;"/>
     </g>
     <g id="line2d_10">
      <g>
       <use style="stroke:#000000;stroke-width:0.8;" x="302.061026" xlink:href="#m757813f26e" y="276.72375"/>
      </g>
     </g>
     <g id="text_5">
      <!-- 25 -->
      <g transform="translate(294.508526 295.54875)scale(0.16 -0.16)">
       <use xlink:href="#FiraSans-UltraLight-32"/>
       <use x="46.699997" xlink:href="#FiraSans-UltraLight-35"/>
      </g>
     </g>
    </g>
    <g id="xtick_6">
     <g id="line2d_11">
      <path clip-path="url(#p9bf3338418)" d="M 363.395 276.72375 
L 363.395 25.020625 
" style="fill:none;stroke:#555555;stroke-linecap:square;"/>
     </g>
     <g id="line2d_12">
      <g>
       <use style="stroke:#000000;stroke-width:0.8;" x="363.395" xlink:href="#m757813f26e" y="276.72375"/>
      </g>
     </g>
     <g id="text_6">
      <!-- 30 -->
      <g transform="translate(355.22625 295.54875)scale(0.16 -0.16)">
       <defs>
        <path d="M 1395 4314 
Q 1901 4314 2201 4022 
Q 2502 3731 2502 3270 
Q 2502 2835 2262 2572 
Q 2022 2310 1645 2259 
Q 2061 2253 2336 1965 
Q 2611 1677 2611 1178 
Q 2611 621 2262 278 
Q 1914 -64 1331 -64 
Q 960 -64 675 67 
Q 390 198 154 467 
L 307 595 
Q 531 346 771 240 
Q 1011 134 1318 134 
Q 1824 134 2105 419 
Q 2387 704 2387 1171 
Q 2387 1664 2112 1907 
Q 1837 2150 1357 2150 
L 1101 2150 
L 1133 2342 
L 1338 2342 
Q 1722 2342 2000 2576 
Q 2278 2810 2278 3264 
Q 2278 3654 2035 3884 
Q 1792 4115 1382 4115 
Q 1101 4115 867 4019 
Q 634 3923 397 3706 
L 269 3846 
Q 512 4083 781 4198 
Q 1050 4314 1395 4314 
z
" id="FiraSans-UltraLight-33" transform="scale(0.015625)"/>
       </defs>
       <use xlink:href="#FiraSans-UltraLight-33"/>
       <use x="47.699997" xlink:href="#FiraSans-UltraLight-30"/>
      </g>
     </g>
    </g>
    <g id="xtick_7">
     <g id="line2d_13">
      <path clip-path="url(#p9bf3338418)" d="M 68.991926 276.72375 
L 68.991926 25.020625 
" style="fill:none;stroke:#555555;stroke-dasharray:0.8,1.32;stroke-dashoffset:0;stroke-width:0.8;"/>
     </g>
     <g id="line2d_14">
      <defs>
       <path d="M 0 0 
L 0 2 
" id="mb4db383e6d" style="stroke:#000000;stroke-width:0.6;"/>
      </defs>
      <g>
       <use style="stroke:#000000;stroke-width:0.6;" x="68.991926" xlink:href="#mb4db383e6d" y="276.72375"/>
      </g>
     </g>
    </g>
    <g id="xtick_8">
     <g id="line2d_15">
      <path clip-path="url(#p9bf3338418)" d="M 81.258721 276.72375 
L 81.258721 25.020625 
" style="fill:none;stroke:#555555;stroke-dasharray:0.8,1.32;stroke-dashoffset:0;stroke-width:0.8;"/>
     </g>
     <g id="line2d_16">
      <g>
       <use style="stroke:#000000;stroke-width:0.6;" x="81.258721" xlink:href="#mb4db383e6d" y="276.72375"/>
      </g>
     </g>
    </g>
    <g id="xtick_9">
     <g id="line2d_17">
      <path clip-path="url(#p9bf3338418)" d="M 93.525515 276.72375 
L 93.525515 25.020625 
" style="fill:none;stroke:#555555;stroke-dasharray:0.8,1.32;stroke-dashoffset:0;stroke-width:0.8;"/>
     </g>
     <g id="line2d_18">
      <g>
       <use style="stroke:#000000;stroke-width:0.6;" x="93.525515" xlink:href="#mb4db383e6d" y="276.72375"/>
      </g>
     </g>
    </g>
    <g id="xtick_10">
     <g id="line2d_19">
      <path clip-path="url(#p9bf3338418)" d="M 105.79231 276.72375 
L 105.79231 25.020625 
" style="fill:none;stroke:#555555;stroke-dasharray:0.8,1.32;stroke-dashoffset:0;stroke-width:0.8;"/>
     </g>
     <g id="line2d_20">
      <g>
       <use style="stroke:#000000;stroke-width:0.6;" x="105.79231" xlink:href="#mb4db383e6d" y="276.72375"/>
      </g>
     </g>
    </g>
    <g id="xtick_11">
     <g id="line2d_21">
      <path clip-path="url(#p9bf3338418)" d="M 130.3259 276.72375 
L 130.3259 25.020625 
" style="fill:none;stroke:#555555;stroke-dasharray:0.8,1.32;stroke-dashoffset:0;stroke-width:0.8;"/>
     </g>
     <g id="line2d_22">
      <g>
       <use style="stroke:#000000;stroke-width:0.6;" x="130.3259" xlink:href="#mb4db383e6d" y="276.72375"/>
      </g>
     </g>
    </g>
    <g id="xtick_12">
     <g id="line2d_23">
      <path clip-path="url(#p9bf3338418)" d="M 142.592694 276.72375 
L 142.592694 25.020625 
" style="fill:none;stroke:#555555;stroke-dasharray:0.8,1.32;stroke-dashoffset:0;stroke-width:0.8;"/>
     </g>
     <g id="line2d_24">
      <g>
       <use style="stroke:#000000;stroke-width:0.6;" x="142.592694" xlink:href="#mb4db383e6d" y="276.72375"/>
      </g>
     </g>
    </g>
    <g id="xtick_13">
     <g id="line2d_25">
      <path clip-path="url(#p9bf3338418)" d="M 154.859489 276.72375 
L 154.859489 25.020625 
" style="fill:none;stroke:#555555;stroke-dasharray:0.8,1.32;stroke-dashoffset:0;stroke-width:0.8;"/>
     </g>
     <g id="line2d_26">
      <g>
       <use style="stroke:#000000;stroke-width:0.6;" x="154.859489" xlink:href="#mb4db383e6d" y="276.72375"/>
      </g>
     </g>
    </g>
    <g id="xtick_14">
     <g id="line2d_27">
      <path clip-path="url(#p9bf3338418)" d="M 167.126284 276.72375 
L 167.126284 25.020625 
" style="fill:none;stroke:#555555;stroke-dasharray:0.8,1.32;stroke-dashoffset:0;stroke-width:0.8;"/>
     </g>
     <g id="line2d_28">
      <g>
       <use style="stroke:#000000;stroke-width:0.6;" x="167.126284" xlink:href="#mb4db383e6d" y="276.72375"/>
      </g>
     </g>
    </g>
    <g id="xtick_15">
     <g id="line2d_29">
      <path clip-path="url(#p9bf3338418)" d="M 191.659873 276.72375 
L 191.659873 25.020625 
" style="fill:none;stroke:#555555;stroke-dasharray:0.8,1.32;stroke-dashoffset:0;stroke-width:0.8;"/>
     </g>
     <g id="line2d_30">
      <g>
       <use style="stroke:#000000;stroke-width:0.6;" x="191.659873" xlink:href="#mb4db383e6d" y="276.72375"/>
      </g>
     </g>
    </g>
    <g id="xtick_16">
     <g id="line2d_31">
      <path clip-path="url(#p9bf3338418)" d="M 203.926668 276.72375 
L 203.926668 25.020625 
" style="fill:none;stroke:#555555;stroke-dasharray:0.8,1.32;stroke-dashoffset:0;stroke-width:0.8;"/>
     </g>
     <g id="line2d_32">
      <g>
       <use style="stroke:#000000;stroke-width:0.6;" x="203.926668" xlink:href="#mb4db383e6d" y="276.72375"/>
      </g>
     </g>
    </g>
    <g id="xtick_17">
     <g id="line2d_33">
      <path clip-path="url(#p9bf3338418)" d="M 216.193463 276.72375 
L 216.193463 25.020625 
" style="fill:none;stroke:#555555;stroke-dasharray:0.8,1.32;stroke-dashoffset:0;stroke-width:0.8;"/>
     </g>
     <g id="line2d_34">
      <g>
       <use style="stroke:#000000;stroke-width:0.6;" x="216.193463" xlink:href="#mb4db383e6d" y="276.72375"/>
      </g>
     </g>
    </g>
    <g id="xtick_18">
     <g id="line2d_35">
      <path clip-path="url(#p9bf3338418)" d="M 228.460258 276.72375 
L 228.460258 25.020625 
" style="fill:none;stroke:#555555;stroke-dasharray:0.8,1.32;stroke-dashoffset:0;stroke-width:0.8;"/>
     </g>
     <g id="line2d_36">
      <g>
       <use style="stroke:#000000;stroke-width:0.6;" x="228.460258" xlink:href="#mb4db383e6d" y="276.72375"/>
      </g>
     </g>
    </g>
    <g id="xtick_19">
     <g id="line2d_37">
      <path clip-path="url(#p9bf3338418)" d="M 252.993847 276.72375 
L 252.993847 25.020625 
" style="fill:none;stroke:#555555;stroke-dasharray:0.8,1.32;stroke-dashoffset:0;stroke-width:0.8;"/>
     </g>
     <g id="line2d_38">
      <g>
       <use style="stroke:#000000;stroke-width:0.6;" x="252.993847" xlink:href="#mb4db383e6d" y="276.72375"/>
      </g>
     </g>
    </g>
    <g id="xtick_20">
     <g id="line2d_39">
      <path clip-path="url(#p9bf3338418)" d="M 265.260642 276.72375 
L 265.260642 25.020625 
" style="fill:none;stroke:#555555;stroke-dasharray:0.8,1.32;stroke-dashoffset:0;stroke-width:0.8;"/>
     </g>
     <g id="line2d_40">
      <g>
       <use style="stroke:#000000;stroke-width:0.6;" x="265.260642" xlink:href="#mb4db383e6d" y="276.72375"/>
      </g>
     </g>
    </g>
    <g id="xtick_21">
     <g id="line2d_41">
      <path clip-path="url(#p9bf3338418)" d="M 277.527437 276.72375 
L 277.527437 25.020625 
" style="fill:none;stroke:#555555;stroke-dasharray:0.8,1.32;stroke-dashoffset:0;stroke-width:0.8;"/>
     </g>
     <g id="line2d_42">
      <g>
       <use style="stroke:#000000;stroke-width:0.6;" x="277.527437" xlink:href="#mb4db383e6d" y="276.72375"/>
      </g>
     </g>
    </g>
    <g id="xtick_22">
     <g id="line2d_43">
      <path clip-path="url(#p9bf3338418)" d="M 289.794231 276.72375 
L 289.794231 25.020625 
" style="fill:none;stroke:#555555;stroke-dasharray:0.8,1.32;stroke-dashoffset:0;stroke-width:0.8;"/>
     </g>
     <g id="line2d_44">
      <g>
       <use style="stroke:#000000;stroke-width:0.6;" x="289.794231" xlink:href="#mb4db383e6d" y="276.72375"/>
      </g>
     </g>
    </g>
    <g id="xtick_23">
     <g id="line2d_45">
      <path clip-path="url(#p9bf3338418)" d="M 314.327821 276.72375 
L 314.327821 25.020625 
" style="fill:none;stroke:#555555;stroke-dasharray:0.8,1.32;stroke-dashoffset:0;stroke-width:0.8;"/>
     </g>
     <g id="line2d_46">
      <g>
       <use style="stroke:#000000;stroke-width:0.6;" x="314.327821" xlink:href="#mb4db383e6d" y="276.72375"/>
      </g>
     </g>
    </g>
    <g id="xtick_24">
     <g id="line2d_47">
      <path clip-path="url(#p9bf3338418)" d="M 326.594616 276.72375 
L 326.594616 25.020625 
" style="fill:none;stroke:#555555;stroke-dasharray:0.8,1.32;stroke-dashoffset:0;stroke-width:0.8;"/>
     </g>
     <g id="line2d_48">
      <g>
       <use style="stroke:#000000;stroke-width:0.6;" x="326.594616" xlink:href="#mb4db383e6d" y="276.72375"/>
      </g>
     </g>
    </g>
    <g id="xtick_25">
     <g id="line2d_49">
      <path clip-path="url(#p9bf3338418)" d="M 338.86141 276.72375 
L 338.86141 25.020625 
" style="fill:none;stroke:#555555;stroke-dasharray:0.8,1.32;stroke-dashoffset:0;stroke-width:0.8;"/>
     </g>
     <g id="line2d_50">
      <g>
       <use style="stroke:#000000;stroke-width:0.6;" x="338.86141" xlink:href="#mb4db383e6d" y="276.72375"/>
      </g>
     </g>
    </g>
    <g id="xtick_26">
     <g id="line2d_51">
      <path clip-path="url(#p9bf3338418)" d="M 351.128205 276.72375 
L 351.128205 25.020625 
" style="fill:none;stroke:#555555;stroke-dasharray:0.8,1.32;stroke-dashoffset:0;stroke-width:0.8;"/>
     </g>
     <g id="line2d_52">
      <g>
       <use style="stroke:#000000;stroke-width:0.6;" x="351.128205" xlink:href="#mb4db383e6d" y="276.72375"/>
      </g>
     </g>
    </g>
    <g id="text_7">
     <!-- Harmonic order $n =\frac{\omega}{\omega_0}$ -->
     <g transform="translate(127.420066 316.18875)scale(0.16 -0.16)">
      <defs>
       <path d="M 3104 0 
L 3104 2067 
L 1248 2067 
L 1248 0 
L 640 0 
L 640 4410 
L 1248 4410 
L 1248 2566 
L 3104 2566 
L 3104 4410 
L 3712 4410 
L 3712 0 
L 3104 0 
z
" id="FiraSans-Regular-48" transform="scale(0.015625)"/>
       <path d="M 2880 787 
Q 2880 582 2950 483 
Q 3021 384 3162 333 
L 3027 -77 
Q 2765 -45 2605 70 
Q 2445 186 2368 429 
Q 2029 -77 1363 -77 
Q 864 -77 576 204 
Q 288 486 288 941 
Q 288 1478 675 1766 
Q 1062 2054 1773 2054 
L 2291 2054 
L 2291 2304 
Q 2291 2662 2118 2816 
Q 1946 2970 1587 2970 
Q 1216 2970 678 2790 
L 531 3219 
Q 1158 3450 1696 3450 
Q 2291 3450 2585 3158 
Q 2880 2867 2880 2330 
L 2880 787 
z
M 1498 365 
Q 2003 365 2291 890 
L 2291 1664 
L 1850 1664 
Q 915 1664 915 973 
Q 915 672 1062 518 
Q 1210 365 1498 365 
z
" id="FiraSans-Regular-61" transform="scale(0.015625)"/>
       <path d="M 2074 3450 
Q 2253 3450 2406 3411 
L 2298 2835 
Q 2144 2874 2003 2874 
Q 1690 2874 1498 2643 
Q 1306 2413 1197 1926 
L 1197 0 
L 608 0 
L 608 3373 
L 1114 3373 
L 1171 2688 
Q 1306 3066 1536 3258 
Q 1766 3450 2074 3450 
z
" id="FiraSans-Regular-72" transform="scale(0.015625)"/>
       <path d="M 3994 3450 
Q 4410 3450 4659 3171 
Q 4909 2893 4909 2419 
L 4909 0 
L 4320 0 
L 4320 2336 
Q 4320 2989 3846 2989 
Q 3597 2989 3424 2845 
Q 3251 2701 3053 2394 
L 3053 0 
L 2464 0 
L 2464 2336 
Q 2464 2989 1990 2989 
Q 1734 2989 1561 2841 
Q 1389 2694 1197 2394 
L 1197 0 
L 608 0 
L 608 3373 
L 1114 3373 
L 1165 2880 
Q 1542 3450 2138 3450 
Q 2451 3450 2672 3290 
Q 2893 3130 2989 2842 
Q 3187 3136 3427 3293 
Q 3667 3450 3994 3450 
z
" id="FiraSans-Regular-6d" transform="scale(0.015625)"/>
       <path d="M 1875 3450 
Q 2586 3450 2979 2976 
Q 3373 2502 3373 1690 
Q 3373 1165 3193 765 
Q 3014 365 2675 144 
Q 2336 -77 1869 -77 
Q 1158 -77 761 396 
Q 365 870 365 1683 
Q 365 2208 544 2608 
Q 723 3008 1062 3229 
Q 1402 3450 1875 3450 
z
M 1875 2976 
Q 998 2976 998 1683 
Q 998 397 1869 397 
Q 2739 397 2739 1690 
Q 2739 2976 1875 2976 
z
" id="FiraSans-Regular-6f" transform="scale(0.015625)"/>
       <path d="M 2195 3450 
Q 2656 3450 2915 3174 
Q 3174 2899 3174 2419 
L 3174 0 
L 2586 0 
L 2586 2336 
Q 2586 2694 2451 2841 
Q 2317 2989 2054 2989 
Q 1786 2989 1581 2835 
Q 1376 2682 1197 2394 
L 1197 0 
L 608 0 
L 608 3373 
L 1114 3373 
L 1165 2874 
Q 1344 3142 1609 3296 
Q 1875 3450 2195 3450 
z
" id="FiraSans-Regular-6e" transform="scale(0.015625)"/>
       <path d="M 1197 3373 
L 1197 0 
L 608 0 
L 608 3373 
L 1197 3373 
z
M 896 4992 
Q 1082 4992 1197 4877 
Q 1312 4762 1312 4589 
Q 1312 4416 1197 4304 
Q 1082 4192 896 4192 
Q 717 4192 601 4304 
Q 486 4416 486 4589 
Q 486 4762 601 4877 
Q 717 4992 896 4992 
z
" id="FiraSans-Regular-69" transform="scale(0.015625)"/>
       <path d="M 1837 3450 
Q 2138 3450 2387 3363 
Q 2637 3277 2867 3085 
L 2586 2714 
Q 2406 2842 2236 2902 
Q 2067 2963 1862 2963 
Q 1453 2963 1225 2636 
Q 998 2310 998 1670 
Q 998 1030 1222 726 
Q 1446 422 1862 422 
Q 2061 422 2227 483 
Q 2394 544 2598 678 
L 2867 294 
Q 2406 -77 1837 -77 
Q 1152 -77 758 384 
Q 365 845 365 1658 
Q 365 2195 544 2598 
Q 723 3002 1052 3226 
Q 1382 3450 1837 3450 
z
" id="FiraSans-Regular-63" transform="scale(0.015625)"/>
       <path id="FiraSans-Regular-20" transform="scale(0.015625)"/>
       <path d="M 3219 4730 
L 3219 0 
L 2701 0 
L 2643 467 
Q 2477 211 2227 67 
Q 1978 -77 1670 -77 
Q 1069 -77 733 396 
Q 397 870 397 1670 
Q 397 2189 557 2592 
Q 717 2995 1017 3222 
Q 1318 3450 1722 3450 
Q 2240 3450 2630 3034 
L 2630 4800 
L 3219 4730 
z
M 1798 390 
Q 2067 390 2259 515 
Q 2451 640 2630 890 
L 2630 2541 
Q 2464 2758 2275 2870 
Q 2086 2982 1850 2982 
Q 1459 2982 1244 2656 
Q 1030 2330 1030 1683 
Q 1030 1030 1228 710 
Q 1427 390 1798 390 
z
" id="FiraSans-Regular-64" transform="scale(0.015625)"/>
       <path d="M 3155 1786 
Q 3155 1638 3142 1485 
L 992 1485 
Q 1030 928 1273 665 
Q 1517 403 1901 403 
Q 2144 403 2349 473 
Q 2554 544 2778 698 
L 3034 346 
Q 2496 -77 1856 -77 
Q 1152 -77 758 384 
Q 365 845 365 1651 
Q 365 2176 534 2582 
Q 704 2989 1021 3219 
Q 1338 3450 1766 3450 
Q 2438 3450 2796 3008 
Q 3155 2566 3155 1786 
z
M 2573 1958 
Q 2573 2458 2374 2720 
Q 2176 2982 1779 2982 
Q 1056 2982 992 1920 
L 2573 1920 
L 2573 1958 
z
" id="FiraSans-Regular-65" transform="scale(0.015625)"/>
       <path d="M 3566 2113 
L 3156 0 
L 2578 0 
L 2988 2091 
Q 3016 2238 3031 2350 
Q 3047 2463 3047 2528 
Q 3047 2791 2881 2937 
Q 2716 3084 2419 3084 
Q 1956 3084 1622 2776 
Q 1288 2469 1184 1941 
L 800 0 
L 225 0 
L 903 3500 
L 1478 3500 
L 1363 2950 
Q 1603 3253 1940 3418 
Q 2278 3584 2650 3584 
Q 3113 3584 3367 3334 
Q 3622 3084 3622 2631 
Q 3622 2519 3608 2391 
Q 3594 2263 3566 2113 
z
" id="DejaVuSans-Oblique-6e" transform="scale(0.015625)"/>
       <path d="M 678 2638 
L 4684 2638 
L 4684 2381 
L 678 2381 
L 678 2638 
z
M 678 1631 
L 4684 1631 
L 4684 1375 
L 678 1375 
L 678 1631 
z
" id="DejaVuSans-ExtraLight-3d" transform="scale(0.015625)"/>
       <path d="M 1369 -91 
Q 72 -91 434 1766 
Q 575 2500 1256 3500 
L 1875 3500 
Q 1231 2500 1088 1750 
Q 819 397 1519 397 
Q 2166 397 2478 2078 
L 3009 2078 
Q 2669 388 3316 397 
Q 4013 403 4275 1750 
Q 4419 2500 4169 3500 
L 4788 3500 
Q 5075 2500 4934 1766 
Q 4578 -94 3278 -91 
Q 2428 -88 2503 844 
Q 2194 -91 1369 -91 
z
" id="DejaVuSans-Oblique-3c9" transform="scale(0.015625)"/>
       <path d="M 2016 4494 
Q 1444 4494 1166 3938 
Q 888 3378 888 2328 
Q 888 1278 1166 719 
Q 1444 163 2016 163 
Q 2606 163 2884 719 
Q 3163 1278 3163 2328 
Q 3163 3378 2884 3938 
Q 2606 4494 2016 4494 
z
M 2016 4750 
Q 2691 4750 3084 4200 
Q 3478 3647 3478 2328 
Q 3478 1009 3084 456 
Q 2691 -94 2016 -94 
Q 1359 -94 966 456 
Q 572 1009 572 2328 
Q 572 3647 966 4200 
Q 1359 4750 2016 4750 
z
" id="DejaVuSans-ExtraLight-30" transform="scale(0.015625)"/>
      </defs>
      <use transform="translate(0 0.839062)" xlink:href="#FiraSans-Regular-48"/>
      <use transform="translate(67.999985 0.839062)" xlink:href="#FiraSans-Regular-61"/>
      <use transform="translate(122.399979 0.839062)" xlink:href="#FiraSans-Regular-72"/>
      <use transform="translate(160.999969 0.839062)" xlink:href="#FiraSans-Regular-6d"/>
      <use transform="translate(246.699951 0.839062)" xlink:href="#FiraSans-Regular-6f"/>
      <use transform="translate(305.099945 0.839062)" xlink:href="#FiraSans-Regular-6e"/>
      <use transform="translate(363.699936 0.839062)" xlink:href="#FiraSans-Regular-69"/>
      <use transform="translate(391.899933 0.839062)" xlink:href="#FiraSans-Regular-63"/>
      <use transform="translate(439.699921 0.839062)" xlink:href="#FiraSans-Regular-20"/>
      <use transform="translate(466.199905 0.839062)" xlink:href="#FiraSans-Regular-6f"/>
      <use transform="translate(524.599899 0.839062)" xlink:href="#FiraSans-Regular-72"/>
      <use transform="translate(563.19989 0.839062)" xlink:href="#FiraSans-Regular-64"/>
      <use transform="translate(622.999878 0.839062)" xlink:href="#FiraSans-Regular-65"/>
      <use transform="translate(677.499863 0.839062)" xlink:href="#FiraSans-Regular-72"/>
      <use transform="translate(716.099854 0.839062)" xlink:href="#FiraSans-Regular-20"/>
      <use transform="translate(742.599838 0.839062)" xlink:href="#DejaVuSans-Oblique-6e"/>
      <use transform="translate(825.461166 0.839062)" xlink:href="#DejaVuSans-ExtraLight-3d"/>
      <use transform="translate(945.732651 45.71875)scale(0.7)" xlink:href="#DejaVuSans-Oblique-3c9"/>
      <use transform="translate(928.732651 -24.840625)scale(0.7)" xlink:href="#DejaVuSans-Oblique-3c9"/>
      <use transform="translate(987.350815 -36.325)scale(0.49)" xlink:href="#DejaVuSans-ExtraLight-30"/>
      <path d="M 928.732651 19.690625 
L 928.732651 25.940625 
L 1020.44017 25.940625 
L 1020.44017 19.690625 
L 928.732651 19.690625 
z
"/>
     </g>
    </g>
   </g>
   <g id="matplotlib.axis_2">
    <g id="ytick_1">
     <g id="line2d_53">
      <path clip-path="url(#p9bf3338418)" d="M 56.725131 276.72375 
L 363.395 276.72375 
" style="fill:none;stroke:#555555;stroke-linecap:square;"/>
     </g>
     <g id="line2d_54">
      <defs>
       <path d="M 0 0 
L -3.5 0 
" id="m832b2060b8" style="stroke:#000000;stroke-width:0.8;"/>
      </defs>
      <g>
       <use style="stroke:#000000;stroke-width:0.8;" x="56.725131" xlink:href="#m832b2060b8" y="276.72375"/>
      </g>
     </g>
     <g id="text_8">
      <!-- $\mathdefault{10^{-14}}$ -->
      <g transform="translate(18.365131 282.63625)scale(0.16 -0.16)">
       <defs>
        <path d="M 474 2221 
L 2656 2221 
L 2656 2016 
L 474 2016 
L 474 2221 
z
" id="FiraSans-UltraLight-2212" transform="scale(0.015625)"/>
        <path d="M 3002 1165 
L 2419 1165 
L 2419 0 
L 2202 0 
L 2202 1165 
L 314 1165 
L 314 1338 
L 1619 4314 
L 1805 4237 
L 550 1363 
L 2202 1363 
L 2227 2675 
L 2419 2675 
L 2419 1363 
L 3002 1363 
L 3002 1165 
z
" id="FiraSans-UltraLight-34" transform="scale(0.015625)"/>
       </defs>
       <use transform="translate(0 0.415625)" xlink:href="#FiraSans-UltraLight-31"/>
       <use transform="translate(39.799988 0.415625)" xlink:href="#FiraSans-UltraLight-30"/>
       <use transform="translate(95.109982 36.815625)scale(0.7)" xlink:href="#FiraSans-UltraLight-2212"/>
       <use transform="translate(129.339977 36.815625)scale(0.7)" xlink:href="#FiraSans-UltraLight-31"/>
       <use transform="translate(157.199969 36.815625)scale(0.7)" xlink:href="#FiraSans-UltraLight-34"/>
      </g>
     </g>
    </g>
    <g id="ytick_2">
     <g id="line2d_55">
      <path clip-path="url(#p9bf3338418)" d="M 56.725131 234.773229 
L 363.395 234.773229 
" style="fill:none;stroke:#555555;stroke-linecap:square;"/>
     </g>
     <g id="line2d_56">
      <g>
       <use style="stroke:#000000;stroke-width:0.8;" x="56.725131" xlink:href="#m832b2060b8" y="234.773229"/>
      </g>
     </g>
     <g id="text_9">
      <!-- $\mathdefault{10^{-12}}$ -->
      <g transform="translate(18.845131 240.685729)scale(0.16 -0.16)">
       <use transform="translate(0 0.415625)" xlink:href="#FiraSans-UltraLight-31"/>
       <use transform="translate(39.799988 0.415625)" xlink:href="#FiraSans-UltraLight-30"/>
       <use transform="translate(95.109982 36.815625)scale(0.7)" xlink:href="#FiraSans-UltraLight-2212"/>
       <use transform="translate(129.339977 36.815625)scale(0.7)" xlink:href="#FiraSans-UltraLight-31"/>
       <use transform="translate(157.199969 36.815625)scale(0.7)" xlink:href="#FiraSans-UltraLight-32"/>
      </g>
     </g>
    </g>
    <g id="ytick_3">
     <g id="line2d_57">
      <path clip-path="url(#p9bf3338418)" d="M 56.725131 192.822708 
L 363.395 192.822708 
" style="fill:none;stroke:#555555;stroke-linecap:square;"/>
     </g>
     <g id="line2d_58">
      <g>
       <use style="stroke:#000000;stroke-width:0.8;" x="56.725131" xlink:href="#m832b2060b8" y="192.822708"/>
      </g>
     </g>
     <g id="text_10">
      <!-- $\mathdefault{10^{-10}}$ -->
      <g transform="translate(18.045131 198.735208)scale(0.16 -0.16)">
       <use transform="translate(0 0.415625)" xlink:href="#FiraSans-UltraLight-31"/>
       <use transform="translate(39.799988 0.415625)" xlink:href="#FiraSans-UltraLight-30"/>
       <use transform="translate(95.109982 36.815625)scale(0.7)" xlink:href="#FiraSans-UltraLight-2212"/>
       <use transform="translate(129.339977 36.815625)scale(0.7)" xlink:href="#FiraSans-UltraLight-31"/>
       <use transform="translate(157.199969 36.815625)scale(0.7)" xlink:href="#FiraSans-UltraLight-30"/>
      </g>
     </g>
    </g>
    <g id="ytick_4">
     <g id="line2d_59">
      <path clip-path="url(#p9bf3338418)" d="M 56.725131 150.872187 
L 363.395 150.872187 
" style="fill:none;stroke:#555555;stroke-linecap:square;"/>
     </g>
     <g id="line2d_60">
      <g>
       <use style="stroke:#000000;stroke-width:0.8;" x="56.725131" xlink:href="#m832b2060b8" y="150.872187"/>
      </g>
     </g>
     <g id="text_11">
      <!-- $\mathdefault{10^{-8}}$ -->
      <g transform="translate(22.685131 156.784687)scale(0.16 -0.16)">
       <defs>
        <path d="M 2022 2227 
Q 2554 2010 2781 1760 
Q 3008 1510 3008 1082 
Q 3008 557 2640 246 
Q 2272 -64 1683 -64 
Q 1088 -64 733 249 
Q 378 563 378 1075 
Q 378 1510 627 1824 
Q 877 2138 1350 2304 
Q 934 2477 752 2694 
Q 570 2912 570 3277 
Q 570 3590 723 3827 
Q 877 4064 1136 4189 
Q 1395 4314 1696 4314 
Q 1990 4314 2249 4195 
Q 2509 4077 2665 3840 
Q 2822 3603 2822 3270 
Q 2822 2931 2630 2684 
Q 2438 2438 2022 2227 
z
M 794 3270 
Q 794 2957 957 2771 
Q 1120 2586 1574 2406 
L 1837 2304 
Q 2240 2509 2419 2729 
Q 2598 2950 2598 3264 
Q 2598 3674 2345 3898 
Q 2093 4122 1696 4122 
Q 1306 4122 1050 3894 
Q 794 3667 794 3270 
z
M 1690 141 
Q 2176 141 2477 384 
Q 2778 627 2778 1082 
Q 2778 1357 2678 1539 
Q 2579 1722 2380 1850 
Q 2182 1978 1824 2118 
L 1568 2221 
Q 1056 2042 829 1770 
Q 602 1498 602 1075 
Q 602 627 899 384 
Q 1197 141 1690 141 
z
" id="FiraSans-UltraLight-38" transform="scale(0.015625)"/>
       </defs>
       <use transform="translate(0 0.415625)" xlink:href="#FiraSans-UltraLight-31"/>
       <use transform="translate(39.799988 0.415625)" xlink:href="#FiraSans-UltraLight-30"/>
       <use transform="translate(95.109982 36.815625)scale(0.7)" xlink:href="#FiraSans-UltraLight-2212"/>
       <use transform="translate(129.339977 36.815625)scale(0.7)" xlink:href="#FiraSans-UltraLight-38"/>
      </g>
     </g>
    </g>
    <g id="ytick_5">
     <g id="line2d_61">
      <path clip-path="url(#p9bf3338418)" d="M 56.725131 108.921667 
L 363.395 108.921667 
" style="fill:none;stroke:#555555;stroke-linecap:square;"/>
     </g>
     <g id="line2d_62">
      <g>
       <use style="stroke:#000000;stroke-width:0.8;" x="56.725131" xlink:href="#m832b2060b8" y="108.921667"/>
      </g>
     </g>
     <g id="text_12">
      <!-- $\mathdefault{10^{-6}}$ -->
      <g transform="translate(22.685131 114.834167)scale(0.16 -0.16)">
       <defs>
        <path d="M 1837 2746 
Q 2317 2746 2624 2406 
Q 2931 2067 2931 1421 
Q 2931 960 2784 624 
Q 2637 288 2371 112 
Q 2106 -64 1760 -64 
Q 1088 -64 781 467 
Q 474 998 474 1862 
Q 474 2624 653 3174 
Q 832 3725 1161 4019 
Q 1491 4314 1946 4314 
Q 2170 4314 2339 4253 
Q 2509 4192 2682 4070 
L 2566 3910 
Q 2419 4013 2268 4064 
Q 2118 4115 1939 4115 
Q 1562 4115 1283 3849 
Q 1005 3584 857 3117 
Q 710 2650 698 2054 
Q 1146 2746 1837 2746 
z
M 1760 134 
Q 2214 134 2460 486 
Q 2707 838 2707 1414 
Q 2707 1978 2464 2262 
Q 2221 2547 1824 2547 
Q 1472 2547 1184 2339 
Q 896 2131 698 1766 
Q 710 998 966 566 
Q 1222 134 1760 134 
z
" id="FiraSans-UltraLight-36" transform="scale(0.015625)"/>
       </defs>
       <use transform="translate(0 0.415625)" xlink:href="#FiraSans-UltraLight-31"/>
       <use transform="translate(39.799988 0.415625)" xlink:href="#FiraSans-UltraLight-30"/>
       <use transform="translate(95.109982 36.815625)scale(0.7)" xlink:href="#FiraSans-UltraLight-2212"/>
       <use transform="translate(129.339977 36.815625)scale(0.7)" xlink:href="#FiraSans-UltraLight-36"/>
      </g>
     </g>
    </g>
    <g id="ytick_6">
     <g id="line2d_63">
      <path clip-path="url(#p9bf3338418)" d="M 56.725131 66.971146 
L 363.395 66.971146 
" style="fill:none;stroke:#555555;stroke-linecap:square;"/>
     </g>
     <g id="line2d_64">
      <g>
       <use style="stroke:#000000;stroke-width:0.8;" x="56.725131" xlink:href="#m832b2060b8" y="66.971146"/>
      </g>
     </g>
     <g id="text_13">
      <!-- $\mathdefault{10^{-4}}$ -->
      <g transform="translate(22.845131 72.883646)scale(0.16 -0.16)">
       <use transform="translate(0 0.415625)" xlink:href="#FiraSans-UltraLight-31"/>
       <use transform="translate(39.799988 0.415625)" xlink:href="#FiraSans-UltraLight-30"/>
       <use transform="translate(95.109982 36.815625)scale(0.7)" xlink:href="#FiraSans-UltraLight-2212"/>
       <use transform="translate(129.339977 36.815625)scale(0.7)" xlink:href="#FiraSans-UltraLight-34"/>
      </g>
     </g>
    </g>
    <g id="ytick_7">
     <g id="line2d_65">
      <path clip-path="url(#p9bf3338418)" d="M 56.725131 25.020625 
L 363.395 25.020625 
" style="fill:none;stroke:#555555;stroke-linecap:square;"/>
     </g>
     <g id="line2d_66">
      <g>
       <use style="stroke:#000000;stroke-width:0.8;" x="56.725131" xlink:href="#m832b2060b8" y="25.020625"/>
      </g>
     </g>
     <g id="text_14">
      <!-- $\mathdefault{10^{-2}}$ -->
      <g transform="translate(23.325131 30.933125)scale(0.16 -0.16)">
       <use transform="translate(0 0.415625)" xlink:href="#FiraSans-UltraLight-31"/>
       <use transform="translate(39.799988 0.415625)" xlink:href="#FiraSans-UltraLight-30"/>
       <use transform="translate(95.109982 36.815625)scale(0.7)" xlink:href="#FiraSans-UltraLight-2212"/>
       <use transform="translate(129.339977 36.815625)scale(0.7)" xlink:href="#FiraSans-UltraLight-32"/>
      </g>
     </g>
    </g>
   </g>
   <g id="line2d_67">
    <path clip-path="url(#p9bf3338418)" d="M 55.498452 89.422216 
L 56.725131 85.084356 
L 57.951811 77.467929 
L 59.17849 73.530069 
L 60.40517 71.863803 
L 61.631849 71.813271 
L 62.858529 73.119733 
L 64.085208 75.564706 
L 65.311888 78.814883 
L 66.538567 79.026568 
L 67.765247 71.310773 
L 68.991926 66.556227 
L 70.218605 64.032354 
L 71.445285 62.916986 
L 78.805362 61.142681 
L 80.032041 61.20822 
L 81.258721 61.559834 
L 82.4854 62.309959 
L 83.71208 63.568265 
L 84.938759 65.436225 
L 86.165439 67.961031 
L 87.392118 71.134168 
L 89.845477 78.670259 
L 91.072157 81.780902 
L 92.298836 83.365594 
L 93.525515 83.495888 
L 94.752195 82.51473 
L 98.432233 77.591693 
L 99.658913 76.465985 
L 100.885592 75.762673 
L 102.112272 75.477866 
L 103.338951 75.601623 
L 104.565631 76.126342 
L 105.79231 77.044535 
L 107.01899 78.352426 
L 108.245669 80.043241 
L 109.472349 82.111695 
L 110.699028 84.542552 
L 111.925708 87.312479 
L 114.379067 93.66221 
L 116.832426 100.379432 
L 118.059105 103.054748 
L 119.285784 104.239672 
L 120.512464 103.91888 
L 122.965823 102.212161 
L 124.192502 101.694978 
L 125.419182 101.521198 
L 126.645861 101.689157 
L 127.872541 102.195707 
L 129.09922 103.036694 
L 130.3259 104.206086 
L 131.552579 105.698863 
L 132.779259 107.501867 
L 134.005938 109.611774 
L 135.232618 112.00739 
L 136.459297 114.686857 
L 137.685977 117.633378 
L 138.912656 120.887829 
L 140.139336 124.472288 
L 143.819374 136.787406 
L 145.046053 137.502849 
L 146.272733 135.70779 
L 147.499412 134.240782 
L 148.726092 133.585079 
L 149.952771 133.712091 
L 151.179451 134.322235 
L 153.63281 136.222083 
L 154.859489 137.380257 
L 156.086169 138.829573 
L 157.312848 140.675492 
L 158.539528 143.017844 
L 159.766207 145.969124 
L 160.992887 149.827888 
L 162.219566 154.542038 
L 163.446246 159.935578 
L 164.672925 162.703589 
L 165.899605 161.695596 
L 167.126284 159.641907 
L 168.352963 158.498744 
L 169.579643 158.276877 
L 170.806322 159.552946 
L 173.259681 164.436784 
L 174.486361 164.110258 
L 175.71304 164.291197 
L 176.93972 164.020715 
L 178.166399 162.990184 
L 179.393079 161.226423 
L 180.619758 160.738514 
L 183.073117 161.716572 
L 184.299797 160.718482 
L 185.526476 159.961936 
L 186.753156 159.724226 
L 187.979835 160.073656 
L 189.206515 160.700682 
L 190.433194 161.853122 
L 192.886553 165.221297 
L 194.113232 165.365934 
L 195.339912 164.197636 
L 197.793271 163.532296 
L 199.01995 162.347256 
L 200.24663 160.260096 
L 201.473309 158.715773 
L 202.699989 158.250508 
L 203.926668 158.84388 
L 205.153348 159.622295 
L 206.380027 159.668767 
L 207.606707 159.396243 
L 208.833386 159.535715 
L 210.060066 161.039827 
L 211.286745 164.790613 
L 212.513425 174.141039 
L 213.740104 173.949394 
L 214.966784 165.361918 
L 216.193463 162.397782 
L 217.420142 162.007962 
L 218.646822 163.271708 
L 219.873501 166.482069 
L 221.100181 171.765647 
L 222.32686 172.347996 
L 223.55354 167.17002 
L 224.780219 164.226557 
L 226.006899 163.330401 
L 227.233578 163.610851 
L 228.460258 164.964183 
L 229.686937 167.09349 
L 232.140296 172.934438 
L 233.366976 175.529851 
L 234.593655 177.49946 
L 235.820335 176.114577 
L 237.047014 173.244521 
L 238.273694 171.290633 
L 239.500373 170.685971 
L 240.727052 170.416188 
L 241.953732 170.826188 
L 243.180411 172.327977 
L 244.407091 175.825873 
L 245.63377 180.129302 
L 246.86045 177.827507 
L 248.087129 175.055725 
L 249.313809 173.248694 
L 251.767168 171.071493 
L 252.993847 170.383089 
L 254.220527 169.96638 
L 255.447206 170.624618 
L 256.673886 172.48021 
L 259.127245 178.887917 
L 260.353924 180.937612 
L 261.580604 182.277308 
L 262.807283 182.83909 
L 265.260642 182.352541 
L 266.487321 182.95661 
L 267.714001 183.399448 
L 268.94068 186.725462 
L 270.16736 198.492208 
L 271.394039 186.244892 
L 272.620719 179.2577 
L 273.847398 175.370243 
L 275.074078 173.247769 
L 276.300757 171.918952 
L 277.527437 171.215002 
L 278.754116 170.662314 
L 279.980796 170.597952 
L 281.207475 171.24529 
L 282.434155 173.229999 
L 283.660834 176.929081 
L 286.114193 191.557821 
L 287.340873 183.046475 
L 288.567552 179.455085 
L 289.794231 178.252958 
L 291.020911 178.209788 
L 292.24759 178.772225 
L 293.47427 180.282704 
L 294.700949 183.392411 
L 295.927629 191.521864 
L 297.154308 193.188079 
L 298.380988 183.001839 
L 299.607667 178.911055 
L 300.834347 176.661417 
L 302.061026 175.240648 
L 303.287706 174.429458 
L 304.514385 174.443925 
L 305.741065 175.319238 
L 306.967744 176.965551 
L 309.421103 181.258624 
L 310.647783 182.847328 
L 311.874462 184.214104 
L 313.101142 184.703847 
L 315.5545 183.694443 
L 318.007859 184.818847 
L 319.234539 186.708447 
L 320.461218 191.398791 
L 321.687898 203.504219 
L 322.914577 187.79898 
L 324.141257 181.405335 
L 325.367936 178.26397 
L 326.594616 176.899309 
L 327.821295 176.6554 
L 329.047975 177.059055 
L 330.274654 177.879588 
L 331.501334 178.981111 
L 335.181372 183.130952 
L 336.408052 184.961888 
L 337.634731 187.414497 
L 338.86141 187.574943 
L 340.08809 186.451809 
L 341.314769 185.716656 
L 342.541449 185.440915 
L 346.221487 183.624444 
L 347.448167 182.962348 
L 349.901526 181.111399 
L 351.128205 180.787004 
L 352.354885 181.508293 
L 353.581564 183.192857 
L 354.808244 184.499927 
L 356.034923 183.74457 
L 357.261603 182.856483 
L 358.488282 182.910466 
L 359.714962 184.098125 
L 360.941641 185.894305 
L 363.395 191.840472 
L 364.621679 193.876932 
L 364.621679 193.876932 
" style="fill:none;stroke:#000000;stroke-linecap:square;stroke-width:2.5;"/>
   </g>
   <g id="line2d_68">
    <path clip-path="url(#p9bf3338418)" d="M 55.498452 120.491706 
L 56.725131 113.508744 
L 57.951811 108.171987 
L 59.17849 105.959848 
L 60.40517 105.837934 
L 61.631849 107.342701 
L 62.858529 110.180282 
L 65.311888 117.397353 
L 66.538567 118.623698 
L 67.765247 117.952198 
L 68.991926 116.489449 
L 70.218605 114.307148 
L 73.898644 106.124203 
L 75.125323 103.91171 
L 76.352003 102.173097 
L 77.578682 100.974362 
L 78.805362 100.398286 
L 80.032041 100.539124 
L 81.258721 101.4533 
L 82.4854 103.05193 
L 83.71208 104.96321 
L 84.938759 106.662143 
L 86.165439 108.097802 
L 87.392118 109.776102 
L 88.618798 112.180643 
L 89.845477 115.700313 
L 91.072157 121.155611 
L 92.298836 132.514689 
L 93.525515 128.053202 
L 94.752195 120.097583 
L 95.978874 115.588971 
L 97.205554 112.29449 
L 98.432233 109.745259 
L 99.658913 107.811917 
L 100.885592 106.439386 
L 102.112272 105.589645 
L 103.338951 105.231956 
L 104.565631 105.342178 
L 105.79231 105.902559 
L 107.01899 106.90059 
L 108.245669 108.326804 
L 109.472349 110.171564 
L 110.699028 112.420712 
L 111.925708 115.049889 
L 114.379067 121.258823 
L 116.832426 128.098118 
L 118.059105 131.144027 
L 119.285784 133.043434 
L 120.512464 133.309353 
L 121.739143 132.601146 
L 122.965823 131.75994 
L 124.192502 131.156254 
L 125.419182 130.889202 
L 126.645861 130.970804 
L 127.872541 131.392102 
L 129.09922 132.142028 
L 130.3259 133.211567 
L 131.552579 134.594055 
L 132.779259 136.284388 
L 134.005938 138.278588 
L 135.232618 140.573766 
L 136.459297 143.169371 
L 137.685977 146.069713 
L 138.912656 149.287304 
L 141.366015 156.690306 
L 142.592694 160.4839 
L 143.819374 162.945187 
L 145.046053 163.060013 
L 147.499412 161.229448 
L 148.726092 160.739164 
L 149.952771 160.640104 
L 151.179451 160.898961 
L 152.40613 161.485424 
L 153.63281 162.379142 
L 154.859489 163.566697 
L 156.086169 165.040519 
L 157.312848 166.795443 
L 158.539528 168.830316 
L 159.766207 171.146193 
L 160.992887 173.751151 
L 162.219566 176.659472 
L 163.446246 179.9007 
L 164.672925 183.521667 
L 165.899605 187.60944 
L 167.126284 192.317908 
L 168.352963 197.975101 
L 169.579643 205.381602 
L 170.806322 216.218567 
L 172.033002 215.124955 
L 173.259681 211.370987 
L 174.486361 210.264652 
L 175.71304 210.190975 
L 178.166399 210.409961 
L 180.619758 210.271175 
L 181.846438 210.352987 
L 183.073117 210.687866 
L 184.299797 211.29899 
L 185.526476 212.256293 
L 186.753156 213.60756 
L 187.979835 215.405634 
L 189.206515 217.719311 
L 191.659873 223.363423 
L 192.886553 225.266047 
L 194.113232 225.645296 
L 197.793271 223.907818 
L 199.01995 223.680067 
L 200.24663 223.640929 
L 201.473309 223.878106 
L 202.699989 224.314835 
L 205.153348 225.816081 
L 207.606707 227.56121 
L 208.833386 228.600566 
L 210.060066 230.006419 
L 211.286745 232.149368 
L 212.513425 235.468103 
L 213.740104 239.462907 
L 214.966784 240.710812 
L 216.193463 238.675326 
L 217.420142 237.902241 
L 218.646822 238.149101 
L 219.873501 239.336211 
L 221.100181 240.143413 
L 222.32686 240.393125 
L 223.55354 239.231306 
L 224.780219 237.769648 
L 226.006899 236.085531 
L 227.233578 235.043322 
L 228.460258 234.322257 
L 229.686937 234.251076 
L 230.913617 234.491089 
L 232.140296 235.42658 
L 233.366976 236.987936 
L 234.593655 240.201849 
L 235.820335 246.341542 
L 237.047014 264.38325 
L 238.273694 247.106104 
L 239.500373 242.621381 
L 240.727052 241.601229 
L 241.953732 242.12294 
L 243.180411 244.612298 
L 244.407091 248.156965 
L 245.63377 250.82758 
L 246.86045 248.657046 
L 248.087129 247.462133 
L 249.313809 247.680889 
L 250.540488 249.388836 
L 251.767168 251.650038 
L 252.993847 255.617933 
L 254.220527 261.718923 
L 255.447206 270.938805 
L 256.673886 262.275424 
L 257.900565 258.672776 
L 259.127245 255.588478 
L 260.353924 254.171564 
L 261.580604 253.383754 
L 262.807283 255.121206 
L 264.033963 258.356771 
L 265.260642 267.466301 
L 266.487321 279.178338 
L 267.714001 268.506289 
L 268.94068 263.736935 
L 270.16736 257.848224 
L 271.394039 254.464349 
L 272.620719 253.121102 
L 273.847398 252.599415 
L 275.074078 251.926562 
L 276.300757 249.383789 
L 277.527437 247.749885 
L 278.754116 246.678329 
L 279.980796 247.055519 
L 281.207475 248.314915 
L 282.434155 250.764353 
L 283.660834 252.756157 
L 284.887514 253.917608 
L 286.114193 253.49662 
L 287.340873 253.430096 
L 288.567552 253.474931 
L 289.794231 254.325592 
L 293.47427 258.218317 
L 294.700949 258.610085 
L 295.927629 260.209328 
L 297.154308 261.200419 
L 298.380988 263.571964 
L 299.607667 264.939143 
L 300.834347 269.62086 
L 302.061026 270.806216 
L 303.287706 271.234057 
L 304.514385 271.077091 
L 305.741065 267.305594 
L 306.967744 268.548589 
L 308.194424 268.696883 
L 309.421103 271.949333 
L 310.647783 269.792819 
L 311.874462 263.107232 
L 313.101142 259.284872 
L 314.327821 255.981162 
L 315.5545 254.202455 
L 316.78118 253.846819 
L 318.007859 253.648649 
L 319.234539 253.884575 
L 320.461218 253.087341 
L 322.914577 252.977502 
L 324.141257 253.396851 
L 325.367936 253.662738 
L 326.594616 254.610749 
L 327.821295 256.014027 
L 329.047975 258.145833 
L 330.274654 261.163574 
L 331.501334 266.05342 
L 332.728013 272.972688 
L 333.954693 272.477137 
L 335.181372 268.750513 
L 336.408052 266.082984 
L 337.634731 266.249141 
L 338.86141 266.028164 
L 340.08809 266.840585 
L 341.314769 265.34043 
L 343.768128 259.369965 
L 344.994808 258.938997 
L 346.221487 259.243005 
L 347.448167 258.437833 
L 348.674846 258.041515 
L 349.901526 257.814543 
L 351.128205 258.243683 
L 353.581564 258.732075 
L 354.808244 258.137528 
L 356.034923 257.963084 
L 357.261603 258.591082 
L 358.488282 260.157869 
L 360.941641 261.233807 
L 362.168321 260.102763 
L 363.395 259.648949 
L 364.621679 259.665395 
L 364.621679 259.665395 
" style="fill:none;stroke:#c1292e;stroke-linecap:square;stroke-width:2.5;"/>
   </g>
   <g id="line2d_69">
    <path clip-path="url(#p9bf3338418)" d="M 55.498452 89.685739 
L 56.725131 85.489126 
L 57.951811 77.785397 
L 59.17849 73.79172 
L 60.40517 72.083374 
L 61.631849 71.996848 
L 62.858529 73.272346 
L 64.085208 75.693149 
L 65.311888 78.934509 
L 66.538567 79.145217 
L 67.765247 71.364569 
L 68.991926 66.585362 
L 70.218605 64.044724 
L 71.445285 62.911849 
L 78.805362 61.021531 
L 80.032041 61.087583 
L 81.258721 61.447136 
L 82.4854 62.210111 
L 83.71208 63.482674 
L 84.938759 65.362481 
L 86.165439 67.89311 
L 87.392118 71.062181 
L 89.845477 78.554518 
L 91.072157 81.669295 
L 92.298836 83.326419 
L 93.525515 83.557799 
L 94.752195 82.660779 
L 98.432233 77.861726 
L 99.658913 76.759171 
L 100.885592 76.075659 
L 102.112272 75.808252 
L 103.338951 75.947653 
L 104.565631 76.486714 
L 105.79231 77.41816 
L 107.01899 78.738311 
L 108.245669 80.440251 
L 109.472349 82.518642 
L 110.699028 84.958022 
L 111.925708 87.735075 
L 114.379067 94.094728 
L 116.832426 100.814759 
L 118.059105 103.477249 
L 119.285784 104.631521 
L 120.512464 104.284964 
L 122.965823 102.568693 
L 124.192502 102.054151 
L 125.419182 101.88365 
L 126.645861 102.054691 
L 127.872541 102.564269 
L 129.09922 103.408397 
L 130.3259 104.58124 
L 131.552579 106.07785 
L 132.779259 107.884875 
L 134.005938 109.999042 
L 135.232618 112.398455 
L 137.685977 118.028807 
L 138.912656 121.283401 
L 140.139336 124.866331 
L 141.366015 128.876278 
L 143.819374 137.275876 
L 145.046053 138.057094 
L 146.272733 136.220644 
L 147.499412 134.719408 
L 148.726092 134.051452 
L 149.952771 134.187152 
L 151.179451 134.815239 
L 153.63281 136.744652 
L 154.859489 137.902951 
L 156.086169 139.349538 
L 157.312848 141.197813 
L 158.539528 143.553969 
L 159.766207 146.543087 
L 160.992887 150.490256 
L 162.219566 155.372231 
L 163.446246 161.006836 
L 164.672925 163.428404 
L 165.899605 161.896752 
L 167.126284 159.721946 
L 168.352963 158.553051 
L 169.579643 158.316438 
L 170.806322 159.570337 
L 173.259681 164.385461 
L 174.486361 164.07735 
L 175.71304 164.277991 
L 176.93972 164.017057 
L 178.166399 162.992315 
L 179.393079 161.237172 
L 180.619758 160.760103 
L 183.073117 161.758645 
L 184.299797 160.746105 
L 185.526476 159.974274 
L 186.753156 159.725504 
L 187.979835 160.066522 
L 189.206515 160.688989 
L 190.433194 161.839379 
L 192.886553 165.216944 
L 194.113232 165.372882 
L 195.339912 164.208684 
L 197.793271 163.542009 
L 199.01995 162.352732 
L 200.24663 160.262626 
L 201.473309 158.716981 
L 202.699989 158.251236 
L 203.926668 158.843882 
L 205.153348 159.621284 
L 206.380027 159.666775 
L 207.606707 159.394303 
L 208.833386 159.534172 
L 210.060066 161.038775 
L 211.286745 164.789875 
L 212.513425 174.141496 
L 213.740104 173.95441 
L 214.966784 165.364163 
L 216.193463 162.399881 
L 217.420142 162.010112 
L 218.646822 163.274101 
L 219.873501 166.485025 
L 221.100181 171.77002 
L 222.32686 172.348404 
L 223.55354 167.169164 
L 224.780219 164.225545 
L 226.006899 163.329086 
L 227.233578 163.608975 
L 228.460258 164.961492 
L 229.686937 167.089957 
L 232.140296 172.932129 
L 233.366976 175.531492 
L 234.593655 177.50556 
L 235.820335 176.118664 
L 237.047014 173.244203 
L 238.273694 171.288877 
L 239.500373 170.684465 
L 240.727052 170.415608 
L 241.953732 170.826467 
L 243.180411 172.328832 
L 244.407091 175.828266 
L 245.63377 180.132274 
L 246.86045 177.825573 
L 248.087129 175.05289 
L 249.313809 173.246318 
L 251.767168 171.070515 
L 252.993847 170.382664 
L 254.220527 169.966355 
L 255.447206 170.624767 
L 256.673886 172.480627 
L 259.127245 178.889753 
L 260.353924 180.939003 
L 261.580604 182.276759 
L 262.807283 182.836826 
L 265.260642 182.351836 
L 266.487321 182.956769 
L 267.714001 183.399416 
L 268.94068 186.723797 
L 270.16736 198.483966 
L 271.394039 186.249305 
L 272.620719 179.260045 
L 273.847398 175.371489 
L 275.074078 173.248137 
L 276.300757 171.91854 
L 277.527437 171.213851 
L 278.754116 170.660675 
L 279.980796 170.596128 
L 281.207475 171.243479 
L 282.434155 173.228202 
L 283.660834 176.926905 
L 286.114193 191.559093 
L 287.340873 183.049123 
L 288.567552 179.456772 
L 289.794231 178.254045 
L 291.020911 178.210652 
L 292.24759 178.772927 
L 293.47427 180.283513 
L 294.700949 183.393583 
L 295.927629 191.52503 
L 297.154308 193.189338 
L 298.380988 183.001892 
L 299.607667 178.911332 
L 300.834347 176.661688 
L 302.061026 175.240899 
L 303.287706 174.429516 
L 304.514385 174.443842 
L 305.741065 175.318941 
L 306.967744 176.965173 
L 309.421103 181.258533 
L 310.647783 182.84789 
L 311.874462 184.215676 
L 313.101142 184.706381 
L 315.5545 183.698391 
L 318.007859 184.823612 
L 319.234539 186.714057 
L 320.461218 191.408661 
L 321.687898 203.515553 
L 322.914577 187.794099 
L 324.141257 181.402942 
L 325.367936 178.262216 
L 326.594616 176.897977 
L 327.821295 176.654283 
L 329.047975 177.05825 
L 330.274654 177.878992 
L 331.501334 178.980845 
L 335.181372 183.13153 
L 336.408052 184.962589 
L 337.634731 187.415085 
L 338.86141 187.575792 
L 340.08809 186.452451 
L 341.314769 185.717541 
L 342.541449 185.442108 
L 346.221487 183.625848 
L 347.448167 182.963452 
L 349.901526 181.111745 
L 351.128205 180.787263 
L 352.354885 181.508483 
L 353.581564 183.193002 
L 354.808244 184.499277 
L 356.034923 183.743137 
L 357.261603 182.854708 
L 358.488282 182.908692 
L 359.714962 184.096104 
L 360.941641 185.892269 
L 363.395 191.840328 
L 364.621679 193.879355 
L 364.621679 193.879355 
" style="fill:none;stroke:#fca311;stroke-dasharray:6,3;stroke-dashoffset:0;stroke-width:2;"/>
   </g>
   <g id="patch_3">
    <path d="M 56.725131 276.72375 
L 56.725131 25.020625 
" style="fill:none;stroke:#000000;stroke-linecap:square;stroke-linejoin:miter;stroke-width:0.8;"/>
   </g>
   <g id="patch_4">
    <path d="M 363.395 276.72375 
L 363.395 25.020625 
" style="fill:none;stroke:#000000;stroke-linecap:square;stroke-linejoin:miter;stroke-width:0.8;"/>
   </g>
   <g id="patch_5">
    <path d="M 56.725131 276.72375 
L 363.395 276.72375 
" style="fill:none;stroke:#000000;stroke-linecap:square;stroke-linejoin:miter;stroke-width:0.8;"/>
   </g>
   <g id="patch_6">
    <path d="M 56.725131 25.020625 
L 363.395 25.020625 
" style="fill:none;stroke:#000000;stroke-linecap:square;stroke-linejoin:miter;stroke-width:0.8;"/>
   </g>
  </g>
 </g>
 <defs>
  <clipPath id="p9bf3338418">
   <rect height="251.703125" width="306.669869" x="56.725131" y="25.020625"/>
  </clipPath>
 </defs>
</svg>
