<?xml version="1.0" encoding="utf-8" standalone="no"?>
<!DOCTYPE svg PUBLIC "-//W3C//DTD SVG 1.1//EN"
  "http://www.w3.org/Graphics/SVG/1.1/DTD/svg11.dtd">
<svg height="345.6pt" version="1.1" viewBox="0 0 446.4 345.6" width="446.4pt" xmlns="http://www.w3.org/2000/svg" xmlns:xlink="http://www.w3.org/1999/xlink">
 <metadata>
  <rdf:RDF xmlns:cc="http://creativecommons.org/ns#" xmlns:dc="http://purl.org/dc/elements/1.1/" xmlns:rdf="http://www.w3.org/1999/02/22-rdf-syntax-ns#">
   <cc:Work>
    <dc:type rdf:resource="http://purl.org/dc/dcmitype/StillImage"/>
    <dc:date>2024-03-15T14:08:20.690828</dc:date>
    <dc:format>image/svg+xml</dc:format>
    <dc:creator>
     <cc:Agent>
      <dc:title>Matplotlib v3.4.3, https://matplotlib.org/</dc:title>
     </cc:Agent>
    </dc:creator>
   </cc:Work>
  </rdf:RDF>
 </metadata>
 <defs>
  <style type="text/css">*{stroke-linecap:butt;stroke-linejoin:round;}</style>
 </defs>
 <g id="figure_1">
  <g id="patch_1">
   <path d="M 0 345.6 
L 446.4 345.6 
L 446.4 0 
L 0 0 
z
" style="fill:none;"/>
  </g>
  <g id="axes_1">
   <g id="patch_2">
    <path d="M 81.850131 276.72375 
L 420.995 276.72375 
L 420.995 25.020625 
L 81.850131 25.020625 
z
" style="fill:none;"/>
   </g>
   <g id="matplotlib.axis_1">
    <g id="xtick_1">
     <g id="line2d_1">
      <path clip-path="url(#p4500d2ddec)" d="M 81.850131 276.72375 
L 81.850131 25.020625 
" style="fill:none;stroke:#555555;stroke-linecap:square;"/>
     </g>
     <g id="line2d_2">
      <defs>
       <path d="M 0 0 
L 0 3.5 
" id="m01d3c98904" style="stroke:#000000;stroke-width:0.8;"/>
      </defs>
      <g>
       <use style="stroke:#000000;stroke-width:0.8;" x="81.850131" xlink:href="#m01d3c98904" y="276.72375"/>
      </g>
     </g>
     <g id="text_1">
      <!-- 5 -->
      <g transform="translate(78.033881 295.54875)scale(0.16 -0.16)">
       <defs>
        <path d="M 2528 4045 
L 762 4045 
L 762 2445 
Q 1101 2675 1517 2675 
Q 2067 2675 2384 2323 
Q 2701 1971 2701 1370 
Q 2701 954 2544 627 
Q 2387 301 2092 118 
Q 1798 -64 1408 -64 
Q 717 -64 250 422 
L 403 563 
Q 614 346 851 240 
Q 1088 134 1414 134 
Q 1901 134 2185 470 
Q 2470 806 2470 1370 
Q 2470 1914 2208 2195 
Q 1946 2477 1498 2477 
Q 1267 2477 1097 2422 
Q 928 2368 717 2240 
L 544 2240 
L 544 4237 
L 2566 4237 
L 2528 4045 
z
" id="FiraSans-UltraLight-35" transform="scale(0.015625)"/>
       </defs>
       <use xlink:href="#FiraSans-UltraLight-35"/>
      </g>
     </g>
    </g>
    <g id="xtick_2">
     <g id="line2d_3">
      <path clip-path="url(#p4500d2ddec)" d="M 149.679105 276.72375 
L 149.679105 25.020625 
" style="fill:none;stroke:#555555;stroke-linecap:square;"/>
     </g>
     <g id="line2d_4">
      <g>
       <use style="stroke:#000000;stroke-width:0.8;" x="149.679105" xlink:href="#m01d3c98904" y="276.72375"/>
      </g>
     </g>
     <g id="text_2">
      <!-- 10 -->
      <g transform="translate(142.142855 295.54875)scale(0.16 -0.16)">
       <defs>
        <path d="M 1728 0 
L 1510 0 
L 1510 3981 
L 422 3296 
L 314 3469 
L 1549 4237 
L 1728 4237 
L 1728 0 
z
" id="FiraSans-UltraLight-31" transform="scale(0.015625)"/>
        <path d="M 1741 4314 
Q 2362 4314 2685 3760 
Q 3008 3206 3008 2112 
Q 3008 1037 2681 486 
Q 2355 -64 1741 -64 
Q 1126 -64 800 489 
Q 474 1043 474 2125 
Q 474 3206 800 3760 
Q 1126 4314 1741 4314 
z
M 1741 4115 
Q 1235 4115 966 3619 
Q 698 3123 698 2125 
Q 698 1133 966 633 
Q 1235 134 1741 134 
Q 2253 134 2518 627 
Q 2784 1120 2784 2112 
Q 2784 3117 2518 3616 
Q 2253 4115 1741 4115 
z
" id="FiraSans-UltraLight-30" transform="scale(0.015625)"/>
       </defs>
       <use xlink:href="#FiraSans-UltraLight-31"/>
       <use x="39.799988" xlink:href="#FiraSans-UltraLight-30"/>
      </g>
     </g>
    </g>
    <g id="xtick_3">
     <g id="line2d_5">
      <path clip-path="url(#p4500d2ddec)" d="M 217.508079 276.72375 
L 217.508079 25.020625 
" style="fill:none;stroke:#555555;stroke-linecap:square;"/>
     </g>
     <g id="line2d_6">
      <g>
       <use style="stroke:#000000;stroke-width:0.8;" x="217.508079" xlink:href="#m01d3c98904" y="276.72375"/>
      </g>
     </g>
     <g id="text_3">
      <!-- 15 -->
      <g transform="translate(210.508079 295.54875)scale(0.16 -0.16)">
       <use xlink:href="#FiraSans-UltraLight-31"/>
       <use x="39.799988" xlink:href="#FiraSans-UltraLight-35"/>
      </g>
     </g>
    </g>
    <g id="xtick_4">
     <g id="line2d_7">
      <path clip-path="url(#p4500d2ddec)" d="M 285.337052 276.72375 
L 285.337052 25.020625 
" style="fill:none;stroke:#555555;stroke-linecap:square;"/>
     </g>
     <g id="line2d_8">
      <g>
       <use style="stroke:#000000;stroke-width:0.8;" x="285.337052" xlink:href="#m01d3c98904" y="276.72375"/>
      </g>
     </g>
     <g id="text_4">
      <!-- 20 -->
      <g transform="translate(277.248302 295.54875)scale(0.16 -0.16)">
       <defs>
        <path d="M 1421 4314 
Q 1926 4314 2220 4013 
Q 2515 3712 2515 3232 
Q 2515 2797 2345 2425 
Q 2176 2054 1808 1609 
Q 1440 1165 563 211 
L 2637 211 
L 2598 0 
L 294 0 
L 294 205 
Q 1190 1184 1580 1654 
Q 1971 2125 2131 2470 
Q 2291 2816 2291 3213 
Q 2291 3629 2054 3872 
Q 1818 4115 1414 4115 
Q 813 4115 416 3622 
L 250 3738 
Q 499 4032 780 4173 
Q 1062 4314 1421 4314 
z
" id="FiraSans-UltraLight-32" transform="scale(0.015625)"/>
       </defs>
       <use xlink:href="#FiraSans-UltraLight-32"/>
       <use x="46.699997" xlink:href="#FiraSans-UltraLight-30"/>
      </g>
     </g>
    </g>
    <g id="xtick_5">
     <g id="line2d_9">
      <path clip-path="url(#p4500d2ddec)" d="M 353.166026 276.72375 
L 353.166026 25.020625 
" style="fill:none;stroke:#555555;stroke-linecap:square;"/>
     </g>
     <g id="line2d_10">
      <g>
       <use style="stroke:#000000;stroke-width:0.8;" x="353.166026" xlink:href="#m01d3c98904" y="276.72375"/>
      </g>
     </g>
     <g id="text_5">
      <!-- 25 -->
      <g transform="translate(345.613526 295.54875)scale(0.16 -0.16)">
       <use xlink:href="#FiraSans-UltraLight-32"/>
       <use x="46.699997" xlink:href="#FiraSans-UltraLight-35"/>
      </g>
     </g>
    </g>
    <g id="xtick_6">
     <g id="line2d_11">
      <path clip-path="url(#p4500d2ddec)" d="M 420.995 276.72375 
L 420.995 25.020625 
" style="fill:none;stroke:#555555;stroke-linecap:square;"/>
     </g>
     <g id="line2d_12">
      <g>
       <use style="stroke:#000000;stroke-width:0.8;" x="420.995" xlink:href="#m01d3c98904" y="276.72375"/>
      </g>
     </g>
     <g id="text_6">
      <!-- 30 -->
      <g transform="translate(412.82625 295.54875)scale(0.16 -0.16)">
       <defs>
        <path d="M 1395 4314 
Q 1901 4314 2201 4022 
Q 2502 3731 2502 3270 
Q 2502 2835 2262 2572 
Q 2022 2310 1645 2259 
Q 2061 2253 2336 1965 
Q 2611 1677 2611 1178 
Q 2611 621 2262 278 
Q 1914 -64 1331 -64 
Q 960 -64 675 67 
Q 390 198 154 467 
L 307 595 
Q 531 346 771 240 
Q 1011 134 1318 134 
Q 1824 134 2105 419 
Q 2387 704 2387 1171 
Q 2387 1664 2112 1907 
Q 1837 2150 1357 2150 
L 1101 2150 
L 1133 2342 
L 1338 2342 
Q 1722 2342 2000 2576 
Q 2278 2810 2278 3264 
Q 2278 3654 2035 3884 
Q 1792 4115 1382 4115 
Q 1101 4115 867 4019 
Q 634 3923 397 3706 
L 269 3846 
Q 512 4083 781 4198 
Q 1050 4314 1395 4314 
z
" id="FiraSans-UltraLight-33" transform="scale(0.015625)"/>
       </defs>
       <use xlink:href="#FiraSans-UltraLight-33"/>
       <use x="47.699997" xlink:href="#FiraSans-UltraLight-30"/>
      </g>
     </g>
    </g>
    <g id="xtick_7">
     <g id="line2d_13">
      <path clip-path="url(#p4500d2ddec)" d="M 95.415926 276.72375 
L 95.415926 25.020625 
" style="fill:none;stroke:#555555;stroke-dasharray:0.8,1.32;stroke-dashoffset:0;stroke-width:0.8;"/>
     </g>
     <g id="line2d_14">
      <defs>
       <path d="M 0 0 
L 0 2 
" id="ma33728ac61" style="stroke:#000000;stroke-width:0.6;"/>
      </defs>
      <g>
       <use style="stroke:#000000;stroke-width:0.6;" x="95.415926" xlink:href="#ma33728ac61" y="276.72375"/>
      </g>
     </g>
    </g>
    <g id="xtick_8">
     <g id="line2d_15">
      <path clip-path="url(#p4500d2ddec)" d="M 108.981721 276.72375 
L 108.981721 25.020625 
" style="fill:none;stroke:#555555;stroke-dasharray:0.8,1.32;stroke-dashoffset:0;stroke-width:0.8;"/>
     </g>
     <g id="line2d_16">
      <g>
       <use style="stroke:#000000;stroke-width:0.6;" x="108.981721" xlink:href="#ma33728ac61" y="276.72375"/>
      </g>
     </g>
    </g>
    <g id="xtick_9">
     <g id="line2d_17">
      <path clip-path="url(#p4500d2ddec)" d="M 122.547515 276.72375 
L 122.547515 25.020625 
" style="fill:none;stroke:#555555;stroke-dasharray:0.8,1.32;stroke-dashoffset:0;stroke-width:0.8;"/>
     </g>
     <g id="line2d_18">
      <g>
       <use style="stroke:#000000;stroke-width:0.6;" x="122.547515" xlink:href="#ma33728ac61" y="276.72375"/>
      </g>
     </g>
    </g>
    <g id="xtick_10">
     <g id="line2d_19">
      <path clip-path="url(#p4500d2ddec)" d="M 136.11331 276.72375 
L 136.11331 25.020625 
" style="fill:none;stroke:#555555;stroke-dasharray:0.8,1.32;stroke-dashoffset:0;stroke-width:0.8;"/>
     </g>
     <g id="line2d_20">
      <g>
       <use style="stroke:#000000;stroke-width:0.6;" x="136.11331" xlink:href="#ma33728ac61" y="276.72375"/>
      </g>
     </g>
    </g>
    <g id="xtick_11">
     <g id="line2d_21">
      <path clip-path="url(#p4500d2ddec)" d="M 163.2449 276.72375 
L 163.2449 25.020625 
" style="fill:none;stroke:#555555;stroke-dasharray:0.8,1.32;stroke-dashoffset:0;stroke-width:0.8;"/>
     </g>
     <g id="line2d_22">
      <g>
       <use style="stroke:#000000;stroke-width:0.6;" x="163.2449" xlink:href="#ma33728ac61" y="276.72375"/>
      </g>
     </g>
    </g>
    <g id="xtick_12">
     <g id="line2d_23">
      <path clip-path="url(#p4500d2ddec)" d="M 176.810694 276.72375 
L 176.810694 25.020625 
" style="fill:none;stroke:#555555;stroke-dasharray:0.8,1.32;stroke-dashoffset:0;stroke-width:0.8;"/>
     </g>
     <g id="line2d_24">
      <g>
       <use style="stroke:#000000;stroke-width:0.6;" x="176.810694" xlink:href="#ma33728ac61" y="276.72375"/>
      </g>
     </g>
    </g>
    <g id="xtick_13">
     <g id="line2d_25">
      <path clip-path="url(#p4500d2ddec)" d="M 190.376489 276.72375 
L 190.376489 25.020625 
" style="fill:none;stroke:#555555;stroke-dasharray:0.8,1.32;stroke-dashoffset:0;stroke-width:0.8;"/>
     </g>
     <g id="line2d_26">
      <g>
       <use style="stroke:#000000;stroke-width:0.6;" x="190.376489" xlink:href="#ma33728ac61" y="276.72375"/>
      </g>
     </g>
    </g>
    <g id="xtick_14">
     <g id="line2d_27">
      <path clip-path="url(#p4500d2ddec)" d="M 203.942284 276.72375 
L 203.942284 25.020625 
" style="fill:none;stroke:#555555;stroke-dasharray:0.8,1.32;stroke-dashoffset:0;stroke-width:0.8;"/>
     </g>
     <g id="line2d_28">
      <g>
       <use style="stroke:#000000;stroke-width:0.6;" x="203.942284" xlink:href="#ma33728ac61" y="276.72375"/>
      </g>
     </g>
    </g>
    <g id="xtick_15">
     <g id="line2d_29">
      <path clip-path="url(#p4500d2ddec)" d="M 231.073873 276.72375 
L 231.073873 25.020625 
" style="fill:none;stroke:#555555;stroke-dasharray:0.8,1.32;stroke-dashoffset:0;stroke-width:0.8;"/>
     </g>
     <g id="line2d_30">
      <g>
       <use style="stroke:#000000;stroke-width:0.6;" x="231.073873" xlink:href="#ma33728ac61" y="276.72375"/>
      </g>
     </g>
    </g>
    <g id="xtick_16">
     <g id="line2d_31">
      <path clip-path="url(#p4500d2ddec)" d="M 244.639668 276.72375 
L 244.639668 25.020625 
" style="fill:none;stroke:#555555;stroke-dasharray:0.8,1.32;stroke-dashoffset:0;stroke-width:0.8;"/>
     </g>
     <g id="line2d_32">
      <g>
       <use style="stroke:#000000;stroke-width:0.6;" x="244.639668" xlink:href="#ma33728ac61" y="276.72375"/>
      </g>
     </g>
    </g>
    <g id="xtick_17">
     <g id="line2d_33">
      <path clip-path="url(#p4500d2ddec)" d="M 258.205463 276.72375 
L 258.205463 25.020625 
" style="fill:none;stroke:#555555;stroke-dasharray:0.8,1.32;stroke-dashoffset:0;stroke-width:0.8;"/>
     </g>
     <g id="line2d_34">
      <g>
       <use style="stroke:#000000;stroke-width:0.6;" x="258.205463" xlink:href="#ma33728ac61" y="276.72375"/>
      </g>
     </g>
    </g>
    <g id="xtick_18">
     <g id="line2d_35">
      <path clip-path="url(#p4500d2ddec)" d="M 271.771258 276.72375 
L 271.771258 25.020625 
" style="fill:none;stroke:#555555;stroke-dasharray:0.8,1.32;stroke-dashoffset:0;stroke-width:0.8;"/>
     </g>
     <g id="line2d_36">
      <g>
       <use style="stroke:#000000;stroke-width:0.6;" x="271.771258" xlink:href="#ma33728ac61" y="276.72375"/>
      </g>
     </g>
    </g>
    <g id="xtick_19">
     <g id="line2d_37">
      <path clip-path="url(#p4500d2ddec)" d="M 298.902847 276.72375 
L 298.902847 25.020625 
" style="fill:none;stroke:#555555;stroke-dasharray:0.8,1.32;stroke-dashoffset:0;stroke-width:0.8;"/>
     </g>
     <g id="line2d_38">
      <g>
       <use style="stroke:#000000;stroke-width:0.6;" x="298.902847" xlink:href="#ma33728ac61" y="276.72375"/>
      </g>
     </g>
    </g>
    <g id="xtick_20">
     <g id="line2d_39">
      <path clip-path="url(#p4500d2ddec)" d="M 312.468642 276.72375 
L 312.468642 25.020625 
" style="fill:none;stroke:#555555;stroke-dasharray:0.8,1.32;stroke-dashoffset:0;stroke-width:0.8;"/>
     </g>
     <g id="line2d_40">
      <g>
       <use style="stroke:#000000;stroke-width:0.6;" x="312.468642" xlink:href="#ma33728ac61" y="276.72375"/>
      </g>
     </g>
    </g>
    <g id="xtick_21">
     <g id="line2d_41">
      <path clip-path="url(#p4500d2ddec)" d="M 326.034437 276.72375 
L 326.034437 25.020625 
" style="fill:none;stroke:#555555;stroke-dasharray:0.8,1.32;stroke-dashoffset:0;stroke-width:0.8;"/>
     </g>
     <g id="line2d_42">
      <g>
       <use style="stroke:#000000;stroke-width:0.6;" x="326.034437" xlink:href="#ma33728ac61" y="276.72375"/>
      </g>
     </g>
    </g>
    <g id="xtick_22">
     <g id="line2d_43">
      <path clip-path="url(#p4500d2ddec)" d="M 339.600231 276.72375 
L 339.600231 25.020625 
" style="fill:none;stroke:#555555;stroke-dasharray:0.8,1.32;stroke-dashoffset:0;stroke-width:0.8;"/>
     </g>
     <g id="line2d_44">
      <g>
       <use style="stroke:#000000;stroke-width:0.6;" x="339.600231" xlink:href="#ma33728ac61" y="276.72375"/>
      </g>
     </g>
    </g>
    <g id="xtick_23">
     <g id="line2d_45">
      <path clip-path="url(#p4500d2ddec)" d="M 366.731821 276.72375 
L 366.731821 25.020625 
" style="fill:none;stroke:#555555;stroke-dasharray:0.8,1.32;stroke-dashoffset:0;stroke-width:0.8;"/>
     </g>
     <g id="line2d_46">
      <g>
       <use style="stroke:#000000;stroke-width:0.6;" x="366.731821" xlink:href="#ma33728ac61" y="276.72375"/>
      </g>
     </g>
    </g>
    <g id="xtick_24">
     <g id="line2d_47">
      <path clip-path="url(#p4500d2ddec)" d="M 380.297616 276.72375 
L 380.297616 25.020625 
" style="fill:none;stroke:#555555;stroke-dasharray:0.8,1.32;stroke-dashoffset:0;stroke-width:0.8;"/>
     </g>
     <g id="line2d_48">
      <g>
       <use style="stroke:#000000;stroke-width:0.6;" x="380.297616" xlink:href="#ma33728ac61" y="276.72375"/>
      </g>
     </g>
    </g>
    <g id="xtick_25">
     <g id="line2d_49">
      <path clip-path="url(#p4500d2ddec)" d="M 393.86341 276.72375 
L 393.86341 25.020625 
" style="fill:none;stroke:#555555;stroke-dasharray:0.8,1.32;stroke-dashoffset:0;stroke-width:0.8;"/>
     </g>
     <g id="line2d_50">
      <g>
       <use style="stroke:#000000;stroke-width:0.6;" x="393.86341" xlink:href="#ma33728ac61" y="276.72375"/>
      </g>
     </g>
    </g>
    <g id="xtick_26">
     <g id="line2d_51">
      <path clip-path="url(#p4500d2ddec)" d="M 407.429205 276.72375 
L 407.429205 25.020625 
" style="fill:none;stroke:#555555;stroke-dasharray:0.8,1.32;stroke-dashoffset:0;stroke-width:0.8;"/>
     </g>
     <g id="line2d_52">
      <g>
       <use style="stroke:#000000;stroke-width:0.6;" x="407.429205" xlink:href="#ma33728ac61" y="276.72375"/>
      </g>
     </g>
    </g>
    <g id="text_7">
     <!-- Harmonic order $n =\frac{\omega}{\omega_0}$ -->
     <g transform="translate(168.782566 316.18875)scale(0.16 -0.16)">
      <defs>
       <path d="M 3104 0 
L 3104 2067 
L 1248 2067 
L 1248 0 
L 640 0 
L 640 4410 
L 1248 4410 
L 1248 2566 
L 3104 2566 
L 3104 4410 
L 3712 4410 
L 3712 0 
L 3104 0 
z
" id="FiraSans-Regular-48" transform="scale(0.015625)"/>
       <path d="M 2880 787 
Q 2880 582 2950 483 
Q 3021 384 3162 333 
L 3027 -77 
Q 2765 -45 2605 70 
Q 2445 186 2368 429 
Q 2029 -77 1363 -77 
Q 864 -77 576 204 
Q 288 486 288 941 
Q 288 1478 675 1766 
Q 1062 2054 1773 2054 
L 2291 2054 
L 2291 2304 
Q 2291 2662 2118 2816 
Q 1946 2970 1587 2970 
Q 1216 2970 678 2790 
L 531 3219 
Q 1158 3450 1696 3450 
Q 2291 3450 2585 3158 
Q 2880 2867 2880 2330 
L 2880 787 
z
M 1498 365 
Q 2003 365 2291 890 
L 2291 1664 
L 1850 1664 
Q 915 1664 915 973 
Q 915 672 1062 518 
Q 1210 365 1498 365 
z
" id="FiraSans-Regular-61" transform="scale(0.015625)"/>
       <path d="M 2074 3450 
Q 2253 3450 2406 3411 
L 2298 2835 
Q 2144 2874 2003 2874 
Q 1690 2874 1498 2643 
Q 1306 2413 1197 1926 
L 1197 0 
L 608 0 
L 608 3373 
L 1114 3373 
L 1171 2688 
Q 1306 3066 1536 3258 
Q 1766 3450 2074 3450 
z
" id="FiraSans-Regular-72" transform="scale(0.015625)"/>
       <path d="M 3994 3450 
Q 4410 3450 4659 3171 
Q 4909 2893 4909 2419 
L 4909 0 
L 4320 0 
L 4320 2336 
Q 4320 2989 3846 2989 
Q 3597 2989 3424 2845 
Q 3251 2701 3053 2394 
L 3053 0 
L 2464 0 
L 2464 2336 
Q 2464 2989 1990 2989 
Q 1734 2989 1561 2841 
Q 1389 2694 1197 2394 
L 1197 0 
L 608 0 
L 608 3373 
L 1114 3373 
L 1165 2880 
Q 1542 3450 2138 3450 
Q 2451 3450 2672 3290 
Q 2893 3130 2989 2842 
Q 3187 3136 3427 3293 
Q 3667 3450 3994 3450 
z
" id="FiraSans-Regular-6d" transform="scale(0.015625)"/>
       <path d="M 1875 3450 
Q 2586 3450 2979 2976 
Q 3373 2502 3373 1690 
Q 3373 1165 3193 765 
Q 3014 365 2675 144 
Q 2336 -77 1869 -77 
Q 1158 -77 761 396 
Q 365 870 365 1683 
Q 365 2208 544 2608 
Q 723 3008 1062 3229 
Q 1402 3450 1875 3450 
z
M 1875 2976 
Q 998 2976 998 1683 
Q 998 397 1869 397 
Q 2739 397 2739 1690 
Q 2739 2976 1875 2976 
z
" id="FiraSans-Regular-6f" transform="scale(0.015625)"/>
       <path d="M 2195 3450 
Q 2656 3450 2915 3174 
Q 3174 2899 3174 2419 
L 3174 0 
L 2586 0 
L 2586 2336 
Q 2586 2694 2451 2841 
Q 2317 2989 2054 2989 
Q 1786 2989 1581 2835 
Q 1376 2682 1197 2394 
L 1197 0 
L 608 0 
L 608 3373 
L 1114 3373 
L 1165 2874 
Q 1344 3142 1609 3296 
Q 1875 3450 2195 3450 
z
" id="FiraSans-Regular-6e" transform="scale(0.015625)"/>
       <path d="M 1197 3373 
L 1197 0 
L 608 0 
L 608 3373 
L 1197 3373 
z
M 896 4992 
Q 1082 4992 1197 4877 
Q 1312 4762 1312 4589 
Q 1312 4416 1197 4304 
Q 1082 4192 896 4192 
Q 717 4192 601 4304 
Q 486 4416 486 4589 
Q 486 4762 601 4877 
Q 717 4992 896 4992 
z
" id="FiraSans-Regular-69" transform="scale(0.015625)"/>
       <path d="M 1837 3450 
Q 2138 3450 2387 3363 
Q 2637 3277 2867 3085 
L 2586 2714 
Q 2406 2842 2236 2902 
Q 2067 2963 1862 2963 
Q 1453 2963 1225 2636 
Q 998 2310 998 1670 
Q 998 1030 1222 726 
Q 1446 422 1862 422 
Q 2061 422 2227 483 
Q 2394 544 2598 678 
L 2867 294 
Q 2406 -77 1837 -77 
Q 1152 -77 758 384 
Q 365 845 365 1658 
Q 365 2195 544 2598 
Q 723 3002 1052 3226 
Q 1382 3450 1837 3450 
z
" id="FiraSans-Regular-63" transform="scale(0.015625)"/>
       <path id="FiraSans-Regular-20" transform="scale(0.015625)"/>
       <path d="M 3219 4730 
L 3219 0 
L 2701 0 
L 2643 467 
Q 2477 211 2227 67 
Q 1978 -77 1670 -77 
Q 1069 -77 733 396 
Q 397 870 397 1670 
Q 397 2189 557 2592 
Q 717 2995 1017 3222 
Q 1318 3450 1722 3450 
Q 2240 3450 2630 3034 
L 2630 4800 
L 3219 4730 
z
M 1798 390 
Q 2067 390 2259 515 
Q 2451 640 2630 890 
L 2630 2541 
Q 2464 2758 2275 2870 
Q 2086 2982 1850 2982 
Q 1459 2982 1244 2656 
Q 1030 2330 1030 1683 
Q 1030 1030 1228 710 
Q 1427 390 1798 390 
z
" id="FiraSans-Regular-64" transform="scale(0.015625)"/>
       <path d="M 3155 1786 
Q 3155 1638 3142 1485 
L 992 1485 
Q 1030 928 1273 665 
Q 1517 403 1901 403 
Q 2144 403 2349 473 
Q 2554 544 2778 698 
L 3034 346 
Q 2496 -77 1856 -77 
Q 1152 -77 758 384 
Q 365 845 365 1651 
Q 365 2176 534 2582 
Q 704 2989 1021 3219 
Q 1338 3450 1766 3450 
Q 2438 3450 2796 3008 
Q 3155 2566 3155 1786 
z
M 2573 1958 
Q 2573 2458 2374 2720 
Q 2176 2982 1779 2982 
Q 1056 2982 992 1920 
L 2573 1920 
L 2573 1958 
z
" id="FiraSans-Regular-65" transform="scale(0.015625)"/>
       <path d="M 3566 2113 
L 3156 0 
L 2578 0 
L 2988 2091 
Q 3016 2238 3031 2350 
Q 3047 2463 3047 2528 
Q 3047 2791 2881 2937 
Q 2716 3084 2419 3084 
Q 1956 3084 1622 2776 
Q 1288 2469 1184 1941 
L 800 0 
L 225 0 
L 903 3500 
L 1478 3500 
L 1363 2950 
Q 1603 3253 1940 3418 
Q 2278 3584 2650 3584 
Q 3113 3584 3367 3334 
Q 3622 3084 3622 2631 
Q 3622 2519 3608 2391 
Q 3594 2263 3566 2113 
z
" id="DejaVuSans-Oblique-6e" transform="scale(0.015625)"/>
       <path d="M 678 2638 
L 4684 2638 
L 4684 2381 
L 678 2381 
L 678 2638 
z
M 678 1631 
L 4684 1631 
L 4684 1375 
L 678 1375 
L 678 1631 
z
" id="DejaVuSans-ExtraLight-3d" transform="scale(0.015625)"/>
       <path d="M 1369 -91 
Q 72 -91 434 1766 
Q 575 2500 1256 3500 
L 1875 3500 
Q 1231 2500 1088 1750 
Q 819 397 1519 397 
Q 2166 397 2478 2078 
L 3009 2078 
Q 2669 388 3316 397 
Q 4013 403 4275 1750 
Q 4419 2500 4169 3500 
L 4788 3500 
Q 5075 2500 4934 1766 
Q 4578 -94 3278 -91 
Q 2428 -88 2503 844 
Q 2194 -91 1369 -91 
z
" id="DejaVuSans-Oblique-3c9" transform="scale(0.015625)"/>
       <path d="M 2016 4494 
Q 1444 4494 1166 3938 
Q 888 3378 888 2328 
Q 888 1278 1166 719 
Q 1444 163 2016 163 
Q 2606 163 2884 719 
Q 3163 1278 3163 2328 
Q 3163 3378 2884 3938 
Q 2606 4494 2016 4494 
z
M 2016 4750 
Q 2691 4750 3084 4200 
Q 3478 3647 3478 2328 
Q 3478 1009 3084 456 
Q 2691 -94 2016 -94 
Q 1359 -94 966 456 
Q 572 1009 572 2328 
Q 572 3647 966 4200 
Q 1359 4750 2016 4750 
z
" id="DejaVuSans-ExtraLight-30" transform="scale(0.015625)"/>
      </defs>
      <use transform="translate(0 0.839062)" xlink:href="#FiraSans-Regular-48"/>
      <use transform="translate(67.999985 0.839062)" xlink:href="#FiraSans-Regular-61"/>
      <use transform="translate(122.399979 0.839062)" xlink:href="#FiraSans-Regular-72"/>
      <use transform="translate(160.999969 0.839062)" xlink:href="#FiraSans-Regular-6d"/>
      <use transform="translate(246.699951 0.839062)" xlink:href="#FiraSans-Regular-6f"/>
      <use transform="translate(305.099945 0.839062)" xlink:href="#FiraSans-Regular-6e"/>
      <use transform="translate(363.699936 0.839062)" xlink:href="#FiraSans-Regular-69"/>
      <use transform="translate(391.899933 0.839062)" xlink:href="#FiraSans-Regular-63"/>
      <use transform="translate(439.699921 0.839062)" xlink:href="#FiraSans-Regular-20"/>
      <use transform="translate(466.199905 0.839062)" xlink:href="#FiraSans-Regular-6f"/>
      <use transform="translate(524.599899 0.839062)" xlink:href="#FiraSans-Regular-72"/>
      <use transform="translate(563.19989 0.839062)" xlink:href="#FiraSans-Regular-64"/>
      <use transform="translate(622.999878 0.839062)" xlink:href="#FiraSans-Regular-65"/>
      <use transform="translate(677.499863 0.839062)" xlink:href="#FiraSans-Regular-72"/>
      <use transform="translate(716.099854 0.839062)" xlink:href="#FiraSans-Regular-20"/>
      <use transform="translate(742.599838 0.839062)" xlink:href="#DejaVuSans-Oblique-6e"/>
      <use transform="translate(825.461166 0.839062)" xlink:href="#DejaVuSans-ExtraLight-3d"/>
      <use transform="translate(945.732651 45.71875)scale(0.7)" xlink:href="#DejaVuSans-Oblique-3c9"/>
      <use transform="translate(928.732651 -24.840625)scale(0.7)" xlink:href="#DejaVuSans-Oblique-3c9"/>
      <use transform="translate(987.350815 -36.325)scale(0.49)" xlink:href="#DejaVuSans-ExtraLight-30"/>
      <path d="M 928.732651 19.690625 
L 928.732651 25.940625 
L 1020.44017 25.940625 
L 1020.44017 19.690625 
L 928.732651 19.690625 
z
"/>
     </g>
    </g>
   </g>
   <g id="matplotlib.axis_2">
    <g id="ytick_1">
     <g id="line2d_53">
      <path clip-path="url(#p4500d2ddec)" d="M 81.850131 276.72375 
L 420.995 276.72375 
" style="fill:none;stroke:#555555;stroke-linecap:square;"/>
     </g>
     <g id="line2d_54">
      <defs>
       <path d="M 0 0 
L -3.5 0 
" id="m0ee6a990c7" style="stroke:#000000;stroke-width:0.8;"/>
      </defs>
      <g>
       <use style="stroke:#000000;stroke-width:0.8;" x="81.850131" xlink:href="#m0ee6a990c7" y="276.72375"/>
      </g>
     </g>
     <g id="text_8">
      <!-- $\mathdefault{10^{-14}}$ -->
      <g transform="translate(43.490131 282.63625)scale(0.16 -0.16)">
       <defs>
        <path d="M 474 2221 
L 2656 2221 
L 2656 2016 
L 474 2016 
L 474 2221 
z
" id="FiraSans-UltraLight-2212" transform="scale(0.015625)"/>
        <path d="M 3002 1165 
L 2419 1165 
L 2419 0 
L 2202 0 
L 2202 1165 
L 314 1165 
L 314 1338 
L 1619 4314 
L 1805 4237 
L 550 1363 
L 2202 1363 
L 2227 2675 
L 2419 2675 
L 2419 1363 
L 3002 1363 
L 3002 1165 
z
" id="FiraSans-UltraLight-34" transform="scale(0.015625)"/>
       </defs>
       <use transform="translate(0 0.415625)" xlink:href="#FiraSans-UltraLight-31"/>
       <use transform="translate(39.799988 0.415625)" xlink:href="#FiraSans-UltraLight-30"/>
       <use transform="translate(95.109982 36.815625)scale(0.7)" xlink:href="#FiraSans-UltraLight-2212"/>
       <use transform="translate(129.339977 36.815625)scale(0.7)" xlink:href="#FiraSans-UltraLight-31"/>
       <use transform="translate(157.199969 36.815625)scale(0.7)" xlink:href="#FiraSans-UltraLight-34"/>
      </g>
     </g>
    </g>
    <g id="ytick_2">
     <g id="line2d_55">
      <path clip-path="url(#p4500d2ddec)" d="M 81.850131 234.773229 
L 420.995 234.773229 
" style="fill:none;stroke:#555555;stroke-linecap:square;"/>
     </g>
     <g id="line2d_56">
      <g>
       <use style="stroke:#000000;stroke-width:0.8;" x="81.850131" xlink:href="#m0ee6a990c7" y="234.773229"/>
      </g>
     </g>
     <g id="text_9">
      <!-- $\mathdefault{10^{-12}}$ -->
      <g transform="translate(43.970131 240.685729)scale(0.16 -0.16)">
       <use transform="translate(0 0.415625)" xlink:href="#FiraSans-UltraLight-31"/>
       <use transform="translate(39.799988 0.415625)" xlink:href="#FiraSans-UltraLight-30"/>
       <use transform="translate(95.109982 36.815625)scale(0.7)" xlink:href="#FiraSans-UltraLight-2212"/>
       <use transform="translate(129.339977 36.815625)scale(0.7)" xlink:href="#FiraSans-UltraLight-31"/>
       <use transform="translate(157.199969 36.815625)scale(0.7)" xlink:href="#FiraSans-UltraLight-32"/>
      </g>
     </g>
    </g>
    <g id="ytick_3">
     <g id="line2d_57">
      <path clip-path="url(#p4500d2ddec)" d="M 81.850131 192.822708 
L 420.995 192.822708 
" style="fill:none;stroke:#555555;stroke-linecap:square;"/>
     </g>
     <g id="line2d_58">
      <g>
       <use style="stroke:#000000;stroke-width:0.8;" x="81.850131" xlink:href="#m0ee6a990c7" y="192.822708"/>
      </g>
     </g>
     <g id="text_10">
      <!-- $\mathdefault{10^{-10}}$ -->
      <g transform="translate(43.170131 198.735208)scale(0.16 -0.16)">
       <use transform="translate(0 0.415625)" xlink:href="#FiraSans-UltraLight-31"/>
       <use transform="translate(39.799988 0.415625)" xlink:href="#FiraSans-UltraLight-30"/>
       <use transform="translate(95.109982 36.815625)scale(0.7)" xlink:href="#FiraSans-UltraLight-2212"/>
       <use transform="translate(129.339977 36.815625)scale(0.7)" xlink:href="#FiraSans-UltraLight-31"/>
       <use transform="translate(157.199969 36.815625)scale(0.7)" xlink:href="#FiraSans-UltraLight-30"/>
      </g>
     </g>
    </g>
    <g id="ytick_4">
     <g id="line2d_59">
      <path clip-path="url(#p4500d2ddec)" d="M 81.850131 150.872187 
L 420.995 150.872187 
" style="fill:none;stroke:#555555;stroke-linecap:square;"/>
     </g>
     <g id="line2d_60">
      <g>
       <use style="stroke:#000000;stroke-width:0.8;" x="81.850131" xlink:href="#m0ee6a990c7" y="150.872187"/>
      </g>
     </g>
     <g id="text_11">
      <!-- $\mathdefault{10^{-8}}$ -->
      <g transform="translate(47.810131 156.784687)scale(0.16 -0.16)">
       <defs>
        <path d="M 2022 2227 
Q 2554 2010 2781 1760 
Q 3008 1510 3008 1082 
Q 3008 557 2640 246 
Q 2272 -64 1683 -64 
Q 1088 -64 733 249 
Q 378 563 378 1075 
Q 378 1510 627 1824 
Q 877 2138 1350 2304 
Q 934 2477 752 2694 
Q 570 2912 570 3277 
Q 570 3590 723 3827 
Q 877 4064 1136 4189 
Q 1395 4314 1696 4314 
Q 1990 4314 2249 4195 
Q 2509 4077 2665 3840 
Q 2822 3603 2822 3270 
Q 2822 2931 2630 2684 
Q 2438 2438 2022 2227 
z
M 794 3270 
Q 794 2957 957 2771 
Q 1120 2586 1574 2406 
L 1837 2304 
Q 2240 2509 2419 2729 
Q 2598 2950 2598 3264 
Q 2598 3674 2345 3898 
Q 2093 4122 1696 4122 
Q 1306 4122 1050 3894 
Q 794 3667 794 3270 
z
M 1690 141 
Q 2176 141 2477 384 
Q 2778 627 2778 1082 
Q 2778 1357 2678 1539 
Q 2579 1722 2380 1850 
Q 2182 1978 1824 2118 
L 1568 2221 
Q 1056 2042 829 1770 
Q 602 1498 602 1075 
Q 602 627 899 384 
Q 1197 141 1690 141 
z
" id="FiraSans-UltraLight-38" transform="scale(0.015625)"/>
       </defs>
       <use transform="translate(0 0.415625)" xlink:href="#FiraSans-UltraLight-31"/>
       <use transform="translate(39.799988 0.415625)" xlink:href="#FiraSans-UltraLight-30"/>
       <use transform="translate(95.109982 36.815625)scale(0.7)" xlink:href="#FiraSans-UltraLight-2212"/>
       <use transform="translate(129.339977 36.815625)scale(0.7)" xlink:href="#FiraSans-UltraLight-38"/>
      </g>
     </g>
    </g>
    <g id="ytick_5">
     <g id="line2d_61">
      <path clip-path="url(#p4500d2ddec)" d="M 81.850131 108.921667 
L 420.995 108.921667 
" style="fill:none;stroke:#555555;stroke-linecap:square;"/>
     </g>
     <g id="line2d_62">
      <g>
       <use style="stroke:#000000;stroke-width:0.8;" x="81.850131" xlink:href="#m0ee6a990c7" y="108.921667"/>
      </g>
     </g>
     <g id="text_12">
      <!-- $\mathdefault{10^{-6}}$ -->
      <g transform="translate(47.810131 114.834167)scale(0.16 -0.16)">
       <defs>
        <path d="M 1837 2746 
Q 2317 2746 2624 2406 
Q 2931 2067 2931 1421 
Q 2931 960 2784 624 
Q 2637 288 2371 112 
Q 2106 -64 1760 -64 
Q 1088 -64 781 467 
Q 474 998 474 1862 
Q 474 2624 653 3174 
Q 832 3725 1161 4019 
Q 1491 4314 1946 4314 
Q 2170 4314 2339 4253 
Q 2509 4192 2682 4070 
L 2566 3910 
Q 2419 4013 2268 4064 
Q 2118 4115 1939 4115 
Q 1562 4115 1283 3849 
Q 1005 3584 857 3117 
Q 710 2650 698 2054 
Q 1146 2746 1837 2746 
z
M 1760 134 
Q 2214 134 2460 486 
Q 2707 838 2707 1414 
Q 2707 1978 2464 2262 
Q 2221 2547 1824 2547 
Q 1472 2547 1184 2339 
Q 896 2131 698 1766 
Q 710 998 966 566 
Q 1222 134 1760 134 
z
" id="FiraSans-UltraLight-36" transform="scale(0.015625)"/>
       </defs>
       <use transform="translate(0 0.415625)" xlink:href="#FiraSans-UltraLight-31"/>
       <use transform="translate(39.799988 0.415625)" xlink:href="#FiraSans-UltraLight-30"/>
       <use transform="translate(95.109982 36.815625)scale(0.7)" xlink:href="#FiraSans-UltraLight-2212"/>
       <use transform="translate(129.339977 36.815625)scale(0.7)" xlink:href="#FiraSans-UltraLight-36"/>
      </g>
     </g>
    </g>
    <g id="ytick_6">
     <g id="line2d_63">
      <path clip-path="url(#p4500d2ddec)" d="M 81.850131 66.971146 
L 420.995 66.971146 
" style="fill:none;stroke:#555555;stroke-linecap:square;"/>
     </g>
     <g id="line2d_64">
      <g>
       <use style="stroke:#000000;stroke-width:0.8;" x="81.850131" xlink:href="#m0ee6a990c7" y="66.971146"/>
      </g>
     </g>
     <g id="text_13">
      <!-- $\mathdefault{10^{-4}}$ -->
      <g transform="translate(47.970131 72.883646)scale(0.16 -0.16)">
       <use transform="translate(0 0.415625)" xlink:href="#FiraSans-UltraLight-31"/>
       <use transform="translate(39.799988 0.415625)" xlink:href="#FiraSans-UltraLight-30"/>
       <use transform="translate(95.109982 36.815625)scale(0.7)" xlink:href="#FiraSans-UltraLight-2212"/>
       <use transform="translate(129.339977 36.815625)scale(0.7)" xlink:href="#FiraSans-UltraLight-34"/>
      </g>
     </g>
    </g>
    <g id="ytick_7">
     <g id="line2d_65">
      <path clip-path="url(#p4500d2ddec)" d="M 81.850131 25.020625 
L 420.995 25.020625 
" style="fill:none;stroke:#555555;stroke-linecap:square;"/>
     </g>
     <g id="line2d_66">
      <g>
       <use style="stroke:#000000;stroke-width:0.8;" x="81.850131" xlink:href="#m0ee6a990c7" y="25.020625"/>
      </g>
     </g>
     <g id="text_14">
      <!-- $\mathdefault{10^{-2}}$ -->
      <g transform="translate(48.450131 30.933125)scale(0.16 -0.16)">
       <use transform="translate(0 0.415625)" xlink:href="#FiraSans-UltraLight-31"/>
       <use transform="translate(39.799988 0.415625)" xlink:href="#FiraSans-UltraLight-30"/>
       <use transform="translate(95.109982 36.815625)scale(0.7)" xlink:href="#FiraSans-UltraLight-2212"/>
       <use transform="translate(129.339977 36.815625)scale(0.7)" xlink:href="#FiraSans-UltraLight-32"/>
      </g>
     </g>
    </g>
    <g id="text_15">
     <!-- Intesity $I_x$ -->
     <g transform="translate(35.650131 186.072187)rotate(-90)scale(0.16 -0.16)">
      <defs>
       <path d="M 1248 4410 
L 1248 0 
L 640 0 
L 640 4410 
L 1248 4410 
z
" id="FiraSans-Regular-49" transform="scale(0.015625)"/>
       <path d="M 2310 154 
Q 1978 -77 1555 -77 
Q 1126 -77 886 169 
Q 646 416 646 883 
L 646 2918 
L 58 2918 
L 58 3373 
L 646 3373 
L 646 4134 
L 1235 4205 
L 1235 3373 
L 2035 3373 
L 1971 2918 
L 1235 2918 
L 1235 909 
Q 1235 646 1328 528 
Q 1421 410 1638 410 
Q 1837 410 2086 544 
L 2310 154 
z
" id="FiraSans-Regular-74" transform="scale(0.015625)"/>
       <path d="M 1523 3450 
Q 1869 3450 2144 3354 
Q 2419 3258 2669 3066 
L 2419 2694 
Q 2189 2842 1981 2912 
Q 1773 2982 1542 2982 
Q 1254 2982 1088 2864 
Q 922 2746 922 2541 
Q 922 2336 1078 2221 
Q 1235 2106 1645 1997 
Q 2208 1856 2486 1613 
Q 2765 1370 2765 947 
Q 2765 448 2377 185 
Q 1990 -77 1434 -77 
Q 666 -77 160 365 
L 474 723 
Q 902 397 1421 397 
Q 1754 397 1949 534 
Q 2144 672 2144 909 
Q 2144 1082 2073 1187 
Q 2003 1293 1830 1373 
Q 1658 1453 1325 1542 
Q 787 1683 547 1920 
Q 307 2157 307 2522 
Q 307 2784 464 2998 
Q 621 3213 899 3331 
Q 1178 3450 1523 3450 
z
" id="FiraSans-Regular-73" transform="scale(0.015625)"/>
       <path d="M 1958 -19 
Q 1760 -608 1405 -950 
Q 1050 -1293 390 -1363 
L 326 -902 
Q 659 -845 857 -736 
Q 1056 -627 1174 -457 
Q 1293 -288 1395 0 
L 1197 0 
L 64 3373 
L 691 3373 
L 1594 429 
L 2477 3373 
L 3085 3373 
L 1958 -19 
z
" id="FiraSans-Regular-79" transform="scale(0.015625)"/>
       <path d="M 1081 4666 
L 1716 4666 
L 806 0 
L 172 0 
L 1081 4666 
z
" id="DejaVuSans-Oblique-49" transform="scale(0.015625)"/>
       <path d="M 3841 3500 
L 2234 1784 
L 3219 0 
L 2559 0 
L 1819 1388 
L 531 0 
L -166 0 
L 1556 1844 
L 641 3500 
L 1300 3500 
L 1972 2234 
L 3144 3500 
L 3841 3500 
z
" id="DejaVuSans-Oblique-78" transform="scale(0.015625)"/>
      </defs>
      <use xlink:href="#FiraSans-Regular-49"/>
      <use transform="translate(29.499985 0)" xlink:href="#FiraSans-Regular-6e"/>
      <use transform="translate(88.099976 0)" xlink:href="#FiraSans-Regular-74"/>
      <use transform="translate(124.199966 0)" xlink:href="#FiraSans-Regular-65"/>
      <use transform="translate(178.699951 0)" xlink:href="#FiraSans-Regular-73"/>
      <use transform="translate(225.399948 0)" xlink:href="#FiraSans-Regular-69"/>
      <use transform="translate(253.599945 0)" xlink:href="#FiraSans-Regular-74"/>
      <use transform="translate(289.699936 0)" xlink:href="#FiraSans-Regular-79"/>
      <use transform="translate(338.899933 0)" xlink:href="#FiraSans-Regular-20"/>
      <use transform="translate(365.399918 0)" xlink:href="#DejaVuSans-Oblique-49"/>
      <use transform="translate(394.892105 -16.40625)scale(0.7)" xlink:href="#DejaVuSans-Oblique-78"/>
     </g>
    </g>
   </g>
   <g id="line2d_67">
    <path clip-path="url(#p4500d2ddec)" d="M 80.493552 42.529757 
L 81.850131 40.80129 
L 83.206711 40.151798 
L 84.56329 40.496149 
L 85.91987 41.732903 
L 87.276449 43.662085 
L 88.633029 45.865835 
L 89.989608 47.743644 
L 94.059347 51.728572 
L 95.415926 53.720942 
L 96.772505 56.261607 
L 98.129085 59.350898 
L 99.485664 63.073986 
L 100.842244 67.560206 
L 102.198823 71.394296 
L 103.555403 69.998838 
L 104.911982 66.862425 
L 106.268562 64.688457 
L 107.625141 63.463189 
L 108.981721 62.987287 
L 110.3383 63.136659 
L 111.69488 63.820456 
L 113.051459 64.976295 
L 114.408039 66.527568 
L 115.764618 68.406296 
L 118.477777 72.848638 
L 119.834357 75.346883 
L 121.190936 78.082179 
L 122.547515 81.115657 
L 123.904095 84.588062 
L 125.260674 88.61477 
L 127.973833 97.94344 
L 129.330413 98.355035 
L 130.686992 95.994754 
L 132.043572 94.035001 
L 133.400151 92.895534 
L 134.756731 92.397589 
L 136.11331 92.432601 
L 137.46989 92.939389 
L 138.826469 93.839953 
L 140.183049 95.143217 
L 141.539628 96.761839 
L 142.896208 98.753824 
L 144.252787 100.99968 
L 146.965946 106.468962 
L 149.679105 113.318494 
L 152.392264 122.177463 
L 153.748843 127.538153 
L 155.105423 130.830715 
L 156.462002 129.258103 
L 157.818582 128.218279 
L 159.175161 126.691318 
L 161.88832 126.336706 
L 163.2449 126.877429 
L 164.601479 127.626273 
L 165.958059 128.708029 
L 168.671218 131.827681 
L 170.027797 134.35161 
L 171.384377 136.128485 
L 172.740956 139.864324 
L 174.097536 141.537927 
L 175.454115 147.393635 
L 176.810694 148.004149 
L 178.167274 159.170034 
L 179.523853 155.629537 
L 180.880433 163.307654 
L 182.237012 165.715757 
L 183.593592 158.52756 
L 184.950171 189.411814 
L 186.306751 157.886216 
L 187.66333 169.16021 
L 189.01991 158.917195 
L 190.376489 165.543623 
L 191.733069 160.966002 
L 193.089648 164.449532 
L 194.446228 163.597182 
L 195.802807 164.413332 
L 197.159387 166.156156 
L 198.515966 164.90978 
L 199.872546 167.655335 
L 201.229125 165.719123 
L 202.585705 167.928271 
L 203.942284 166.62823 
L 205.298863 167.838018 
L 206.655443 167.444487 
L 208.012022 167.871429 
L 209.368602 168.104629 
L 210.725181 168.071043 
L 212.081761 168.60447 
L 213.43834 168.415265 
L 214.79492 168.968722 
L 216.151499 168.838357 
L 217.508079 169.287833 
L 218.864658 169.259171 
L 220.221238 169.61514 
L 221.577817 169.665409 
L 222.934397 169.942667 
L 225.647556 170.26314 
L 232.430453 171.159617 
L 236.500191 171.63107 
L 239.21335 171.970485 
L 243.283089 172.485647 
L 255.492304 173.921901 
L 267.701519 175.29952 
L 290.76337 177.705814 
L 294.833109 178.075215 
L 297.546268 178.390305 
L 301.616006 178.749352 
L 305.685745 179.167602 
L 313.825221 179.912466 
L 324.677857 180.947208 
L 326.034437 180.969469 
L 327.391016 181.166436 
L 331.460755 181.485415 
L 335.530493 181.865137 
L 340.956811 182.294466 
L 345.026549 182.672706 
L 347.739708 182.866275 
L 349.096288 183.014707 
L 350.452867 183.039231 
L 351.809447 183.255591 
L 354.522606 183.41661 
L 358.592344 183.757589 
L 366.731821 184.395579 
L 406.072626 187.317957 
L 408.785785 187.511468 
L 416.925262 188.047805 
L 422.351579 188.473902 
L 422.351579 188.473902 
" style="fill:none;stroke:#000000;stroke-linecap:square;stroke-width:2.5;"/>
   </g>
   <g id="line2d_68">
    <path clip-path="url(#p4500d2ddec)" d="M 80.493552 49.92864 
L 81.850131 60.288613 
L 83.206711 45.705806 
L 84.56329 41.771915 
L 85.91987 40.639519 
L 87.276449 40.824432 
L 88.633029 41.540963 
L 89.989608 42.643432 
L 91.346188 44.261348 
L 92.702767 45.519632 
L 94.059347 44.999379 
L 95.415926 43.978079 
L 96.772505 43.972752 
L 98.129085 45.367845 
L 99.485664 48.232867 
L 100.842244 52.568307 
L 102.198823 57.737576 
L 103.555403 60.854047 
L 104.911982 61.088517 
L 106.268562 58.050555 
L 107.625141 52.547864 
L 108.981721 47.898755 
L 110.3383 44.56327 
L 111.69488 42.312079 
L 113.051459 40.958336 
L 114.408039 40.411037 
L 115.764618 40.667975 
L 117.121198 41.787228 
L 118.477777 43.852199 
L 121.190936 49.842488 
L 122.547515 50.956721 
L 123.904095 50.562169 
L 125.260674 50.55518 
L 126.617254 51.47481 
L 127.973833 53.256745 
L 129.330413 55.773445 
L 130.686992 59.158631 
L 132.043572 64.075604 
L 133.400151 66.159166 
L 134.756731 59.874096 
L 136.11331 55.212338 
L 137.46989 52.253869 
L 138.826469 50.447038 
L 140.183049 49.526525 
L 141.539628 49.376215 
L 142.896208 49.959226 
L 144.252787 51.300544 
L 145.609367 53.467815 
L 146.965946 56.533298 
L 148.322526 60.285578 
L 149.679105 63.231479 
L 151.035684 63.613756 
L 152.392264 63.200447 
L 153.748843 63.461724 
L 155.105423 64.541917 
L 156.462002 66.240818 
L 157.818582 68.202205 
L 159.175161 69.502208 
L 160.531741 68.576676 
L 163.2449 63.168098 
L 164.601479 61.023517 
L 165.958059 59.545637 
L 167.314638 58.6992 
L 168.671218 58.435548 
L 170.027797 58.717167 
L 171.384377 59.512358 
L 172.740956 60.794871 
L 174.097536 62.534475 
L 175.454115 64.693167 
L 176.810694 67.212792 
L 179.523853 72.960789 
L 182.237012 79.148096 
L 183.593592 82.946616 
L 184.950171 87.506369 
L 186.306751 85.479655 
L 187.66333 79.503902 
L 189.01991 75.011625 
L 190.376489 71.682987 
L 191.733069 69.15737 
L 193.089648 67.262325 
L 194.446228 65.909914 
L 195.802807 65.055325 
L 197.159387 64.672395 
L 198.515966 64.744398 
L 199.872546 65.258891 
L 201.229125 66.204781 
L 202.585705 67.573437 
L 203.942284 69.3599 
L 205.298863 71.574654 
L 206.655443 74.262047 
L 208.012022 77.547769 
L 209.368602 81.698712 
L 210.725181 86.924749 
L 212.081761 89.474607 
L 214.79492 82.204048 
L 216.151499 79.645514 
L 217.508079 77.703287 
L 218.864658 76.172808 
L 220.221238 74.974606 
L 221.577817 74.100192 
L 222.934397 73.57287 
L 224.290976 73.426201 
L 225.647556 73.699087 
L 227.004135 74.432359 
L 228.360715 75.680934 
L 229.717294 77.51981 
L 231.073873 80.071799 
L 232.430453 83.488947 
L 233.787032 87.592867 
L 235.143612 89.612418 
L 236.500191 87.443282 
L 237.856771 84.888979 
L 239.21335 83.108844 
L 240.56993 81.962246 
L 241.926509 81.260242 
L 243.283089 80.864775 
L 244.639668 80.684763 
L 245.996248 80.664586 
L 247.352827 80.782898 
L 248.709407 81.053003 
L 250.065986 81.514547 
L 251.422566 82.232633 
L 252.779145 83.28104 
L 254.135725 84.747103 
L 255.492304 86.690147 
L 258.205463 91.197094 
L 259.562042 91.67092 
L 260.918622 90.300176 
L 262.275201 88.558978 
L 263.631781 87.151739 
L 264.98836 86.175183 
L 266.34494 85.566633 
L 267.701519 85.253755 
L 269.058099 85.173835 
L 270.414678 85.281449 
L 271.771258 85.546167 
L 273.127837 85.952733 
L 274.484417 86.503234 
L 275.840996 87.213725 
L 277.197576 88.120403 
L 278.554155 89.268483 
L 279.910735 90.723069 
L 281.267314 92.537571 
L 283.980473 97.102464 
L 285.337052 98.81858 
L 286.693632 98.7586 
L 290.76337 94.769452 
L 292.11995 93.927538 
L 293.476529 93.375585 
L 294.833109 93.049246 
L 296.189688 92.900664 
L 297.546268 92.897339 
L 298.902847 93.023704 
L 300.259427 93.280258 
L 301.616006 93.677288 
L 302.972586 94.239393 
L 304.329165 94.993401 
L 305.685745 95.982255 
L 307.042324 97.245362 
L 308.398904 98.8479 
L 309.755483 100.844984 
L 311.112063 103.326804 
L 313.825221 109.28139 
L 315.181801 110.667824 
L 316.53838 109.614914 
L 317.89496 107.761193 
L 319.251539 106.165159 
L 320.608119 104.936137 
L 321.964698 104.014465 
L 323.321278 103.327818 
L 324.677857 102.832104 
L 326.034437 102.51087 
L 327.391016 102.3586 
L 328.747596 102.389684 
L 330.104175 102.612998 
L 331.460755 103.055744 
L 332.817334 103.729956 
L 334.173914 104.673015 
L 335.530493 105.900909 
L 336.887073 107.473512 
L 338.243652 109.42815 
L 339.600231 111.898209 
L 340.956811 115.030114 
L 342.31339 119.294379 
L 343.66997 125.374422 
L 345.026549 129.618931 
L 346.383129 124.026156 
L 347.739708 119.922788 
L 349.096288 117.274569 
L 350.452867 115.414248 
L 351.809447 114.076544 
L 353.166026 113.105083 
L 354.522606 112.460887 
L 355.879185 112.090416 
L 357.235765 112.004592 
L 358.592344 112.173129 
L 359.948924 112.624607 
L 361.305503 113.333353 
L 362.662083 114.343094 
L 364.018662 115.629417 
L 365.375242 117.263233 
L 366.731821 119.233613 
L 368.0884 121.689919 
L 369.44498 124.726973 
L 370.801559 128.872419 
L 372.158139 135.313063 
L 373.514718 146.140196 
L 374.871298 136.036163 
L 376.227877 130.365767 
L 377.584457 127.198718 
L 378.941036 125.021638 
L 380.297616 123.561439 
L 381.654195 122.528543 
L 383.010775 121.926176 
L 384.367354 121.620931 
L 385.723934 121.665408 
L 387.080513 121.960836 
L 388.437093 122.583135 
L 389.793672 123.436967 
L 391.150252 124.625195 
L 392.506831 126.044525 
L 393.86341 127.848664 
L 395.21999 129.939971 
L 396.576569 132.614338 
L 397.933149 135.927714 
L 399.289728 140.869909 
L 400.646308 149.837795 
L 402.002887 149.618544 
L 403.359467 141.773763 
L 404.716046 137.46091 
L 406.072626 134.953262 
L 407.429205 133.133591 
L 408.785785 132.009777 
L 410.142364 131.211961 
L 411.498944 130.876239 
L 412.855523 130.757476 
L 414.212103 131.026588 
L 415.568682 131.458532 
L 418.281841 133.190229 
L 420.995 135.953384 
L 422.351579 137.903836 
L 422.351579 137.903836 
" style="fill:none;stroke:#c1292e;stroke-linecap:square;stroke-width:2.5;"/>
   </g>
   <g id="line2d_69">
    <path clip-path="url(#p4500d2ddec)" d="M 80.493552 39.196533 
L 81.850131 41.743201 
L 83.206711 42.560209 
L 84.56329 39.706803 
L 85.91987 37.797074 
L 87.276449 37.364521 
L 88.633029 37.838793 
L 89.989608 38.778186 
L 91.346188 40.04766 
L 92.702767 41.52835 
L 94.059347 42.799154 
L 95.415926 43.669975 
L 96.772505 44.714399 
L 98.129085 46.61702 
L 99.485664 49.772752 
L 100.842244 54.353403 
L 102.198823 60.032544 
L 103.555403 65.007637 
L 104.911982 66.047793 
L 107.625141 52.440109 
L 108.981721 47.839478 
L 110.3383 44.651715 
L 111.69488 42.508171 
L 113.051459 41.21387 
L 114.408039 40.692802 
L 115.764618 40.961527 
L 117.121198 42.096722 
L 118.477777 44.197302 
L 121.190936 50.227718 
L 122.547515 51.116545 
L 123.904095 50.556146 
L 125.260674 50.498736 
L 126.617254 51.407521 
L 127.973833 53.189929 
L 129.330413 55.709134 
L 130.686992 59.105001 
L 132.043572 64.134343 
L 133.400151 66.650279 
L 134.756731 60.083385 
L 136.11331 55.304535 
L 137.46989 52.300037 
L 138.826469 50.469497 
L 140.183049 49.535076 
L 141.539628 49.375448 
L 142.896208 49.951791 
L 144.252787 51.28715 
L 145.609367 53.448183 
L 146.965946 56.504944 
L 148.322526 60.247474 
L 149.679105 63.197245 
L 151.035684 63.603456 
L 152.392264 63.20215 
L 153.748843 63.467438 
L 155.105423 64.548216 
L 156.462002 66.247123 
L 157.818582 68.205368 
L 159.175161 69.498013 
L 160.531741 68.564808 
L 163.2449 63.159747 
L 164.601479 61.017459 
L 165.958059 59.541207 
L 167.314638 58.695856 
L 168.671218 58.432964 
L 170.027797 58.715154 
L 171.384377 59.510724 
L 172.740956 60.793614 
L 174.097536 62.533412 
L 175.454115 64.692465 
L 176.810694 67.212185 
L 179.523853 72.960671 
L 182.237012 79.148302 
L 183.593592 82.948158 
L 184.950171 87.506338 
L 186.306751 85.482406 
L 187.66333 79.50434 
L 189.01991 75.012084 
L 190.376489 71.683265 
L 191.733069 69.157518 
L 193.089648 67.262509 
L 194.446228 65.90996 
L 195.802807 65.055461 
L 197.159387 64.672391 
L 198.515966 64.744512 
L 199.872546 65.258852 
L 201.229125 66.204894 
L 202.585705 67.573358 
L 203.942284 69.360034 
L 205.298863 71.574511 
L 206.655443 74.262252 
L 208.012022 77.547468 
L 209.368602 81.699224 
L 210.725181 86.923589 
L 212.081761 89.475911 
L 214.79492 82.20408 
L 216.151499 79.645562 
L 217.508079 77.703192 
L 218.864658 76.172915 
L 220.221238 74.974486 
L 221.577817 74.100316 
L 222.934397 73.57274 
L 224.290976 73.426338 
L 225.647556 73.698938 
L 227.004135 74.432526 
L 228.360715 75.680733 
L 229.717294 77.520064 
L 231.073873 80.071444 
L 232.430453 83.489504 
L 233.787032 87.591937 
L 235.143612 89.613276 
L 236.500191 87.443039 
L 237.856771 84.888989 
L 239.21335 83.108904 
L 240.56993 81.962159 
L 241.926509 81.260346 
L 243.283089 80.864655 
L 244.639668 80.6849 
L 245.996248 80.664426 
L 247.352827 80.783081 
L 248.709407 81.052792 
L 250.065986 81.514793 
L 251.422566 82.232349 
L 252.779145 83.281391 
L 254.135725 84.746666 
L 255.492304 86.690732 
L 258.205463 91.198055 
L 259.562042 91.670203 
L 260.918622 90.300472 
L 262.275201 88.558916 
L 263.631781 87.151703 
L 264.98836 86.175263 
L 266.34494 85.56653 
L 267.701519 85.253875 
L 269.058099 85.173702 
L 270.414678 85.281602 
L 271.771258 85.545995 
L 273.127837 85.952936 
L 274.484417 86.502997 
L 275.840996 87.214008 
L 277.197576 88.120053 
L 278.554155 89.268914 
L 279.910735 90.722508 
L 281.267314 92.538318 
L 283.980473 97.103876 
L 285.337052 98.817037 
L 286.693632 98.759624 
L 290.76337 94.769514 
L 292.11995 93.927412 
L 293.476529 93.375761 
L 294.833109 93.049043 
L 296.189688 92.900887 
L 297.546268 92.897087 
L 298.902847 93.023982 
L 300.259427 93.279944 
L 301.616006 93.677649 
L 302.972586 94.238973 
L 304.329165 94.993898 
L 305.685745 95.981652 
L 307.042324 97.246111 
L 308.398904 98.846934 
L 309.755483 100.846288 
L 311.112063 103.324944 
L 313.825221 109.277529 
L 315.181801 110.671196 
L 316.53838 109.613535 
L 317.89496 107.76138 
L 319.251539 106.165433 
L 320.608119 104.93568 
L 321.964698 104.015005 
L 323.321278 103.327238 
L 324.677857 102.832707 
L 326.034437 102.510222 
L 327.391016 102.359277 
L 328.747596 102.388945 
L 330.104175 102.613807 
L 331.460755 103.054843 
L 332.817334 103.730986 
L 334.173914 104.671813 
L 335.530493 105.902342 
L 336.887073 107.471736 
L 338.243652 109.430427 
L 339.600231 111.895115 
L 340.956811 115.034674 
L 342.31339 119.286611 
L 343.66997 125.391394 
L 345.026549 129.603981 
L 346.383129 124.023904 
L 347.739708 119.925892 
L 349.096288 117.271782 
L 350.452867 115.416685 
L 351.809447 114.074375 
L 353.166026 113.10713 
L 354.522606 112.458924 
L 355.879185 112.092351 
L 357.235765 112.00257 
L 358.592344 112.17521 
L 359.948924 112.622329 
L 361.305503 113.335858 
L 362.662083 114.34026 
L 364.018662 115.632694 
L 365.375242 117.259326 
L 366.731821 119.238357 
L 368.0884 121.683945 
L 369.44498 124.73486 
L 370.801559 128.86156 
L 372.158139 135.329053 
L 373.514718 146.24461 
L 374.871298 136.001876 
L 376.227877 130.381751 
L 377.584457 127.188345 
L 378.941036 125.029427 
L 380.297616 123.554933 
L 381.654195 122.534289 
L 383.010775 121.920803 
L 384.367354 121.626208 
L 385.723934 121.660095 
L 387.080513 121.966409 
L 388.437093 122.577151 
L 389.793672 123.443568 
L 391.150252 124.617773 
L 392.506831 126.053145 
L 393.86341 127.838542 
L 395.21999 129.952267 
L 396.576569 132.598905 
L 397.933149 135.947978 
L 399.289728 140.841911 
L 400.646308 149.860944 
L 402.002887 149.761779 
L 403.359467 141.726676 
L 404.716046 137.48794 
L 406.072626 134.93397 
L 407.429205 133.149298 
L 408.785785 131.996212 
L 410.142364 131.224621 
L 411.498944 130.864034 
L 412.855523 130.76973 
L 414.212103 131.013847 
L 415.568682 131.472065 
L 416.925262 132.246507 
L 418.281841 133.206832 
L 419.638421 134.498513 
L 420.995 135.975995 
L 422.351579 137.876369 
L 422.351579 137.876369 
" style="fill:none;stroke:#fca311;stroke-dasharray:6,3;stroke-dashoffset:0;stroke-width:2;"/>
   </g>
   <g id="patch_3">
    <path d="M 81.850131 276.72375 
L 81.850131 25.020625 
" style="fill:none;stroke:#000000;stroke-linecap:square;stroke-linejoin:miter;stroke-width:0.8;"/>
   </g>
   <g id="patch_4">
    <path d="M 420.995 276.72375 
L 420.995 25.020625 
" style="fill:none;stroke:#000000;stroke-linecap:square;stroke-linejoin:miter;stroke-width:0.8;"/>
   </g>
   <g id="patch_5">
    <path d="M 81.850131 276.72375 
L 420.995 276.72375 
" style="fill:none;stroke:#000000;stroke-linecap:square;stroke-linejoin:miter;stroke-width:0.8;"/>
   </g>
   <g id="patch_6">
    <path d="M 81.850131 25.020625 
L 420.995 25.020625 
" style="fill:none;stroke:#000000;stroke-linecap:square;stroke-linejoin:miter;stroke-width:0.8;"/>
   </g>
  </g>
 </g>
 <defs>
  <clipPath id="p4500d2ddec">
   <rect height="251.703125" width="339.144869" x="81.850131" y="25.020625"/>
  </clipPath>
 </defs>
</svg>
